<?xml version="1.0" encoding="utf-8"?>
<!-- Generator: Adobe Illustrator 15.0.0, SVG Export Plug-In . SVG Version: 6.00 Build 0)  -->
<!DOCTYPE svg PUBLIC "-//W3C//DTD SVG 1.1//EN" "http://www.w3.org/Graphics/SVG/1.1/DTD/svg11.dtd">
<svg version="1.1" id="圖層_1" xmlns="http://www.w3.org/2000/svg" xmlns:xlink="http://www.w3.org/1999/xlink" x="0px" y="0px"
	 width="26px" height="26px" viewBox="0 0 26 26" enable-background="new 0 0 26 26" xml:space="preserve">
<g>
	<g>
		<path fill="#FFFFFF" d="M13,25C6.383,25,1,19.617,1,13C1,6.383,6.383,1,13,1c6.617,0,12,5.383,12,12C25,19.617,19.617,25,13,25z"
			/>
		<path fill="#DC2726" d="M13,2c6.065,0,11,4.935,11,11s-4.935,11-11,11S2,19.065,2,13S6.935,2,13,2 M13,0C5.82,0,0,5.82,0,13
			c0,7.181,5.82,13,13,13c7.18,0,13-5.819,13-13C26,5.82,20.18,0,13,0L13,0z"/>
	</g>
	<g>
		<polygon fill="#DC2726" points="19.061,8.949 19.061,6.852 6.938,6.852 6.938,19.148 18.944,19.148 18.944,17.167 8.804,17.167 
			8.804,13.962 16.846,13.962 16.846,12.039 8.863,12.039 8.863,8.949 		"/>
	</g>
</g>
</svg>
