<?xml version="1.0" encoding="utf-8"?>
<!-- Generator: Adobe Illustrator 15.0.0, SVG Export Plug-In . SVG Version: 6.00 Build 0)  -->
<!DOCTYPE svg PUBLIC "-//W3C//DTD SVG 1.1//EN" "http://www.w3.org/Graphics/SVG/1.1/DTD/svg11.dtd">
<svg version="1.1" id="圖層_1" xmlns="http://www.w3.org/2000/svg" xmlns:xlink="http://www.w3.org/1999/xlink" x="0px" y="0px"
	 width="26px" height="26px" viewBox="0 0 26 26" enable-background="new 0 0 26 26" xml:space="preserve">
<g>
	<g>
		<circle fill="#FFFFFF" cx="13" cy="13" r="13"/>
		<path fill="#DC2726" d="M13,1.996c6.067,0,11.004,4.937,11.004,11.004S19.067,24.004,13,24.004S1.996,19.067,1.996,13
			S6.933,1.996,13,1.996 M13,0C5.82,0,0,5.82,0,13c0,7.181,5.82,13,13,13c7.18,0,13-5.819,13-13C26,5.82,20.18,0,13,0L13,0z"/>
	</g>
	<g>
		<polygon fill="#DC2726" points="19.061,8.949 19.061,6.852 6.938,6.852 6.938,19.148 18.944,19.148 18.944,17.167 8.804,17.167 
			8.804,13.962 16.846,13.962 16.846,12.039 8.863,12.039 8.863,8.949 		"/>
	</g>
</g>
</svg>
