<svg xmlns="http://www.w3.org/2000/svg" xmlns:xlink="http://www.w3.org/1999/xlink" preserveAspectRatio="xMidYMid" width="17" height="17" viewBox="0 0 17 17">
  <defs>
    <style>
      .cls-1 {
        fill: #242526;
        fill-rule: evenodd;
      }
    </style>
  </defs>
  <path d="M14.850,17.000 L10.835,12.956 C9.735,13.681 8.419,14.106 7.000,14.106 C3.129,14.106 -0.000,10.947 -0.000,7.050 C-0.000,3.160 3.129,0.000 7.000,0.000 C10.863,0.000 13.999,3.160 13.999,7.050 C13.999,8.410 13.618,9.678 12.960,10.752 L17.004,14.824 L14.850,17.000 ZM11.673,7.050 C11.673,4.449 9.582,2.343 6.999,2.343 C4.416,2.343 2.319,4.449 2.319,7.050 C2.319,9.650 4.416,11.763 6.999,11.763 C9.582,11.763 11.673,9.651 11.673,7.050 Z" class="cls-1"/>
</svg>
