<svg xmlns="http://www.w3.org/2000/svg" xmlns:xlink="http://www.w3.org/1999/xlink" preserveAspectRatio="xMidYMid" width="145" height="146" viewBox="0 0 145 146">
  <defs>
    <style>
      .cls-1 {
        fill: #f5f5f5;
        filter: url(#drop-shadow-1);
        fill-rule: evenodd;
      }
    </style>

    <filter id="drop-shadow-1" filterUnits="userSpaceOnUse">
      <feOffset dx="0.707" dy="0.707" in="SourceAlpha"/>
      <feGaussianBlur stdDeviation="1" result="dropBlur"/>
      <feFlood flood-opacity="0.3"/>
      <feComposite operator="in" in2="dropBlur" result="dropShadowComp"/>
      <feComposite in="SourceGraphic" result="shadowed"/>
    </filter>
  </defs>
  <path d="M124.476,42.635 C123.836,42.228 123.343,41.992 123.095,43.019 C123.032,43.279 122.676,43.628 122.424,43.655 C120.943,43.813 120.939,44.784 120.945,45.925 C120.979,52.231 120.969,58.537 120.955,64.843 C120.952,65.787 121.183,67.014 120.690,67.593 C120.208,68.159 118.945,68.092 118.016,68.255 C116.994,68.435 116.517,67.756 116.519,66.317 C116.530,58.583 116.525,50.850 116.526,43.117 C116.526,42.616 116.526,42.115 116.526,41.586 C118.664,41.885 120.586,42.154 122.508,42.423 C122.599,42.291 122.690,42.159 122.781,42.028 C122.367,41.577 121.999,41.072 121.532,40.685 C118.416,38.108 115.277,35.556 112.147,32.996 C112.248,32.864 112.349,32.732 112.451,32.601 C115.457,34.370 118.370,36.330 121.496,37.856 C124.654,39.397 127.960,40.709 131.318,41.752 C134.707,42.805 138.239,43.404 141.821,44.227 C140.644,45.787 139.456,47.358 138.254,48.949 C133.423,47.344 128.774,45.368 124.476,42.635 ZM132.086,28.439 C132.088,29.249 132.309,30.057 132.340,30.870 C132.430,33.232 132.148,33.535 129.821,33.766 C128.094,33.938 127.914,33.777 127.914,32.040 C127.912,27.533 127.913,23.025 127.913,18.301 C123.883,18.301 120.006,18.300 116.129,18.303 C115.453,18.304 114.762,18.344 114.924,17.204 C118.668,17.204 122.411,17.142 126.150,17.236 C127.553,17.272 128.003,16.880 127.945,15.465 C127.835,12.754 127.939,10.035 127.899,7.321 C127.886,6.375 127.713,5.431 127.584,4.214 C129.191,4.214 130.714,4.214 132.428,4.214 C132.301,5.720 132.096,7.069 132.089,8.419 C132.055,15.092 132.064,21.765 132.086,28.439 ZM105.504,31.077 C104.350,31.673 103.843,33.395 102.842,34.421 C101.086,36.220 99.159,37.853 97.332,39.585 C97.000,39.899 96.803,40.351 96.544,40.739 C96.932,40.905 97.308,41.117 97.712,41.228 C98.576,41.465 99.454,41.651 100.528,41.905 C100.171,44.728 99.952,47.530 99.424,50.273 C99.046,52.240 98.358,54.169 97.624,56.044 C96.323,59.363 93.732,61.645 90.830,63.502 C86.392,66.341 81.349,67.679 76.261,68.834 C76.135,68.863 75.989,68.807 75.754,68.569 C77.249,67.928 78.752,67.305 80.237,66.643 C85.697,64.214 90.592,61.107 93.358,55.541 C94.727,52.786 95.278,49.818 95.403,46.774 C95.472,45.077 95.415,43.375 95.415,41.221 C94.166,41.892 93.114,42.372 92.150,42.990 C86.366,46.695 79.944,48.722 73.314,50.213 C73.251,50.095 73.188,49.977 73.125,49.859 C73.468,49.675 73.791,49.428 74.157,49.314 C80.536,47.331 86.497,44.451 91.666,40.263 C94.873,37.664 97.604,34.486 100.540,31.559 C100.693,31.406 100.801,31.178 100.858,30.966 C101.157,29.841 101.885,29.492 103.010,29.616 C103.829,29.707 104.666,29.634 105.593,29.634 C105.593,25.866 105.593,22.169 105.593,18.386 C100.020,18.386 94.450,18.386 88.740,18.386 C88.740,19.844 88.740,21.258 88.740,22.672 C88.740,25.802 88.740,28.931 88.740,32.061 C88.740,32.337 88.762,32.616 88.733,32.889 C88.634,33.827 87.041,34.527 85.296,34.295 C84.356,34.170 83.830,33.652 84.276,32.589 C84.392,32.314 84.302,31.952 84.302,31.630 C84.303,22.195 84.306,12.759 84.296,3.324 C84.296,2.748 84.199,2.172 84.138,1.500 C85.422,2.202 86.733,2.826 87.928,3.623 C88.346,3.902 88.697,4.603 88.705,5.117 C88.768,9.072 88.740,13.029 88.740,17.095 C94.360,17.095 99.931,17.095 105.656,17.095 C105.656,13.060 105.656,8.994 105.656,4.853 C107.222,4.853 108.633,4.853 110.181,4.853 C110.181,13.491 110.181,22.083 110.181,30.713 C110.288,30.707 110.104,30.719 109.921,30.729 C108.428,30.804 106.711,30.453 105.504,31.077 ZM61.758,22.881 C63.105,20.816 64.398,18.834 65.802,16.683 C68.190,18.797 70.329,20.690 72.468,22.582 C72.414,22.682 72.359,22.782 72.305,22.881 C68.878,22.881 65.451,22.881 61.758,22.881 ZM64.442,56.586 C66.514,59.031 68.497,61.371 70.310,63.510 C57.303,63.510 43.835,63.510 30.359,63.510 C30.129,62.511 30.129,62.502 31.391,62.502 C39.527,62.499 47.664,62.500 55.801,62.500 C60.123,62.500 60.120,62.499 62.590,59.051 C63.061,58.394 63.561,57.756 64.442,56.586 ZM56.913,49.491 C55.892,49.808 54.796,49.963 53.725,49.986 C53.463,49.992 52.979,49.268 52.949,48.854 C52.850,47.486 52.912,46.107 52.912,44.600 C47.566,44.600 42.400,44.600 37.077,44.600 C37.077,45.926 37.089,47.200 37.074,48.474 C37.053,50.270 36.697,50.624 34.908,50.617 C32.036,50.604 32.366,50.936 32.359,48.149 C32.349,44.237 32.320,40.324 32.367,36.412 C32.411,32.701 32.595,28.991 32.622,25.280 C32.667,19.153 32.654,13.025 32.618,6.898 C32.610,5.540 32.404,4.182 32.273,2.635 C33.834,3.313 35.252,3.863 36.590,4.563 C36.894,4.722 37.054,5.404 37.057,5.846 C37.089,10.633 37.077,15.420 37.077,20.207 C37.077,20.708 37.077,21.209 37.077,21.802 C42.356,21.802 47.556,21.802 52.860,21.802 C52.860,16.371 52.860,10.957 52.860,5.435 C54.270,5.435 55.582,5.435 57.077,5.435 C57.077,5.898 57.077,6.385 57.077,6.873 C57.077,11.245 57.047,15.619 57.083,19.991 C57.154,28.586 57.256,37.182 57.366,45.777 C57.376,46.587 57.637,47.402 57.594,48.204 C57.569,48.661 57.254,49.385 56.913,49.491 ZM52.535,23.387 C47.424,23.387 42.413,23.387 37.429,23.387 C37.429,30.013 37.429,36.527 37.429,43.102 C42.481,43.102 47.460,43.102 52.535,43.102 C52.535,36.443 52.535,29.896 52.535,23.387 ZM29.554,110.778 C30.031,121.729 26.527,131.230 17.465,138.354 C24.109,130.262 26.180,120.869 25.628,110.599 C24.651,110.599 23.702,110.599 22.753,110.599 C22.682,110.440 22.611,110.282 22.540,110.124 C23.129,109.807 23.712,109.232 24.308,109.218 C27.910,109.132 31.516,109.175 35.403,109.175 C33.845,111.617 31.538,109.979 29.554,110.778 ZM26.230,86.972 C26.261,90.286 26.240,93.600 26.240,96.914 C26.240,98.670 26.256,100.426 26.235,102.181 C26.220,103.431 25.385,104.010 23.699,103.905 C22.707,103.844 22.268,103.300 22.347,102.263 C22.513,100.088 22.606,97.907 22.731,95.697 C21.747,95.781 20.973,95.787 20.228,95.937 C19.822,96.018 19.348,96.255 19.104,96.573 C16.326,100.201 13.737,103.984 10.790,107.469 C8.201,110.530 5.224,113.265 2.413,116.140 C2.323,116.231 2.186,116.301 2.061,116.325 C1.934,116.349 1.794,116.302 1.500,116.268 C7.872,109.150 12.534,101.110 16.175,92.316 C18.233,93.197 20.321,94.091 22.499,95.023 C22.499,90.683 22.499,86.621 22.499,82.475 C24.434,82.773 26.404,83.077 28.374,83.381 C28.416,83.519 28.459,83.657 28.501,83.795 C28.268,83.944 28.048,84.192 27.799,84.227 C26.048,84.469 26.218,85.725 26.230,86.972 ZM15.780,83.902 C12.415,87.997 8.739,91.734 4.382,94.784 C3.897,95.124 3.376,95.412 2.793,95.622 C8.111,89.828 12.846,83.716 15.341,75.944 C17.560,76.901 19.701,77.824 22.087,78.854 C21.656,79.164 21.506,79.365 21.345,79.374 C18.376,79.525 17.297,82.056 15.780,83.902 ZM16.156,63.892 C15.247,63.787 14.315,63.873 13.248,63.873 C13.248,50.263 13.248,36.719 13.248,22.863 C10.294,23.006 7.588,23.093 4.890,23.285 C3.083,23.414 2.836,23.244 3.017,21.462 C6.330,21.650 9.648,21.837 13.224,22.040 C13.224,16.768 13.224,11.688 13.224,6.344 C14.791,7.315 16.235,8.151 17.597,9.102 C17.863,9.288 17.891,9.922 17.894,10.350 C17.917,13.708 17.907,17.067 17.907,20.425 C17.907,34.326 17.887,48.226 17.938,62.126 C17.943,63.520 17.577,64.056 16.156,63.892 ZM12.365,115.529 C13.092,114.462 13.847,113.414 14.824,112.025 C14.824,121.502 14.824,130.550 14.824,139.711 C13.777,139.711 12.746,139.711 11.527,139.711 C11.527,139.259 11.527,138.773 11.527,138.286 C11.527,131.715 11.559,125.143 11.497,118.572 C11.486,117.419 11.742,116.444 12.365,115.529 ZM37.054,127.302 C37.112,125.048 37.130,122.791 37.061,120.537 C37.029,119.464 37.341,119.063 38.470,119.097 C41.278,119.182 40.948,118.845 40.961,121.509 C40.969,123.251 40.962,124.994 40.962,127.160 C44.410,125.870 47.629,124.665 50.847,123.460 C50.888,123.509 50.930,123.558 50.972,123.607 C50.263,124.124 49.601,124.727 48.838,125.145 C44.665,127.431 40.470,129.677 36.275,131.923 C35.800,132.178 35.286,132.368 34.777,132.554 C33.796,132.913 33.172,133.474 33.150,134.629 C33.141,135.120 32.773,135.604 32.416,136.453 C31.487,134.104 30.682,132.065 29.939,130.185 C32.264,129.584 34.375,129.080 36.450,128.456 C36.750,128.365 37.044,127.705 37.054,127.302 ZM46.282,85.494 C46.515,85.545 46.755,86.128 46.772,86.477 C46.831,87.715 46.772,88.959 46.800,90.201 C46.880,93.679 46.998,97.157 47.065,100.635 C47.092,102.071 46.759,102.203 44.736,102.289 C43.507,102.341 43.022,101.939 43.184,100.725 C43.243,100.282 43.193,99.825 43.193,99.191 C39.568,99.191 36.157,99.191 32.778,99.191 C32.778,92.021 32.778,84.946 32.778,77.583 C34.813,77.963 36.865,78.344 39.040,78.748 C38.816,79.069 38.775,79.199 38.710,79.212 C36.582,79.641 36.428,81.077 36.475,82.932 C36.601,87.935 36.518,92.943 36.518,98.039 C38.753,98.039 40.896,98.039 43.186,98.039 C43.186,93.760 43.186,89.507 43.186,85.105 C44.328,85.233 45.324,85.282 46.282,85.494 ZM41.983,137.895 C45.110,135.249 47.941,132.235 50.731,129.225 C52.328,127.503 53.612,125.490 54.990,123.574 C55.421,122.976 55.664,122.404 55.319,121.494 C53.470,116.622 52.259,111.576 51.555,106.411 C51.414,105.377 51.160,104.359 50.903,103.048 C49.514,104.949 48.345,106.550 47.177,108.150 C47.026,108.065 46.875,107.979 46.724,107.893 C50.908,97.893 54.368,87.707 55.084,76.474 C56.989,76.891 58.904,77.309 61.189,77.809 C60.783,79.073 60.449,80.200 60.058,81.309 C58.783,84.929 57.597,88.585 56.164,92.143 C55.069,94.861 53.643,97.447 52.388,100.103 C52.203,100.493 51.997,100.969 52.058,101.367 C52.937,107.147 54.409,112.763 56.924,118.075 C57.013,118.263 57.145,118.430 57.524,119.029 C58.399,116.535 59.338,114.441 59.858,112.248 C60.752,108.476 61.384,104.643 62.130,100.836 C62.317,99.884 62.905,99.906 63.534,100.359 C64.199,100.837 64.768,101.447 65.434,101.925 C66.626,102.780 66.867,103.789 66.492,105.225 C64.937,111.186 63.243,117.086 60.163,122.488 C59.774,123.171 59.828,123.662 60.324,124.318 C62.394,127.063 64.545,129.707 67.447,131.654 C67.774,131.872 67.939,132.358 68.128,132.744 C68.384,133.267 68.590,133.814 68.871,134.476 C68.142,135.442 67.319,136.533 66.323,137.855 C64.430,136.416 62.671,134.870 61.369,132.846 C60.097,130.870 58.840,128.884 57.449,126.702 C51.292,135.267 43.136,140.897 33.484,144.500 C33.371,144.407 33.259,144.315 33.146,144.222 C33.408,143.887 33.604,143.456 33.940,143.233 C36.624,141.452 39.545,139.958 41.983,137.895 ZM79.192,105.268 C78.897,105.253 78.622,104.849 78.337,104.624 C78.451,104.504 78.564,104.385 78.678,104.266 C80.416,104.266 82.154,104.266 83.893,104.266 C83.974,104.370 84.056,104.475 84.137,104.579 C83.871,104.819 83.615,105.251 83.338,105.266 C81.958,105.337 80.571,105.337 79.192,105.268 ZM92.908,98.928 C91.684,94.828 90.305,90.787 88.174,87.052 C87.004,85.002 85.708,83.023 84.469,81.012 C84.546,80.922 84.623,80.832 84.699,80.742 C85.983,81.826 87.360,82.819 88.532,84.012 C90.839,86.357 93.096,88.758 95.254,91.239 C97.333,93.630 97.145,97.172 94.984,99.495 C94.142,100.400 93.288,100.199 92.908,98.928 ZM117.680,101.271 C120.057,96.916 122.523,92.608 124.818,88.211 C125.834,86.267 126.514,84.150 127.342,82.110 C127.490,81.747 127.619,81.376 127.780,80.949 C128.754,81.335 129.626,81.696 130.509,82.026 C131.352,82.341 132.207,82.624 133.331,83.016 C128.465,89.799 123.406,96.197 117.557,102.143 C117.594,101.850 117.548,101.513 117.680,101.271 ZM87.204,134.783 C91.944,130.136 94.825,124.403 95.960,117.862 C96.423,115.194 96.753,112.500 97.068,109.810 C97.278,108.006 97.355,106.186 97.504,104.218 C100.160,104.218 102.862,104.218 105.554,104.218 C105.554,95.042 105.554,86.018 105.554,76.863 C108.286,77.340 111.132,77.199 113.739,78.320 C113.760,78.468 113.781,78.615 113.802,78.763 C113.033,79.047 112.238,79.282 111.503,79.640 C111.169,79.801 110.722,80.203 110.720,80.498 C110.677,88.354 110.686,96.210 110.686,104.205 C111.403,104.205 111.991,104.205 112.580,104.205 C118.319,104.205 124.058,104.221 129.797,104.175 C130.280,104.171 130.893,103.868 131.221,103.504 C132.772,101.782 134.245,99.990 135.828,98.127 C138.396,100.359 140.948,102.577 143.500,104.794 C143.444,104.922 143.388,105.050 143.332,105.178 C142.900,105.219 142.468,105.295 142.035,105.296 C134.584,105.303 127.133,105.323 119.681,105.288 C117.200,105.276 114.718,105.039 112.237,105.045 C109.200,105.054 106.164,105.234 103.127,105.287 C102.224,105.302 102.070,105.740 102.064,106.501 C102.018,112.444 100.814,118.155 98.532,123.646 C96.513,128.503 93.537,132.636 89.431,136.000 C85.884,138.906 81.963,141.096 77.678,142.684 C77.329,142.814 76.959,142.890 76.598,142.991 C76.546,142.886 76.495,142.783 76.443,142.678 C77.466,142.068 78.552,141.540 79.499,140.830 C82.114,138.871 84.888,137.055 87.204,134.783 ZM113.751,121.568 C114.850,121.084 115.837,120.351 117.073,119.607 C117.073,125.161 117.099,130.357 117.054,135.554 C117.043,136.824 117.437,137.365 118.792,137.372 C122.474,137.392 126.155,137.558 129.838,137.605 C130.928,137.619 132.036,137.512 133.108,137.315 C134.328,137.092 135.054,136.203 135.397,135.072 C136.724,130.690 138.012,126.296 139.322,121.909 C139.368,121.756 139.493,121.627 139.892,121.537 C139.765,123.807 139.651,126.078 139.507,128.347 C139.359,130.661 139.099,132.972 139.083,135.286 C139.079,135.788 139.884,136.311 140.347,136.798 C140.905,137.385 142.040,138.053 141.951,138.489 C141.793,139.262 141.027,140.136 140.282,140.513 C139.352,140.983 138.191,141.148 137.122,141.179 C131.822,141.328 126.519,141.415 121.217,141.465 C119.709,141.479 118.190,141.368 116.693,141.182 C113.679,140.807 112.427,139.401 112.376,136.219 C112.309,132.080 112.348,127.940 112.368,123.800 C112.373,122.810 112.694,122.034 113.751,121.568 Z" class="cls-1"/>
</svg>
