<svg xmlns="http://www.w3.org/2000/svg" xmlns:xlink="http://www.w3.org/1999/xlink" preserveAspectRatio="xMidYMid" width="159.969" height="40" viewBox="0 0 159.969 40">
  <defs>
    <style>
      .cls-1 {
        fill: #242526;
        fill-rule: evenodd;
      }
    </style>
  </defs>
  <path d="M159.875,17.756 C159.632,17.779 159.390,17.822 159.146,17.822 C154.960,17.826 150.774,17.838 146.588,17.818 C145.194,17.812 143.799,17.677 142.406,17.681 C140.699,17.686 138.994,17.788 137.287,17.817 C136.780,17.826 136.694,18.074 136.690,18.504 C136.664,21.866 135.988,25.097 134.706,28.203 C133.572,30.951 131.900,33.289 129.593,35.191 C127.600,36.835 125.397,38.074 122.990,38.972 C122.794,39.046 122.586,39.089 122.383,39.146 C122.354,39.087 122.325,39.028 122.296,38.969 C122.871,38.624 123.481,38.325 124.013,37.923 C125.482,36.815 127.041,35.788 128.342,34.503 C131.005,31.874 132.623,28.631 133.261,24.931 C133.521,23.422 133.707,21.898 133.883,20.376 C134.002,19.356 134.045,18.326 134.128,17.213 C135.621,17.213 137.139,17.213 138.651,17.213 C138.651,12.022 138.651,6.918 138.651,1.739 C140.186,2.009 141.785,1.929 143.250,2.563 C143.261,2.646 143.273,2.730 143.285,2.813 C142.852,2.974 142.406,3.107 141.993,3.309 C141.806,3.401 141.554,3.628 141.553,3.795 C141.529,8.239 141.534,12.683 141.534,17.205 C141.937,17.205 142.267,17.205 142.598,17.205 C145.822,17.205 149.047,17.215 152.271,17.189 C152.542,17.186 152.887,17.015 153.071,16.809 C153.942,15.835 154.770,14.821 155.659,13.767 C157.102,15.030 158.536,16.285 159.969,17.539 C159.938,17.611 159.907,17.683 159.875,17.756 ZM145.463,15.546 C146.799,13.083 148.184,10.645 149.474,8.158 C150.044,7.058 150.426,5.861 150.892,4.707 C150.975,4.502 151.047,4.292 151.137,4.050 C151.685,4.268 152.175,4.473 152.671,4.659 C153.145,4.838 153.625,4.997 154.256,5.220 C151.522,9.056 148.680,12.675 145.394,16.039 C145.415,15.873 145.390,15.683 145.463,15.546 ZM131.547,14.220 C130.859,11.901 130.084,9.615 128.887,7.502 C128.230,6.343 127.501,5.223 126.805,4.086 C126.848,4.035 126.892,3.984 126.934,3.933 C127.656,4.546 128.430,5.108 129.088,5.783 C130.384,7.109 131.652,8.467 132.864,9.871 C134.032,11.223 133.927,13.227 132.713,14.541 C132.240,15.053 131.760,14.939 131.547,14.220 ZM123.841,17.807 C123.675,17.798 123.520,17.570 123.360,17.443 C123.424,17.375 123.488,17.307 123.552,17.240 C124.528,17.240 125.505,17.240 126.481,17.240 C126.527,17.299 126.573,17.358 126.619,17.417 C126.469,17.553 126.326,17.797 126.170,17.806 C125.395,17.846 124.615,17.846 123.841,17.807 ZM113.827,33.407 C113.113,32.289 112.407,31.166 111.625,29.932 C108.166,34.776 103.584,37.961 98.161,40.000 C98.098,39.947 98.035,39.895 97.972,39.842 C98.119,39.653 98.229,39.409 98.418,39.283 C99.925,38.275 101.567,37.430 102.936,36.264 C104.693,34.766 106.283,33.062 107.851,31.359 C108.748,30.385 109.470,29.246 110.244,28.162 C110.485,27.824 110.622,27.500 110.428,26.986 C109.390,24.230 108.709,21.375 108.314,18.453 C108.235,17.869 108.092,17.292 107.947,16.551 C107.167,17.627 106.511,18.532 105.854,19.437 C105.769,19.389 105.685,19.340 105.599,19.292 C107.950,13.635 109.894,7.873 110.296,1.519 C111.367,1.755 112.442,1.991 113.726,2.274 C113.498,2.989 113.310,3.626 113.091,4.254 C112.375,6.301 111.708,8.370 110.903,10.382 C110.288,11.920 109.487,13.383 108.781,14.885 C108.678,15.106 108.562,15.375 108.596,15.600 C109.090,18.870 109.917,22.047 111.330,25.052 C111.380,25.158 111.454,25.252 111.667,25.591 C112.159,24.181 112.686,22.996 112.978,21.755 C113.481,19.622 113.836,17.453 114.255,15.300 C114.360,14.761 114.690,14.774 115.044,15.030 C115.417,15.300 115.737,15.646 116.111,15.916 C116.781,16.400 116.916,16.970 116.706,17.782 C115.832,21.154 114.880,24.492 113.150,27.548 C112.931,27.934 112.962,28.212 113.240,28.583 C114.403,30.136 115.612,31.631 117.242,32.733 C117.426,32.857 117.519,33.131 117.625,33.350 C117.769,33.646 117.884,33.955 118.042,34.329 C117.633,34.876 117.170,35.493 116.610,36.241 C115.547,35.427 114.559,34.552 113.827,33.407 ZM104.483,16.121 C103.792,16.151 103.520,15.923 103.611,15.237 C103.644,14.986 103.616,14.728 103.616,14.369 C101.579,14.369 99.663,14.369 97.764,14.369 C97.764,10.314 97.764,6.311 97.764,2.146 C98.908,2.361 100.061,2.576 101.283,2.805 C101.157,2.987 101.134,3.060 101.097,3.068 C99.902,3.310 99.815,4.123 99.842,5.172 C99.912,8.002 99.866,10.835 99.866,13.717 C101.122,13.717 102.326,13.717 103.612,13.717 C103.612,11.297 103.612,8.891 103.612,6.401 C104.254,6.473 104.813,6.501 105.352,6.621 C105.482,6.650 105.617,6.980 105.627,7.177 C105.660,7.878 105.627,8.581 105.643,9.284 C105.687,11.251 105.754,13.218 105.791,15.186 C105.807,15.998 105.619,16.073 104.483,16.121 ZM95.953,20.923 C96.221,27.119 94.253,32.493 89.162,36.523 C92.895,31.946 94.058,26.632 93.748,20.822 C93.199,20.822 92.666,20.822 92.133,20.822 C92.093,20.733 92.053,20.643 92.013,20.554 C92.344,20.375 92.671,20.049 93.006,20.041 C95.030,19.993 97.056,20.017 99.240,20.017 C98.364,21.398 97.068,20.472 95.953,20.923 ZM94.086,7.457 C94.103,9.332 94.092,11.207 94.092,13.081 C94.092,14.074 94.100,15.068 94.089,16.061 C94.080,16.768 93.611,17.095 92.664,17.036 C92.106,17.001 91.860,16.694 91.905,16.107 C91.998,14.876 92.050,13.643 92.120,12.392 C91.567,12.440 91.132,12.443 90.714,12.528 C90.486,12.574 90.220,12.708 90.083,12.888 C88.522,14.941 87.068,17.081 85.412,19.052 C83.957,20.783 82.284,22.331 80.705,23.957 C80.655,24.008 80.578,24.048 80.508,24.062 C80.436,24.075 80.358,24.049 80.193,24.029 C83.772,20.003 86.391,15.455 88.437,10.480 C89.593,10.979 90.766,11.484 91.990,12.011 C91.990,9.557 91.990,7.259 91.990,4.913 C93.077,5.082 94.184,5.254 95.290,5.426 C95.314,5.504 95.338,5.582 95.362,5.660 C95.231,5.744 95.107,5.885 94.967,5.904 C93.984,6.041 94.079,6.752 94.086,7.457 ZM88.215,5.720 C86.325,8.037 84.259,10.151 81.812,11.876 C81.539,12.069 81.247,12.232 80.919,12.351 C83.907,9.073 86.567,5.615 87.969,1.219 C89.215,1.760 90.418,2.282 91.759,2.865 C91.516,3.040 91.432,3.154 91.342,3.159 C89.673,3.245 89.067,4.676 88.215,5.720 ZM68.237,23.271 C67.878,23.041 67.601,22.907 67.461,23.488 C67.426,23.635 67.226,23.833 67.085,23.848 C66.253,23.937 66.250,24.486 66.254,25.132 C66.273,28.699 66.267,32.267 66.259,35.834 C66.258,36.367 66.387,37.062 66.111,37.389 C65.840,37.710 65.130,37.671 64.608,37.764 C64.034,37.866 63.766,37.481 63.767,36.667 C63.774,32.293 63.771,27.918 63.771,23.544 C63.771,23.260 63.771,22.977 63.771,22.678 C64.972,22.847 66.052,22.999 67.132,23.151 C67.183,23.076 67.234,23.002 67.285,22.927 C67.052,22.673 66.846,22.387 66.583,22.168 C64.833,20.710 63.070,19.266 61.311,17.818 C61.368,17.744 61.425,17.669 61.481,17.595 C63.171,18.596 64.807,19.704 66.563,20.568 C68.337,21.439 70.195,22.181 72.081,22.771 C73.986,23.367 75.970,23.706 77.982,24.172 C77.321,25.054 76.653,25.943 75.978,26.843 C73.264,25.935 70.652,24.817 68.237,23.271 ZM72.513,15.241 C72.514,15.699 72.638,16.156 72.656,16.616 C72.706,17.952 72.548,18.123 71.240,18.254 C70.270,18.351 70.169,18.260 70.169,17.278 C70.168,14.728 70.169,12.178 70.169,9.506 C67.904,9.506 65.726,9.505 63.548,9.507 C63.168,9.507 62.780,9.530 62.871,8.885 C64.974,8.885 67.077,8.850 69.178,8.903 C69.966,8.923 70.219,8.702 70.187,7.901 C70.124,6.368 70.183,4.830 70.161,3.294 C70.153,2.759 70.056,2.225 69.984,1.537 C70.886,1.537 71.742,1.537 72.705,1.537 C72.634,2.389 72.518,3.152 72.515,3.916 C72.495,7.691 72.501,11.466 72.513,15.241 ZM57.579,16.733 C56.930,17.070 56.645,18.044 56.083,18.625 C55.097,19.642 54.014,20.566 52.987,21.546 C52.801,21.723 52.691,21.979 52.545,22.199 C52.763,22.292 52.974,22.412 53.201,22.475 C53.687,22.609 54.180,22.714 54.783,22.858 C54.583,24.455 54.460,26.040 54.163,27.592 C53.951,28.705 53.564,29.796 53.152,30.856 C52.421,32.734 50.965,34.025 49.335,35.075 C46.841,36.681 44.008,37.438 41.150,38.091 C41.079,38.107 40.997,38.076 40.865,37.941 C41.705,37.579 42.549,37.226 43.384,36.852 C46.451,35.478 49.201,33.720 50.755,30.571 C51.524,29.013 51.834,27.334 51.904,25.612 C51.943,24.653 51.911,23.690 51.911,22.471 C51.209,22.851 50.618,23.122 50.077,23.472 C46.827,25.568 43.219,26.714 39.494,27.558 C39.459,27.491 39.423,27.424 39.388,27.358 C39.581,27.253 39.762,27.113 39.968,27.049 C43.552,25.927 46.901,24.299 49.805,21.929 C51.606,20.459 53.141,18.661 54.790,17.006 C54.876,16.919 54.937,16.790 54.968,16.670 C55.136,16.034 55.546,15.836 56.178,15.907 C56.638,15.958 57.108,15.916 57.629,15.916 C57.629,13.785 57.629,11.694 57.629,9.554 C54.498,9.554 51.369,9.554 48.160,9.554 C48.160,10.378 48.160,11.178 48.160,11.978 C48.160,13.749 48.160,15.519 48.160,17.290 C48.160,17.446 48.173,17.603 48.157,17.758 C48.101,18.289 47.206,18.684 46.226,18.553 C45.698,18.483 45.402,18.190 45.653,17.588 C45.718,17.432 45.667,17.228 45.667,17.046 C45.668,11.708 45.669,6.371 45.664,1.034 C45.664,0.708 45.609,0.382 45.575,0.002 C46.297,0.399 47.033,0.752 47.704,1.202 C47.939,1.360 48.136,1.757 48.141,2.048 C48.177,4.285 48.160,6.523 48.160,8.823 C51.318,8.823 54.448,8.823 57.664,8.823 C57.664,6.541 57.664,4.241 57.664,1.899 C58.544,1.899 59.337,1.899 60.206,1.899 C60.206,6.785 60.206,11.645 60.206,16.527 C60.267,16.523 60.163,16.531 60.060,16.536 C59.221,16.579 58.257,16.380 57.579,16.733 ZM33.002,12.097 C33.759,10.928 34.485,9.807 35.274,8.590 C36.616,9.786 37.817,10.857 39.019,11.927 C38.988,11.984 38.958,12.040 38.927,12.097 C37.002,12.097 35.077,12.097 33.002,12.097 ZM34.510,31.163 C35.674,32.546 36.788,33.870 37.806,35.080 C30.499,35.080 22.932,35.080 15.362,35.080 C15.233,34.515 15.233,34.509 15.941,34.509 C20.513,34.508 25.084,34.508 29.655,34.508 C32.083,34.508 32.082,34.507 33.469,32.558 C33.734,32.185 34.015,31.824 34.510,31.163 ZM28.489,27.429 C28.342,27.433 28.070,27.023 28.053,26.789 C27.997,26.015 28.032,25.235 28.032,24.382 C25.029,24.382 22.126,24.382 19.136,24.382 C19.136,25.133 19.143,25.854 19.134,26.574 C19.122,27.590 18.923,27.791 17.918,27.786 C16.304,27.779 16.489,27.966 16.485,26.390 C16.480,24.177 16.464,21.964 16.490,19.751 C16.514,17.652 16.618,15.553 16.633,13.454 C16.658,9.988 16.651,6.521 16.631,3.055 C16.627,2.287 16.511,1.519 16.437,0.644 C17.314,1.027 18.111,1.338 18.862,1.734 C19.033,1.825 19.123,2.210 19.125,2.460 C19.143,5.168 19.136,7.876 19.136,10.584 C19.136,10.867 19.136,11.151 19.136,11.486 C22.102,11.486 25.023,11.486 28.003,11.486 C28.003,8.414 28.003,5.351 28.003,2.227 C28.795,2.227 29.532,2.227 30.372,2.227 C30.372,2.490 30.372,2.765 30.372,3.041 C30.372,5.515 30.355,7.988 30.376,10.462 C30.416,15.324 30.472,20.186 30.534,25.048 C30.540,25.507 30.687,25.967 30.663,26.421 C30.649,26.680 30.472,27.090 30.280,27.149 C29.706,27.328 29.091,27.416 28.489,27.429 ZM27.821,12.383 C24.949,12.383 22.134,12.383 19.334,12.383 C19.334,16.131 19.334,19.816 19.334,23.535 C22.172,23.535 24.969,23.535 27.821,23.535 C27.821,19.768 27.821,16.065 27.821,12.383 ZM7.382,35.296 C6.871,35.236 6.348,35.285 5.749,35.285 C5.749,27.586 5.749,19.925 5.749,12.086 C4.089,12.167 2.569,12.216 1.053,12.325 C0.038,12.398 -0.101,12.302 0.001,11.294 C1.862,11.400 3.726,11.506 5.735,11.621 C5.735,8.639 5.735,5.765 5.735,2.742 C6.615,3.291 7.427,3.764 8.192,4.302 C8.341,4.407 8.357,4.766 8.359,5.008 C8.372,6.908 8.366,8.808 8.366,10.708 C8.366,18.570 8.355,26.433 8.383,34.296 C8.386,35.085 8.181,35.389 7.382,35.296 ZM87.678,21.629 C87.678,26.990 87.678,32.109 87.678,37.291 C87.090,37.291 86.511,37.291 85.826,37.291 C85.826,37.035 85.826,36.760 85.826,36.485 C85.826,32.767 85.844,29.050 85.809,25.333 C85.803,24.680 85.947,24.129 86.297,23.611 C86.705,23.008 87.129,22.415 87.678,21.629 ZM99.827,30.924 C99.996,30.873 100.161,30.499 100.167,30.271 C100.200,28.996 100.210,27.719 100.171,26.444 C100.153,25.837 100.328,25.610 100.963,25.630 C102.540,25.678 102.354,25.487 102.362,26.994 C102.367,27.979 102.363,28.966 102.363,30.191 C104.300,29.461 106.108,28.779 107.916,28.098 C107.939,28.126 107.963,28.153 107.986,28.181 C107.588,28.473 107.216,28.814 106.787,29.051 C104.443,30.344 102.086,31.614 99.730,32.885 C99.463,33.029 99.174,33.137 98.888,33.242 C98.337,33.445 97.986,33.762 97.974,34.416 C97.969,34.694 97.762,34.967 97.561,35.447 C97.040,34.119 96.587,32.965 96.170,31.902 C97.476,31.562 98.662,31.277 99.827,30.924 ZM145.122,25.918 C145.122,29.060 145.137,31.999 145.112,34.939 C145.106,35.657 145.327,35.963 146.088,35.968 C148.157,35.979 150.225,36.073 152.294,36.099 C152.906,36.107 153.529,36.047 154.131,35.935 C154.816,35.809 155.224,35.306 155.417,34.666 C156.163,32.188 156.886,29.702 157.622,27.220 C157.648,27.134 157.718,27.061 157.942,27.010 C157.871,28.294 157.807,29.578 157.726,30.862 C157.643,32.171 157.497,33.478 157.488,34.788 C157.486,35.072 157.938,35.368 158.198,35.642 C158.511,35.974 159.149,36.352 159.099,36.599 C159.010,37.037 158.580,37.531 158.162,37.744 C157.639,38.011 156.987,38.104 156.386,38.121 C153.408,38.205 150.429,38.255 147.450,38.283 C146.603,38.290 145.750,38.228 144.909,38.122 C143.216,37.910 142.512,37.115 142.484,35.315 C142.446,32.973 142.468,30.632 142.479,28.290 C142.482,27.730 142.662,27.291 143.256,27.028 C143.873,26.754 144.428,26.339 145.122,25.918 Z" class="cls-1"/>
</svg>
