<?xml version="1.0" encoding="utf-8"?>
<!-- Generator: Adobe Illustrator 18.0.0, SVG Export Plug-In . SVG Version: 6.00 Build 0)  -->
<!DOCTYPE svg PUBLIC "-//W3C//DTD SVG 1.1//EN" "http://www.w3.org/Graphics/SVG/1.1/DTD/svg11.dtd" [
	<!ENTITY ns_flows "http://ns.adobe.com/Flows/1.0/">
	<!ENTITY ns_extend "http://ns.adobe.com/Extensibility/1.0/">
	<!ENTITY ns_ai "http://ns.adobe.com/AdobeIllustrator/10.0/">
	<!ENTITY ns_graphs "http://ns.adobe.com/Graphs/1.0/">
	<!ENTITY ns_vars "http://ns.adobe.com/Variables/1.0/">
	<!ENTITY ns_imrep "http://ns.adobe.com/ImageReplacement/1.0/">
	<!ENTITY ns_sfw "http://ns.adobe.com/SaveForWeb/1.0/">
	<!ENTITY ns_custom "http://ns.adobe.com/GenericCustomNamespace/1.0/">
	<!ENTITY ns_adobe_xpath "http://ns.adobe.com/XPath/1.0/">
]>
<svg version="1.1" id="Layer_1" xmlns:x="&ns_extend;" xmlns:i="&ns_ai;" xmlns:graph="&ns_graphs;"
	 xmlns="http://www.w3.org/2000/svg" xmlns:xlink="http://www.w3.org/1999/xlink" xmlns:a="http://ns.adobe.com/AdobeSVGViewerExtensions/3.0/"
	 x="0px" y="0px" viewBox="0 0 160.167 28.667" enable-background="new 0 0 160.167 28.667" xml:space="preserve">
<metadata>
	<sfw  xmlns="&ns_sfw;">
		<slices></slices>
		<sliceSourceBounds  height="25.232" width="157.244" y="-222.27" x="220.055" bottomLeftOrigin="true"></sliceSourceBounds>
	</sfw>
</metadata>
<g>
	<path d="M4.075,26.937H1.555V1.74h3.563l5.831,18.215V1.74h2.484v25.197h-2.916L4.075,6.564V26.937z"/>
	<path d="M19.159,21.863l-0.973,5.074h-2.592L20.418,1.74h4.067l4.823,25.197h-2.808l-0.972-5.074H19.159z M19.518,19.451h5.615
		L22.29,4.908L19.518,19.451z"/>
	<path d="M35.79,15.996l-1.475,2.482v8.459h-2.809V1.74h2.809v12.168L41.01,1.74h2.843l-6.371,11.484l6.587,13.713H41.19
		L35.79,15.996z"/>
	<path d="M55.194,12.9v2.52h-6.155v8.963h7.56v2.555H46.231V1.74h10.367v2.557h-7.56V12.9H55.194z"/>
	<path d="M65.094,1.74c3.923,0,5.723,2.377,5.723,6.264v12.707c0,3.852-1.8,6.227-5.723,6.227H59.19V1.74H65.094z M65.057,24.382
		c2.016,0,2.988-1.26,2.988-3.564V7.861c0-2.305-0.973-3.564-3.023-3.564h-3.024v20.086H65.057z"/>
	<path d="M81.293,26.865h-0.9L74.166,2.929v24.008h-0.721V1.74h1.225l6.191,23.902L87.052,1.74h1.224v25.197h-0.791V2.929
		L81.293,26.865z"/>
	<path d="M93.244,20.998l-1.475,5.939h-0.721l6.084-25.232h1.115l6.229,25.232h-0.793l-1.477-5.939H93.244z M93.389,20.279h8.676
		L97.672,2.64L93.389,20.279z"/>
	<path d="M112.252,1.74c3.744,0,5.183,2.197,5.183,5.652V9.66c0,3.096-1.223,4.787-3.996,5.291c2.809,0.432,3.996,2.268,3.996,5.039
		v3.961c0,0.971,0.108,2.195,0.684,2.986h-0.863c-0.504-0.791-0.612-1.908-0.612-2.986V19.99c0-3.707-2.231-4.68-5.507-4.68h-3.096
		v11.627h-0.792V1.74H112.252z M111.137,14.554c3.491,0,5.507-0.898,5.507-4.787V7.465c0-3.061-1.188-4.969-4.427-4.969h-4.176
		v12.059H111.137z"/>
	<path d="M123.629,14.412l-1.908,2.879v9.646h-0.791V1.74h0.791v14.219L131.08,1.74h0.863l-7.811,11.916l8.459,13.281h-0.865
		L123.629,14.412z"/>
	<path d="M143.57,13.798v0.721h-7.414v11.662h8.818v0.756h-9.61V1.74h9.61v0.756h-8.818v11.303H143.57z"/>
	<path d="M152.5,26.937V2.496h-5.473V1.74h11.771v0.756h-5.508v24.441H152.5z"/>
</g>
</svg>
