<svg xmlns:xlink="http://www.w3.org/1999/xlink" xmlns="http://www.w3.org/2000/svg" viewBox="0 0 681 612" enable-background="new 0 0 681 612">
	<defs>
		<clipPath id="cut-off-bottom">
			<path d="M564.1,352.4c0,9.3-2.2,17.9-12.2,25.7c-33.3,25.9-119.7,42.7-217,42.7c-97.3,0-176.9-19.3-214.1-41.6    c-10.9-6.5-15.1-17.6-15.1-26.9c0-40,102.6-76.5,229.2-76.5S564.1,312.3,564.1,352.4z"/>
		</clipPath>
		<style>
			
			.hover_obj{
			fill:red;
			}

		</style>
	</defs>
	<g id="lake" clip-path="url(#cut-off-bottom)" >
		<path d="M564.1,352.4c0,9.3-2.2,17.9-12.2,25.7c-33.3,25.9-119.7,42.7-217,42.7c-97.3,0-176.9-19.3-214.1-41.6    c-10.9-6.5-15.1-17.6-15.1-26.9c0-40,102.6-76.5,229.2-76.5S564.1,312.3,564.1,352.4z"/>
	</g>
	<g id="about_g" class="link"  data-url="" >
		<g class="hover_obj2">
			<path fill="#267476" d="M67.2 227.2l-1.7 53.2 21.2-8.7z"/>
			<path fill="#0D3438" d="M67.2 227.2l8.5 29.3 2.4-21.8z"/>
			<path fill="#41452A" d="M22.6 279.2l3.1-29.3 5 20.2 2.8-25 5.4 15.5 1.5-27.6 5 24.1 3.1-9.9 11.2-10.3 1.9-17.6 6.5 25.8 8-27.7 4.9 24.2-48.5 42.1zM28.5 271.8L31 244l7.9 24.6 4.7-24.6 3.4-14.5 6.6 22 11.1-14.6 4.3-17.6 5.7 18.1L40.4 284z"/>
			<path fill="#244030" d="M17.8 284.9l2.8-22.6 3.6 12.5 4.8-20.7 3.6 8.8 4-20.3 3.4 10 3.9-17.1L47 244l4.6-14.3 4.4 8.4 2.6-12.3 8.1 13.9v43.8l-5.1 29-27.8 8.5-21.2-2.3 1.1-18.2"/>
			<path fill="#1E4118" d="M61.7 241.6l3.8-16.3 4.5 8.6 2.7-12.9 3.4 12.3 2-11.7 7 20.5-3.4 13.4h-17z"/>
			<path fill="#205817" d="M12.6 318.7l-4.4.9.7-1.5-3.3 1.7 5.4-27.6 2.7 8.3"/>
			<path fill="#412D18" d="M11.2 299.5l-.8 24h1.8z"/>
			<path fill="#2F6B71" d="M54.4 284.9l1.4-42.8-9.1 38.8z"/>
			<path fill="#194F55" d="M65.5 280.4l-9.7-38.3-1.4 42.8z"/>
			<path opacity=".46" fill="#225460" d="M57 231.3"/>
			<path fill="#244030" d="M12.6 297l2.3-19.1 2.8 6.9-4 15.7-1.1-3.5"/>
			<path fill="#326400" d="M70 292.2c-4.7-9.7-4.4-18.4-4.4-18.4l1.6 1.2c-6-15.1-4.4-24.4-4.4-24.4l1.9 1.4c-1.6-1.6-6.5-13.3-8.8-22.8-2.3 9.5-7.2 21.2-8.8 22.8l1.9-1.4s1.6 9.3-4.4 24.4l1.6-1.2s.2 8.7-4.4 18.4c5.3-1.9 7.1-1.9 7.1-1.9l-1.3 1.9s7.4-1.5 8.4-3.3c.9 1.9 8.4 3.3 8.4 3.3l-1.3-1.9c-.2-.1 1.6-.1 6.9 1.9z"/>
			<path fill="#908064" d="M55.8 247.7l-1.7 55.7h3.8z"/>
			<path fill="#205817" d="M91.8 288.6c-3.9-8.1-3.7-15.4-3.7-15.4l1.4 1c-5-12.6-3.7-20.4-3.7-20.4l1.6 1.2c-1.4-1.4-5.4-11.1-7.4-19-1.9 8-6 17.6-7.4 19l1.6-1.2s1.4 7.8-3.7 20.4l1.4-1s.2 7.3-3.7 15.4c4.5-1.6 5.9-1.6 5.9-1.6l-1.1 1.6s6.2-1.2 7-2.8c.8 1.5 7 2.8 7 2.8l-1.1-1.6s1.4 0 5.9 1.6z"/>
			<path fill="#412D18" d="M80 251.5L78.5 298h3.2z"/>
			<path fill="#5A7302" d="M79 285.7c-3.9-8.1-3.7-15.4-3.7-15.4l1.4 1c-5-12.6-3.7-20.4-3.7-20.4l1.6 1.2c-1.4-1.4-5.4-11.1-7.4-19-1.9 8-6 17.6-7.4 19l1.6-1.2s1.4 7.8-3.7 20.4l1.4-1s.2 7.3-3.7 15.4c4.5-1.6 5.9-1.6 5.9-1.6l-1.1 1.6s6.2-1.2 7-2.8c.8 1.6 7 2.8 7 2.8l-1.1-1.6c0-.1 1.5-.1 5.9 1.6z"/>
			<path fill="#736029" d="M67.2 248.6l-1.4 46.5H69z"/>
			<path fill="#205817" d="M58.3 318.7c-4.3-10.7-5.9-24.4-5.9-24.4l2.1 1.4C49.8 278 49 271.3 49 271.3l1.9 1s-7.3-20-9-25.6c-1.9 5.6-9 25.6-9 25.6l1.9-1s-.8 6.6-5.4 24.3l2.1-1.4S30 308 25.7 318.7c1.2-.6 4.2-1.8 7.3-3l-1.3 3 10.2-4.4 8.8 3-1-2c3.6 1.3 7.3 2.7 8.6 3.4z"/>
			<path fill="#412D18" d="M42 265.9l-1.6 59.5h3.2z"/>
			<path fill="#2C4001" d="M89.2 316.4c-3.4-8.4-4.6-19.1-4.6-19.1l1.6 1.1c-3.6-13.8-4.2-19-4.2-19l1.5.8s-5.7-15.6-7-20c-1.5 4.4-7 20-7 20l1.5-.8s-.6 5.2-4.2 19l1.6-1.1s-1.3 10.8-4.6 19.1c.9-.5 3.3-1.4 5.7-2.4l-1 2.4 8-3.5 6.9 2.4-.8-1.6c2.7 1.1 5.6 2.2 6.6 2.7z"/>
			<path fill="#736029" d="M76.4 275.1l-1.2 46.6h2.5z"/>
			<path fill="#326400" d="M38.9 335.9c-4.3-10.7-5.9-24.4-5.9-24.4l2.1 1.4c-4.6-17.7-5.4-24.3-5.4-24.3l1.9 1s-7.3-20-9-25.6c-1.9 5.6-9 25.6-9 25.6l1.9-1s-.8 6.6-5.4 24.3l2.1-1.4s-1.6 13.7-5.9 24.4c1.2-.6 4.2-1.8 7.3-3l-1.3 3 10.2-4.4 8.8 3-1-2c3.7 1.3 7.3 2.8 8.6 3.4z"/>
			<path fill="#856F4D" d="M22.6 283.1L21 342.7h3.2z"/>
			<path fill="#205817" d="M81 319.6c-4.3-10.7-5.9-24.4-5.9-24.4l2.1 1.4c-4.6-17.7-5.4-24.3-5.4-24.3l1.9 1s-7.3-20-9-25.6c-1.9 5.6-9 25.6-9 25.6l1.9-1s-.8 6.6-5.4 24.3l2.1-1.4s-1.6 13.7-5.9 24.4c1.2-.6 4.2-1.8 7.3-3l-1.3 3 10.2-4.4 8.8 3-1-2c3.7 1.3 7.3 2.7 8.6 3.4z"/>
			<path fill="#412D18" d="M64.7 266.8l-1.5 59.5h3.1z"/>
			<path fill="#2C4001" d="M61.7 336.8c-4.3-10.7-5.9-24.4-5.9-24.4l2.1 1.4c-4.6-17.7-5.4-24.3-5.4-24.3l1.9 1s-7.3-20-9-25.6c-1.9 5.6-9 25.6-9 25.6l1.9-1s-.8 6.6-5.4 24.3l2.1-1.4s-1.6 13.7-5.9 24.4c1.2-.6 4.2-1.8 7.3-3l-1.3 3 10.2-4.4 8.8 3-1-2c3.7 1.3 7.3 2.8 8.6 3.4z"/>
			<path fill="#9E876C" d="M45.4 284l-1.6 59.6H47z"/>
			<path fill="#5A7302" d="M51 340.1c-4.7-9.7-4.4-18.4-4.4-18.4l1.6 1.2c-6-15.1-4.4-24.4-4.4-24.4l1.9 1.4c-1.6-1.6-6.5-13.3-8.8-22.8-2.3 9.5-7.2 21.2-8.8 22.8l1.9-1.4s1.6 9.3-4.4 24.4l1.6-1.2s.2 8.7-4.4 18.4c5.3-1.9 7.1-1.9 7.1-1.9l-1.3 1.9s7.4-1.5 8.4-3.3c.9 1.9 8.4 3.3 8.4 3.3l-1.3-1.9c-.2 0 1.6 0 6.9 1.9z"/>
			<path fill="#856F4D" d="M36.8 295.6l-1.7 55.8h3.8z"/>
			<path fill="#1E4118" d="M74.7 345.2c-3.8-9.5-5.3-21.8-5.3-21.8l1.9 1.2c-4.1-15.8-4.8-21.7-4.8-21.7l1.7.9s-6.5-17.9-8-22.8c-1.7 5-8 22.8-8 22.8l1.7-.9s-.7 5.9-4.8 21.7l1.9-1.2s-1.4 12.3-5.3 21.8c1-.5 3.7-1.6 6.5-2.7l-1.1 2.7 9.1-3.9 7.9 2.7-.9-1.8c3.1 1.1 6.3 2.4 7.5 3z"/>
			<path fill="#7A5D3D" d="M60.2 298l-1.4 53.2h2.8z"/>
			<path fill="#326400" d="M65.5 365.9c-3.8-9.5-5.3-21.8-5.3-21.8l1.9 1.2c-4.1-15.8-4.8-21.7-4.8-21.7l1.7.9s-6.5-17.9-8-22.8c-1.7 5-8 22.8-8 22.8l1.7-.9s-.7 5.9-4.8 21.7l1.9-1.2s-1.4 12.3-5.3 21.8c1-.5 3.7-1.6 6.5-2.7l-1.1 2.7L51 362l7.9 2.7-.9-1.8c3.2 1.1 6.4 2.4 7.5 3z"/>
			<path fill="#856F4D" d="M51 318.8l-1.4 53.1h2.8z"/>
			<path fill="#205817" d="M41.6 356.3c-3.8-9.5-5.3-21.8-5.3-21.8l1.9 1.2c-4.1-15.8-4.8-21.7-4.8-21.7l1.7.9s-6.5-17.9-8-22.8c-1.7 5-8 22.8-8 22.8l1.7-.9s-.7 5.9-4.8 21.7l1.9-1.2s-1.4 12.3-5.3 21.8c1-.5 3.7-1.6 6.5-2.7l-1.1 2.7 9.1-3.9 7.9 2.7-.9-1.8c3.1 1.2 6.4 2.4 7.5 3z"/>
			<path fill="#412D18" d="M27.1 309.2l-1.4 53.1h2.8z"/>
		</g>
		<g class="mask" opacity=".3" fill="#fff">
			<path d="M67.2 227.2l10.8 7.5 1.1-10.2-1-2.9-.5 3.1-1.5-7.3-2.2 7.9-1.2-4.3-1.3 6.1-2.4-7.8-2 8.1zM84.5 297.3l1.6 1.1c-1.1-4.4-2-7.9-2.6-10.7.5.1 2.2.6 3.4.9l-1.1-1.6c.2 0 .4 0 .6.1.8.1 1.9.4 2.9.7.6.2 1.3.4 2.1.7l.3.1c0-.1-.1-.1-.1-.2l-.1-.2v-.1c-1.8-3.9-2.7-7.6-3.1-10.3-.2-1.4-.3-2.4-.3-2.9v-.1c-.1-.8-.1-1.3-.1-1.5v-.2l1.4 1c-.1-.2-.1-.4-.2-.6-.1-.2-.2-.5-.3-.7-.2-.5-.4-1-.5-1.4 0 0 0-.1-.1-.1-.1-.4-.3-.8-.4-1.2-.1-.4-.3-.8-.4-1.2 0-.2-.1-.3-.1-.5-.4-1.3-.7-2.5-.9-3.6-.1-.6-.2-1-.2-1-.1-.4-.1-.6-.2-.9-.1-.4-.1-.7-.2-1.1-.4-2.4-.4-3.7-.4-3.7v-1.9c0-1.6.2-2.5.2-2.5h.1s.1 0 .1.1c.1.1.3.2.7.5l.4.3-.6-1.1c0-.1-.1-.2-.1-.2 0-.1-.1-.1-.1-.1-.1-.1-.1-.2-.2-.3-.3-.7-.7-1.5-1.1-2.4l-.1-.1c-.4-.9-.8-1.8-1.2-2.9-.3-.7-.5-1.4-.8-2.1-.7-1.9-1.4-4-2.1-6.4l-.3-.9c-.2-.8-.4-1.5-.6-2.1-.9 4.1-3.1 10-3.1 10v-.1c-.7 2-1.6 4-2.5 5.9-3.7-6.1-6.5-16.1-7.1-18.8-.4 1.4-1.6 6.8-5 14.5-2.4-5.3-3.6-9.1-3.6-9.1l8.2-10.7-1.3-2.4-1.1 4.9-2.8-11-1.1 9.9-2-3.4-1.6 7.6c-.4-1.5-.8-2.9-1.2-4.3-.4 1.8-1 3.7-1.6 5.6l-2.6-5-2.4 7.3-2.2-7.5-2.1 8.8-1-2.8-1.6 6.8-2-9.3-.9 18-2.8-8.4-1.5 7.3-1.7-4.8-.5 4.8-1.9-6-1.1 12.5-1-2.3-1.1 4.7-2.2-8.9-1.8 17.8c-.5-1.5-.9-2.8-1.2-3.7l-.8 2.4-1.2-4.2-1.5 12c-.9 2.5-1.8 5.1-2.6 7.4l-1.5-3.8-2.2 19.3-1.6-4.8-5.4 27.6 3.3-1.7-.7 1.4 2.4-.5-.1 3c-.9 4.3-2.3 9.4-4.1 13.8 1.2-.6 4.2-1.8 7.3-3l-1.3 3 4-1.7c-.1.5-.3 1-.4 1.6l1.9-1.2s-1.4 12.3-5.3 21.8c1-.5 3.7-1.6 6.5-2.7l-1.1 2.7 8-3.4-.3 9.5h2.9l-.3-9.6 6.7 2.3-.9-1.8c2 .8 4.1 1.6 5.6 2.2-.8 3.4-1.9 7.1-3.2 10.4 1-.5 3.7-1.6 6.5-2.7l-1.1 2.7 8-3.4-.3 9.5h2.9l-.3-9.6 6.7 2.3-.9-1.8c3.1 1.2 6.3 2.5 7.5 3.1-2-4.9-3.3-10.4-4.1-14.7h.2l-.2-6.3c.2.1.4.3.7.5-.3-1-.5-2-.7-2.9v-.8l6.7 2.3-.9-1.8c3.1 1.2 6.3 2.5 7.5 3.1-3.8-9.5-5.3-21.8-5.3-21.8l1.9 1.2c-.8-3-1.4-5.6-2-7.9l4.3 1.5-1-2c.9.3 1.8.7 2.7 1l-.1 4.5h2.5l-.1-3.6c1.5.6 2.8 1.1 3.4 1.5-.7-1.8-1.4-3.8-2-5.7l4.3 1.5-.8-1.6c2.7 1.1 5.6 2.2 6.6 2.7-3.3-8.6-4.6-19.4-4.6-19.4zm-10.6-35.2c-1-5.1-1-7.3-1-7.3l1.3-1s.5 3-.3 8.3zm-1-7.4c0-2.4 0-2.5.1-3.8.5.3 1.3.9 1.3.9s-.5 1.4-1.4 2.9z"/>
		</g>
		<g class="g_line">
			<path d="M55.5 216.5 L55.5 122.5" stroke="#232"/>
			<text transform="translate(31.764 113.998)" fill="#4F4F4F" font-family="'dosisregular'" font-size="13" letter-spacing="2" font-weight="900">
				ABOUT
			</text>
		</g>
	</g>
	<g id="news_g" class="link" data-url="">
		<g class="hover_obj2" >
			<path fill="#A1A2A2" d="M344.5 231.3c0 2.8-13.6 5.2-30.3 5.2-16.7 0-30.3-2.3-30.3-5.2V205l27.6 3.3 33-4.5v27.5z"/>
			<path opacity=".46" fill="#AAA9A9" d="M283.8 206.5v1.5s9.4 3.8 27.6 4.5c18.2.7 30.4-1 33.2-2.1v-3.9l-1.7-2.6-56.2.9-2.9 1.7z"/>
			<path fill="#D1D1D1" d="M347 204.6c0 2.8-14.7 5.1-32.7 5.1-18.1 0-32.7-2.3-32.7-5.1v-4.4c0 2.8 14.7 5.1 32.7 5.1 18.1 0 32.7-2.3 32.7-5.1v4.4z"/>
			<ellipse fill="#7A7B7B" cx="314.2" cy="200.2" rx="32.7" ry="5.1"/>
			<path fill="#E8EAEE" d="M314.2 204.3c15 0 27.6-1.6 31.5-3.7 2-4.4 3.1-9.2 3.1-14.3 0-19-15.4-34.4-34.4-34.4S280 167.3 280 186.3c0 5.2 1.2 10.1 3.2 14.5 4.3 2 16.6 3.5 31 3.5z"/>
			<path opacity=".46" fill="#D6D6D6" d="M286.7 202c-.1 0-.1 0-.2-.1-6.2-20.3 0-39.4 15.4-47.6.1 0 .2 0 .2.1s0 .2-.1.2c-15.3 8.1-21.4 27.1-15.2 47.2.1 0 0 .1-.1.2z"/>
			<path opacity=".55" fill="#D1D1D1" d="M287.5 193.2s3.1 2.8 3.7 3.3c.5.5 6.8.7 6.8.7s-2.6-18.1 3.3-29.7c5.9-11.5 12.2-15.6 12.2-15.6l-8 1.8-15.3 24.7-2.7 14.8z"/>
			<path opacity=".46" fill="#D6D6D6" d="M313.5 190.1c-27.9 0-33.7-3.6-33.7-4.6 0-.1.1-.2.2-.2s.2.1.2.2c.1.7 6.1 4.2 33.3 4.2 27.5 0 35.2-2.8 35.3-2.8.1 0 .2 0 .2.1s0 .2-.1.2c-.1.1-7.8 2.9-35.4 2.9z"/>
			<path fill="#aaa" d="M307.7 152.5c-9.2 2-19.3 16.7-20.2 27.7-.5 6.7-1 9.5-.8 11.1.4.8.8 1.9.8 1.9l8.4 1s-.9-8-.3-13.9c.5-5.9 5.4-23.3 18-28.5-3 0-5.9.7-5.9.7z"/>
			<path fill="#ddd" d="M286.7 191.3s-.7-7.6.6-14.4c1.7-8.9 6.5-16.1 13.9-22.5 1.7-1.8 8.8-3.1 12.3-2.6-9.6 3.1-18.1 15.3-19.7 27.4-.6 7 .2 12.8.2 12.8l-7.3-.7z"/>
			<path fill="#D0D6D6" d="M314.4 151.8c14.1 5.1 19.1 25.8 18.9 35.8-.2 10-3.4 16-3.4 16l1.5.8-.1 4.5s-1.3.2-1.8.2v20.4l.9.5v6.6s14.3-1.4 15.1-4.6v-7s-.1-.6-1.1-1.2v-17.3s2.2-.6 2.5-1.8v-4.8s-.1-.4-.7-.9c3.6-9 2.6-15.5 1.6-20.8-1-5.3-5.2-14.1-13.1-19.8-7.9-5.6-16-6.7-20.3-6.6z"/>
			<path opacity=".46" fill="#D6D6D6" d="M302 204.2c-.1 0-.2-.1-.2-.2-2.4-18.5-2.8-39.2 12.5-52.4h.2c10.7 1.4 27.6 10 30.3 28 2.7 18.4-3.3 22.5-3.6 22.6-.1.1-.2 0-.2-.1-.1-.1 0-.2.1-.2s6.1-4.2 3.4-22.3c-2.6-17.7-19.3-26.2-29.9-27.6-15.1 13.1-14.7 33.6-12.3 52-.1.1-.2.2-.3.2zM324 204.2s-.1 0 0 0c-.1 0-.2-.1-.2-.2 3.3-16.4-.1-42.8-9.5-52.1-.1-.1-.1-.2 0-.2.1-.1.2-.1.2 0 9.4 9.4 12.9 35.8 9.6 52.4l-.1.1z"/>
			<path fill="#D3D3D3" d="M287.5 193.2l8.3 1-1.8-2.2-7.3-.7z"/>
			<path fill="#EAEAE9" d="M287.5 190.3l2 .1s-2.9-18.1 8.5-31.8c-12 14.1-10.5 25.4-10.5 31.7z"/>
			<path fill="#A4A4A4" d="M322.6 230.7c-.2 2.2-.3 4.3.1 6.5 13.2-.7 21.9-2.6 22.9-5v-6.9c0 2.6-9.7 4.8-23 5.4z"/>
			<path fill="#BABABA" d="M323.3 230.7v6.5h-.4l-.1-7.1z"/>
			<path fill="#2A487C" d="M312 237.4v-16.3c0-.4.3-.7.7-.7h9.4c.4 0 .7.3.7.7v16.1c-2.7.2-7.9.3-10.8.2z"/>
			<path fill="#F9FBF4" d="M313.8 223.7v-1c0-.4.3-.7.7-.7h5.9c.4 0 .7.3.7.7v.8c-2.8.1-4.4.2-7.3.2zM321.1 223.3v1c0 .4-.3.7-.7.7h-5.9c-.4 0-.7-.3-.7-.7v-.8c2.7-.1 4.4-.2 7.3-.2z"/>
			<path fill="#F4F4F4" d="M321.1 223.1v1.1c0 .4-.3.7-.7.7h-4.2l4.9-1.8z"/>
			<path fill="#3F3F3F" d="M312.1 237.4h-.1v-16.3c0-.4.4-.8.8-.8h9.4c.4 0 .8.3.8.8v16.1h-.1v-16.1c0-.4-.3-.6-.6-.6h-9.4c-.4 0-.6.3-.6.6v16.3z"/>
			<path fill="#7A7B7B" d="M312 230.3l.5.6h-.5z"/>
			<path fill="#545454" d="M311.5 230.3l1 .6v6.5h-1v-6.5z"/>
			<g fill="#7A7B7B">
				<path d="M284 225.2v-1.3c-.7.5-1.1 1-1.1 1.5 0 3 13.2 5.4 29.7 5.6l-.5-.6c-15.8-.3-28.1-2.5-28.1-5.2zM345.6 225.3c0-.5-.4-1-1.1-1.5v1.3c0 2.3-9.2 4.3-21.7 4.9l.4.6c12.9-.6 22.4-2.8 22.4-5.3z"/>
			</g>
			<path fill="#A4A4A4" d="M312.2 230.9h-1.4c-16.3-.2-30.3-2.6-30.3-5.6v6.5c0 3 14.1 5.4 30.4 5.6.2-2.1 1.3-4.3 1.3-6.5zM312.5 237.4v-6.5h-.5l-.1 1.9-.7 4.6z"/>
			<path fill="#4C4C4C" d="M343.7 204.1c0-1.4-.6-2.4-1.5-2.8-.8-.3-1.8-.1-2.6.8-.1.1-.1.2 0 .2.1.1.2.1.2 0 .7-.7 1.5-1 2.2-.7.7.3 1.2 1.2 1.2 2.3l-5.4.9c-.1-1.3-.6-2.3-1.4-2.6-.8-.3-1.8 0-2.6.8-.1.1-.1.2 0 .2.1.1.2.1.2 0 .7-.7 1.5-1 2.2-.7.8.3 1.2 1.3 1.2 2.5v32.1c0 .1.1.2.2.2s.2-.1.2-.2v-1.8l5.4-.9v1.7c0 .1.1.2.2.2s.2-.1.2-.2l.1-32c0 .1 0 .1 0 0zm-5.7 22.7l5.4-.9v1.8l-5.4.9v-1.8zm0-.4v-1.8l5.4-.9v1.8l-5.4.9zm0-2.1v-1.8l5.4-.9v1.8l-5.4.9zm0-2.2v-1.8l5.4-.9v1.8l-5.4.9zm0-2.1v-1.8l5.4-.9v1.8l-5.4.9zm0-2.2V216l5.4-.9v1.8l-5.4.9zm0-2.1v-1.8l5.4-.9v1.8l-5.4.9zm0-2.2v-1.8l5.4-.9v1.8l-5.4.9zm0-2.1v-1.8l5.4-.9v1.8l-5.4.9zm0-2.2v-1.8l5.4-.9v1.8l-5.4.9zm0 19.7l5.4-.9v1.8l-5.4.9v-1.8zm5.4-22.7l-5.4.9v-1.8l5.4-.9v1.8zm-5.4 24.9l5.4-.9v1.8l-5.4.9v-1.8zm0 3.9v-1.8l5.4-.9v1.8l-5.4.9z"/>
		</g>
		<g class="mask" opacity=".3" fill="#fff" >
			<path d="M348.8 186.9V185c-.1-2.2-.4-4.4-.8-6.5v-.2c-.4-2.3-1.5-5.3-3.2-8.5-1-1.8-2.1-3.5-3.3-5l-.3-.3c-.1-.2-.3-.4-.5-.5-1.6-1.9-3.4-3.6-5.5-5.2l-.2-.2c-.1 0-.1-.1-.2-.1-.1-.1-.2-.1-.3-.2-3.7-2.6-7.9-4.6-12.4-5.6-.1 0-.2 0-.3-.1-.2-.1-.5-.1-.7-.2-2-.4-3.9-.6-5.4-.6-.4-.1-.8-.1-1.2-.2h-.2l-.2.2h-.6c-3.5-.5-10.6.9-12.3 2.6-12.2 5.1-20.8 16.9-21.2 30.9-.1 0-.2.1-.2.2s.1.2.2.4v.4c0 4.5.9 8.8 2.4 12.7-.6.4-.9.8-.9 1.2 0 1.9 0 1.9 0 0v4.4c0 .6.7 1.2 2 1.8v9l21.9 20.7.6 1.3c1.6.1 3.3.1 5 .1 0-.3.1-.7.2-1h.3l-.1 1h1.3c1.9.1 10.4-.1 10.7-.2 2.6-.1 5-.3 7.2-.6 0 0 2-.2 4.6-.6.8-.1 1.6-.3 2.4-.4h.2v1.6c0 .2.3.2.3 0v-1.7c.9-.2 1.6-.3 2.4-.5l3-.5v1.7c0 .2.4.2.3 0v-2.4c1-.5 1.6-1 1.8-1.5v-6.9c0 .2 0 .1 0 0 0-.5-.3-.9-1.1-1.5v-17.3s2.2-.6 2.5-1.8v-4.6c0-.4-.2-.7-.7-1 .8-1.9 1.4-3.9 1.8-5.9.5-2.1.7-4.1.7-5.9.1 0 .1-.1.1-.2 0-.3 0-.4-.1-.4zm-5.4 47.2l-.8.1s.6-.2.8-.3v.2z"/>	
		</g>
		<g class="g_line">
			<path d="M311.5 144.5 L311.5 28.5" stroke="#232"/>
			<text transform="translate(291.317 19.998)" fill="#4F4F4F" font-family="'dosisregular'" font-size="13" letter-spacing="2" font-weight="900">
				NEWS
			</text>
		</g>
	</g>
	<g id="projects_g" class="link" data-url="" >
		<g class="hover_obj2">
			<path fill="#225460" d="M85.9 252.6c.7 1.6 1.4 2.4 1.4 2.4l-1.6-1.2s-.4 2.5 0 6.3c.6 6.3 3 12.5 3.6 14.1l-1.4-1 .1 1.7 32.5-19 43.1-3.7 24.3-25.1-59.3-51.1h-16.7l-11.4-6.5-18.1 25.1-4.2 40.1-10.9-7.6-8.6 11.2s1.2 3.8 3.6 9.1c3.4-7.6 4.6-13 5-14.5.7 2.7 3.5 12.7 7.1 18.8 2.9-6 5-13.4 5.6-15.8.7 3.2 3 10.7 5.9 16.7z"/>
			<path fill="#113F47" d="M128.6 176v79.5l48.2-38.1z"/>
			<path opacity=".36" fill="#113F47" d="M100.5 169.5l15.6 30.7-4.2-24.2z"/>
			<path fill="#235D5F" d="M82.3 194.6l18.2 59.1v-84.2z"/>
			<path fill="#399191" d="M82.3 194.6L76.8 246s2.2-5.9 3.1-10c2.9 11.6 7.4 19 7.4 19l4.1 20-9.1-80.4z"/>
			<path fill="#194F55" d="M128.6 176l-15.8 49.3 15.8 1.9zM163.9 187.8l12.9-12.7v-13.7l3.1-2.1 2-5.9-1.3-6.1 4.6 1.9 8 10.2 5.5 14.4 12.1 8.9 14.9 26.4-54.8 30z"/>
			<path fill="#AEC5C5" d="M180.6 147.3l2.7 3.6 2.3 5.8 2.6 2.1-1.7 7.7 3.1 6.3-9 14.8-10.4-9.3 3-4.5 2.3-13.9 2.8-2.8 2.3-5.6z"/>
			<path fill="#EDECEE" d="M178.3 157.1l-2.8 2.8 10.1-3.2-2.3-5.8-2.7-3.6v4.2z"/>
			<path fill="#EFEFEF" d="M173.2 173.8l12.4-17.1 2.6 2.1-1.7 7.7-7.9 9.5 11-3.2-5.2 8.6-12.3 3.4-1.9-6.5z"/>
			<path fill="#113F47" d="M217.9 195.2l-7.1-12.5-12.1-8.9-5.9-1 7.7 14.8 16 11.2zM193.2 159.4l-5-2.7 10.5 17.1z"/>
			<path fill="#225460" d="M83.9 289l-.3-1.3c.5.1 2.2.6 3.4.9-.3-.5-.6-.9-1.1-1.6 1 0 4.7 1.2 5.9 1.6-3-6.4-3.6-12.4-3.6-13.7 0-.1-.1-1.3-.1-1.7.3.2 1.1.8 1.4 1-3.8-9.9-3.8-15.9-3.8-15.9l20.6-34.4 18.6-14.7 19.5-35.6L160 170l18.6 10.2 14.2-1.9 10.2 1.9 12.1 13 22.3 5.6 16.8-11.2 51.2 48.4 3.7 8.4-45.6 2.8-26.1-3.7-39 16.7-49.3 13-29.8 3.8-6.5-8.4L91.4 289h-7.5z"/>
			<path fill="#377A83" d="M112.8 268.6l31.6-94.9L119.3 277z"/>
			<path fill="#50A8AC" d="M124.9 209.3l-12.1 59.3 31.6-94.9z"/>
			<path opacity=".48" fill="#50A8AC" d="M198.4 260.2l39-16.7-22.3-50.3z"/>
			<path fill="#113F47" d="M309.1 244.4l-3.7-8.4-41.9 11.2z"/>
			<path fill="#377A83" d="M263.5 247.2l-9.3-59.6-16.8 11.2z"/>
			<path fill="#2F6B71" d="M237.4 198.8v44.7l26.1 3.7z"/>
			<path opacity=".88" fill="#2F6B71" d="M149.1 273.2L160 170l18.6 10.2z"/>
			<path fill="#2F6B71" d="M91.4 289l.1-.5.3.1-.2-.4 14.7-64.3-20.6 34.4s.1 2.3.4 3.6c.3 1.3.1 1.3.3 2.1.2.8.9 4.7 3.1 10.2l-1.4-1s0 7.7 3.7 15.4c-.8-.3-4.5-1.6-5.9-1.6l1.1 1.6c-.8-.2-2.7-.6-3.4-.9l.3 1.3h7.5z"/>
			<path fill="#267476" d="M112.8 268.6l-6.5-44.7 18.6-14.6z"/>
			<path opacity=".66" fill="#267476" d="M198.4 260.2l-5.6-81.9 10.2 1.9z"/>
			<path opacity=".88" fill="#2E5F67" d="M149.1 273.2l49.3-13-14.6-35.1-5.2-44.9z"/>
			<path fill="#225460" d="M217.9 256.5h13.7l21.7-4.7-20.5-32.5-8 16.7z"/>
			<path fill="#5DB7B7" d="M217.9 256.5h13.7l-6.8-20.5z"/>
			<path fill="#2E5F67" d="M224.8 236l6.8 20.5 1.2-37.2z"/>
			<path fill="#fff" d="M256.5 202.6l-2.3-15-16.8 9.8-6.5-.2 4.7 2.6 1.8 13.4v-11.6l8.6 13-6.4-16.5 13.7-2.7zM170.2 175.5l-9.9-6.8-17.1 5-13.8 27.4 15-19.5 9.7-.7-9.7-5.5 12.4-2.6.5 23.7 6.4-19.6zM109.5 174.6l-9-5.9-18.2 25.9-3.9 36.3 5.2-34.9 13.6-18.4 1.1 3.2 2.3-3 3.6 2.4.9-5.1zM90.7 249.9l15.6-26-3.2 13.9-.3-4.8z"/>
			<path opacity=".33" fill="#398790" d="M298 245.1l-29.4-40.4-16.7 40.8 11.6 1.7z"/>
			<path opacity=".3" fill="#37736D" d="M156.6 173.7l-10.9 81.8-4.7-36z"/>
			<path opacity=".23" fill="#90D0BB" d="M198.4 260.2l-38.1-91.5-11.2 104.5z"/>
			<path opacity=".03" fill="#90D0BB" d="M215.8 252.7l-27.6-59.5-68.9 83.8 29.8-3.8 49.3-13z"/>
			<path opacity=".15" fill="#90D0BB" d="M83.9 289l-.3-1.3c1.2.4 3.4.9 3.4.9l-1.1-1.6c2.2.3 5 1.3 5.9 1.6-1.3-3-2.5-5.8-3.3-10.9 0 0-.3-2-.4-4.4l1.4 1c-2.1-5.1-3.1-10.2-3.1-10.2l15.3-20 11.1 24.6L91.4 289h-7.5z"/>
			<path opacity=".12" fill="#90D0BB" d="M149.1 273.2l29.5-7.8-34.2-91.7z"/>
			<path opacity=".33" fill="#90D0BB" d="M100.5 169.5l-15.6 80.9 1.6 3.3.9 1.7 18.9-31.5 15.6-12.3z"/>
			<path fill="#EAEAE9" d="M222.5 195.1l-7.4-1.9-12.1-13-10.2-1.9 8.3 3.2 1.4 8.4 2.9-4.1 7.8 7.4-.9 11.5 2.8-6.5 2.8.6 1.1-3.1 9.8.9z"/>
			<path fill="#fff" d="M226.5 232.5l6.3-13.2 8.3 13.2-7.3-10.2-1.2 3.7-.4-2.5z"/>
			<path fill="#225460" d="M73 250.9c.5.3 1.3.9 1.3.9s-.5 1.4-1.5 2.8c.1-2.4.1-2.4.2-3.7zM72.9 254.8l1.3-1s.5 2.9-.3 8.3c-1-5.1-1-7.3-1-7.3z"/>
			<path fill="#255B5C" d="M153.6 231.2l5.7-2.9 36.6-4.8-30.5 13.1z"/>
			<path fill="#5D8688" d="M153.6 231.2l11.8 5.4 11.2 29.3z"/>
			<path fill="#51412B" d="M157 226.1l-.8-.7v-.7h1.3z"/>
			<path fill="#756243" d="M176 231l2.8-3.8 1-6.2-3.2-3-5.6-3.2-5.7 3-2.3-1.1-1.8 4.7-.9 1.1-.9.5-2.1 1-1.8 3.9v.7l3.6 4.3 7.8 1.4 9-3.3"/>
			<path fill="#5E4D33" d="M158.9 224.5l1.4-2 1.6 1 .6 1.5-.8 2.4-2.7.2z"/>
			<path fill="#51412B" d="M174.2 225.6l3.7-2.4.4.4-3.8 4.3-.7-.8z"/>
			<path fill="#5E4D33" d="M175.9 224.9l1.9-3.9-5-4.5-1.4 3-2.9-.2 2.3-3.5-.8-.3-2.8 3.8-4.1-1.5-1.5 4.1.8 3.1h3.8l4.2-.5 4.4-.9-.6 2.2h.6z"/>
			<path fill="#756243" d="M161.1 221.5l-3.2-2.2-.7 1.1 4.7 3.1z"/>
			<path fill="#51412B" d="M161.8 219.9l-1.1-1.1-.4.6.8 2.1zM162.1 224l-1.4.6-.7 1.4h3.2z"/>
			<path fill="#4D3E28" d="M162.2 225.8l-.9.2.7.6z"/>
			<path fill="#51412B" d="M167.3 216.7l-1.3-1.3-.9.5 1.1 1.4zM166.9 221.8l-.2-3.9 1.3-.1.3 3.7zM171.3 220l-.1-3.2-.6-.1-1.3 5.6.6.9zM176 217.6l.7-.8h1.1l-.8 1.6zM175 220.7l2.2-1.6.6.7-2.3 2.3zM179.2 224h1l-.4 1.4-.8.5z"/>
			<path fill="#B1BBC1" d="M164.1 219.3c2 0 3 2.4 3 2.8 0 .2-.1 4.2-1.9 4.4-2.3.2-3.4-2-3.4-4.1 0-2.1 1.2-3.1 2.3-3.1z"/>
			<path fill="#fff" d="M167.6 221.4c1.2-.1 2.6 1.3 2.7 3.6.1 2-1.5 3.5-2.9 3.3-1.4-.3-2.5-1.4-2.5-3.4s1-3.4 2.7-3.5z"/>
			<path fill="#D9DFE1" d="M172.9 219.2c1.6.2 2.5 1.5 2.4 3.5-.1 2.5-1.5 3.5-2.8 3.5-1.4 0-2.6-1.4-2.6-3.2.1-1.5 1.6-4 3-3.8z"/>
			<path fill="#99825E" d="M158.9 224.5l-.5.1-1.2 2.8-.2.9 3.3 4.7 6.5 1.3 9-3.2 1.2-3.4 1-3.3-.1-.2-2.5 4.6-1.2-.8.8-5h-.3l-1.1 3.5-1.9.1-5.5-2.3-.6.9 4.5 2.3-1 .1-5.7-1 .6-4.4h-.6l-1.7 5.2-2.7.2z"/>
			<path fill="#A8906E" d="M159.1 228.1l.5-.5 4.6 3.4-.1-1.3 1.3-1.3 2.6.1 4.4-4.9.6.7-2.8 4.4 4.9-.2v.9l-9.3.3-.3 3.2h-.9l-1.4-1.2zM167.3 234.3l2.9-3.8 4.6.1 2.3-2.9-1.1 3.4z"/>
			<path fill="#2D515A" d="M195.9 223.5l-19.3 42.4-11.2-29.3z"/>
		</g>
		<g class="mask" opacity=".3" fill="#fff">
			<path d="M309.1 244.4l-3.7-8.4-51.2-48.4-16.8 9.8-6.5-.2-13.9-3.5-6.2-11-12.1-8.8-5.6-14.4-7.9-10.2-4.7-1.9v.1l-.1-.1v4.2l-2.3 5.6-2.8 2.8-2.3 14-1.6 2.5-1.4-.8-9.8-6.8-17.1 4.9L138 184l-9.4-8h-16.8l-2.5-1.4-8.9-5.8-18.1 25.8-.1.1v.1L78 234.7l-10.8-7.5-8.6 11.2s1.2 3.8 3.6 9.1c3.4-7.6 4.6-13 5-14.5.7 2.7 3.5 12.7 7.1 18.8.9-1.9 1.7-3.9 2.5-5.9v.1s2.2-5.9 3.1-10c.1.6.3 1.3.6 2.1l.3.9c.7 2.3 1.4 4.5 2.1 6.4.6 1.6 1.3 3.3 2 5l.2.5c.2.5.5 1.1.7 1.6.2.4.4.8.6 1.1l.6 1.1-1.3-1s-.3 1.7-.1 4.4c0 0 0 1.7.6 4.7 0 .3 0 .5.2 1 0 0 .1.6.3 1.5.3 1.3.8 3.3 1.7 5.8.3.7.5 1.5.8 2.3.1.2.2.4.2.6l-1.4-1c0 .3.1 1.5.1 1.7v.1c0 .9.3 3.7 1.3 7.3.2.7.4 1.3.6 2 .1.2.1.4.2.6.1.2.1.3.2.5.3.9.7 1.9 1.2 2.9l.1.2c0 .1.1.1.1.2l-.3-.1c-1-.4-3.5-1.2-5-1.4-.3 0-.5-.1-.6-.1l1.1 1.6c-1.2-.3-2.8-.7-3.4-.9l.3 1.3h7.5l21.4-20.4 6.5 8.4 29.8-3.8 29.5-7.8 19.8-5.2 21.2-9.1-1.6 4.9h13.6l.2.5v-.5l21.6-4.4-4.1-6.5 2.6.4 11.7 1.7 45.5-2.7zM72.9 254.7c.9-1.5 1.5-2.8 1.5-2.8s-.9-.6-1.3-.9c-.2 1.2-.2 1.2-.2 3.7zM72.9 254.8s0 2.2 1 7.3c.8-5.3.3-8.3.3-8.3l-1.3 1z"/>
		</g>

		<g class="g_line">
			<path d="M163.5 164.5 L163.5 66.5" stroke="#232"/>
			<text transform="translate(132.943 57.998)" fill="#4F4F4F" font-family="'dosisregular'" font-size="13" letter-spacing="2" font-weight="900">
				PROJECT
			</text>
		</g>
	</g>
	<g id="press_g" class="link" >
		<path id="svg_press" class="hover_obj" d="M399.2 209.4l-3.5-8.2V171h-41.6v55.6h19.2v17.6h2.8v-17.6h19.6v-14.5z"/>
		<g class="g_line">
			<path d="M373.5 165.5 L373.5 78.5" stroke="#232"/>
			<text transform="translate(351.778 69.998)" fill="#4F4F4F" font-family="'dosisregular'" font-size="13" letter-spacing="2" font-weight="900">
				PRESS
			</text>
		</g>
	</g>
	<g id="shop_g" class="link">
		<path id="svg_shop" class="hover_obj" d="M568.6,248.5l-2.8,0.2l19-24l0-3.5l2.8-0.1l1.1-1.4l0.1,0l1.3-0.1c0,0,0,0,0,0l0.7-0.8     l0.1-2.7l0,0l1.1-0.1l0-0.7l-0.9-0.3c-0.3,0.4-0.4,1-0.4,1.5c0,0.1,0,0.3,0,0.4c0,0.1-0.1,0.2-0.3,0.2c-0.2,0-0.2-0.1-0.2-0.3     c-0.1-0.5-0.1-0.9-0.3-1.4c-0.1-0.2-0.2-0.3-0.4-0.3c-0.2,0-0.3,0.1-0.3,0.3c-0.3,0.7-0.8,1.3-1.3,1.8c-0.2,0.3-0.6,0.7-0.2,1     c0.3,0.2,0.7-0.2,0.9-0.5c0.3-0.4,0.3-1,0.7-1.4c0,0.6,0,1.1,0,1.7c0,0.1-0.1,0.1-0.1,0.1c-0.7-0.1-0.8,0.9-1.6,0.7     c-0.4-0.1-0.5-0.4-0.6-0.8c-0.1-0.7,0.2-1.4,0.7-1.9c0.3-0.4,0.7-0.7,1-1.1c0.2-0.2,0.2-0.5,0.1-0.7l-0.4-0.1     c-0.1,0.1-0.2,0.2-0.3,0.3c-0.4,0.3-0.5,0.8-0.8,1.3c-0.1-0.3-0.1-0.5-0.1-0.8c0.2-0.6-0.1-0.8-0.6-0.9c-0.7-0.2-1.3-0.4-1.9-0.6     c-0.3-0.1-0.3-0.2-0.3-0.4c0,0,0,0,0,0l-59.9-13.2c0-0.5-0.4-0.9-0.9-0.9c-0.3,0-0.6,0.1-0.7,0.4c-1.3-0.8-4.7-1.9-5.8-1.6     c-0.9,0.2-1.9,0.3-2.7,0.2c-0.2-0.3-0.4-0.4-0.8-0.4c-0.2,0-0.3,0.1-0.4,0.1c-0.5-0.2-1.6-0.1-3,0c-1.5,0.1-3.2,0.3-4.4,0     c-0.4-0.1-0.7-0.2-1-0.2c0.1-0.2,0.1-0.5,0.1-0.7c-0.2-0.6-0.8-1-1.7-1.3c0,0,0-0.1,0-0.1c0-1.5-0.8-2.7-1.9-2.7l-0.8,0l0-0.9     l-1.7,0l-0.7,0.1l0,0.6l-0.3,0c-1.2,0-2.1,1.3-2.1,2.9c0,1.4,0.6,2.5,1.6,2.8c0,0,0,0,0,0c0,0-0.1,0-0.1,0l-0.5,1.3     c-0.2,0.1-0.4,0.2-0.7,0.2c-0.8,0-1.4,0.8-1.7,1.4l-2.8,0.9l-0.6,0.6c0,0,0,0,0,0c-0.5,0-0.9,0.4-1,0.9c0,0,0,0,0,0l-2,1.9     l0.2,0.9l1.9,0l-0.7,21.6l-0.2,0.1l0,0.9l0,0.3l0.2-0.1l-0.2,9.6l-1.8,0c-0.4,0-0.7,0.3-0.9,0.7c-0.2,0.2-0.3,0.6-0.3,0.9     c0,0.2,0,0.3,0.1,0.5c0,0,0,0,0,0c0,0,0,0,0,0c0,0.1,0.1,0.2,0.2,0.3c0,0,0,0,0,0.1c0.2,0.4,0.5,0.7,0.8,0.7l1.8,0l0,1.1     l-0.1,0.6l0.1,0l-0.1,4.8l0.3,0l0,1.1l-3.3,0.1c-0.1,0-0.5,0.2-0.7,0.7l-0.4,0c-0.4-1.4-1.3-2.4-2.5-2.3c-1.4,0-2.6,1.9-2.6,4.3     c0,2.4,1,4.3,2.4,4.3c1.3,0,2.3-1,2.7-2.5c0.2,0,0.4-0.1,0.4,0c0.3,0.5,0.7,0.4,0.7,0.4l1.2-0.1l2.8-0.2l0.4,0.2l0.6,1.2l1.7,0.2     c-0.1,1.2-0.1,2.3,0.1,2.8c-0.3,1.2-0.4,2.7-0.3,3.9c0.1,1.5,1.5,2.6,2.7,1.5c0.6-0.5,0.5-1.8,0.3-3l1.2,0.3l1.2-1.3l2.4,0l0,2.3     l2.8-0.3l0,0.3l0.7,0l0-0.6l2.3,0.1l0.5,1l5.6-0.4c0,0,1,0.6,2.4,0.4c1.4-0.1,1.4-0.1,1.4-0.1s0.1,1.2,1.8,1.2     c1.7,0,1.8-0.7,1.8-0.7s0.6,1.8,2.8,1.8c2.2,0,3.3-1.3,3.4-2c0-0.1,0.3-0.3,0.9-0.5l0,1.6l0.7,0l0-0.5c1.3,0,2.5-0.2,3.5-0.6     c1,1.3,2,2.5,3.6,2.5c3.4,0,3.4-0.2,5.9-2.3l0,0c3-1.1,4.1-0.8,4.4-0.5l0.2,0.2l0.5,0l22.5-2L568.6,248.5z M493.2,256.5l0.8,0.7     l-0.2,0.3c0,0-0.3-0.3-0.6,0L493.2,256.5z M493.9,263.8c0,0-0.8-0.4-0.9-2c0-1.3,0.2-2.2,0.2-2.2s0.3,0.8,0.9,0.1     c0,0,0.5,2.6,0.5,3S494.6,263.8,493.9,263.8z M495,260.2c0,0-0.3-0.8-0.4-1.1c0,0,0.3-0.4,0.4-0.5L495,260.2z M495.8,258.3h-0.6     c0,0,0.3-0.5,0.5-0.9l0.2,0.2V258.3z M496.2,200l-1.6,0.5c0,0,0.5-0.7,0.8-0.8s0.5-0.1,0.5-0.1s0.3-0.1,0.5-0.1L496.2,200z      M503.1,195.4c1.9,0.5,1.3,1.5,1.3,1.5c-0.7-0.3-1.4-1-1.4-1C503,195.8,503.1,195.4,503.1,195.4z M504,198.1l-0.2,0l-1.2-1.5     l0.2-0.3c0.6,0.6,1.3,0.9,1.3,0.9C503.5,197.7,504,198.1,504,198.1z M512.6,198.1c-1.6-0.1-7.9,0-7.9,0c-0.6-0.2-0.5-0.3-0.5-0.4     s0.3-0.3,0.3-0.3c0.5,0.2,1.1,0.3,1.9,0.4c0.8,0.1,2.4,0,4.2-0.1s2.2,0,2.2,0C512.6,197.8,512.6,198.1,512.6,198.1z M518,198.1     h-3.5c0,0,0,0,0-0.1c0,0,1.2,0.1,2.1-0.1c0,0,0.4,0,0.6-0.1s0.5-0.1,1,0s2.4,0.5,4,1.3L518,198.1z M527.5,263.2v-0.4     c0,0,1.1-0.3,2.3-0.7c0,0,0.5,0.6,0.6,0.7C530.4,262.8,528.9,263.3,527.5,263.2z"/>
		<g class="g_line">
			<path d="M525.5 193.5 L525.5 65.5" stroke="#232"/>
			<text transform="translate(507.131 56.998)" fill="#4F4F4F" font-family="'dosisregular'" font-size="13" letter-spacing="2" font-weight="900">
				SHOP
			</text>
		</g>
	</g>
	<g id="contact_g" class="link">
		<path id="svg_contact" class="hover_obj" d="M669.1,250l-2.5-2.8l-0.9-1l-3-3.4l-0.4-0.4l-2.9-3.4l-0.4-0.5l-2.7-3l-0.7-0.8l-2.4-2.8    l-1-1.1l-2.5-2.8l-0.9-1l-3-3.4l-0.4-0.4l-2.9-3.4l-0.5-0.6l-2.1-2.4l-39.3,1.4l-3.1,0.2l-1,0l-1.5,0.1c0,0-1.2-0.9-1.2-1    l-0.4,0.1c0-0.5,0-1,0-1.1c0-0.7,0.1-1.2,0.1-1.3c0.1-0.6,1.2-0.7,1.4-0.6c0.8,0.4,1,1.2,1.1,1.9c0.1,0.3,0.2,0.5,0.5,0.5    c0,0,0.1,0,0.1-0.1c0.1,0,0.1-0.5,0.1-0.6c0.1-0.5,0.3-0.9,0.7-1.2c0.4-0.3,0.8-0.2,0.9,0.3c0.2,0.8,0.4,1.5,0.6,2.3    c0.1,0,0.2-0.1,0.3-0.2c0.2-0.5,0.3-1,0.5-1.6c0.1-0.2,0.1-0.3,0.3-0.3c0.4,0.1,0.5,1.2,0.6,1.5c0,0.2,0.1,1,0.3,1    c0.3,0.2,0.3-0.1,0.3-0.3c0.3-1.2,0.6-2.4,1-3.6c0.2-0.6,0.2-0.7-0.6-0.7c0.2,0.4,0,1.4-0.4,2.1c-0.2-0.6-0.4-1.1-0.5-1.7    c-0.1-0.3,0-0.4,0.3-0.6c0.1-0.1-0.7-0.4-0.7-0.4c-0.3-0.1-0.7-0.2-1-0.2c0.8,0.9,0.6,1.7,0.1,2.6c-0.2-0.7-0.4-1.5-0.6-2.1    c-0.1-0.3,0.3-0.6,0.1-0.7c-0.4-0.2-0.9-0.3-1.4-0.3c0.3,0.1,1,1.9,0.6,2c-0.5,0.1-1,0.3-1.3,0.8c0,0.1-0.2,0.2-0.2,0    c-0.2-0.6-0.9-1-0.7-1.7c0.2-0.7,0.3-1.4,0.7-1.9c0.1,0.8,0.3,1.5-0.2,2.4c0.5-0.3,0.9-0.2,0.8-0.9c-0.2-1.1,0-2.2,0-3.3    c0.6,0.7,1,1.5,1.4,2.2c0.1,0.2,0.2,0.5,0.5,0.4c0.1-0.4,0-0.8,0-1.3c0-0.5-0.1-0.9-0.1-1.4c0-0.5-0.2-1.3,0-1.8    c0,0,0.2-0.4,0.2-0.4c-0.4-0.4-0.6,0.2-0.8,0.2c-0.2,0.1-0.1,0.2,0.1,0.3c0.2,0.1,0.1,0.2,0.1,0.4c0,0.6,0,1.2,0,1.9    c-0.5-0.4-0.6-0.9-0.9-1.3c-0.3-0.5-1-0.5-1.3,0c0,0.1,0,0.1,0,0.2c0.3,0.7,0.4,1.4-0.2,2c-0.2,0.2-0.3,0.4-0.4,0.6    c-0.2,0.5-0.3,1.1-1.1,0.7c-0.3-0.2-1.1,0-1.1-0.7c0-0.9,0-2.1,0-3l0.7,0c0.8-0.4,0.4-0.9,0.3-1.4c-0.1-0.5-0.5-1.2,0.2-1.6    c0.4-0.2,0.9-0.1,1.3-0.3c0.8-0.2,1.3,0,1.7,0.7c0.2,0.4,0.5,0.5,0.9,0.4c1.7-0.1,3.4-0.4,5.2-0.5c1.1-0.1,2.3-0.3,3.4-0.4    c0.4,0,0-0.3-0.1-0.4c-0.3-0.2-0.6-0.5-0.8-0.7c-1-0.9-0.2-2.1,0.5-3c0.2-0.3,0.4-0.4,0.6-0.8c-0.7-0.1-1.4,0.2-2,0.4    c-0.7,0.2-1.5,0.4-2.2,0.6c-1.5,0.4-3,0.8-4.4,1.2c-0.5,0.1-0.9,0.4-1.2,0.9c-0.3,0.7-0.8,1-1.5,1.1c-0.4,0-0.7,0.1-1.1,0.2    c-0.6,0.2-0.6-0.1-0.6-0.5c0-1,0.7-1.5,1.1-2.2c0.3-0.5,0.8-1,1.2-1.4c0.2-0.2,0.3-0.5,0.7-0.3c0.3,0.2,0.3,0.4,0.3,0.8    c-0.1,0.5-0.4,0.8-0.6,1.2c-0.1,0.1-0.3,0.2-0.2,0.4c1.2-0.4,2.6-1,3.2-2.2c0.6-1.2,0.2-2.8-0.8-3.7c-0.1-0.1-0.3-0.2-0.3-0.4    c-0.2-0.5,0.4-0.5,0.7-0.3c0.6,0.4,1,1,1.1,1.6c0.1,0.5-0.2,1.9,0.6,1c0.2-0.2,0.3-0.4,0.5-0.6c1.1-1.6,1.3-4.3-0.5-5.5    c-0.1-0.1-0.2-0.2-0.2-0.3c-0.1-0.7,1.4,0.3,1.5,0.4c0.4,0.5,0.7,1.2,0.6,1.8c0,0.2,0.1,1-0.1,1.2c0.4-0.3,0.7-0.6,0.9-1    c0.9-1.3,1.4-3,1.1-4.6c-0.2-1.3-0.9-2.5-1.8-3.4c-1-0.9-2.5-1.1-3.8-1c-2.1,0.1-4.5,1.4-5.3,3.5c-0.3,0.9-0.4,2-0.1,2.9    c0.2,0.7,0.4,1.4,0.4,2.2c0,0.4,0,1.4-0.5,1.5c-0.1,0-0.3,0-0.4,0c-0.5-0.1-1-0.1-1.4,0c-0.4,0-0.8,0.2-1.2,0.1    c-0.6,0-0.7-0.5-0.8-1c-0.1-0.6,0-1.3,0-1.9c0-0.2-0.1-0.5,0.2-0.5c0.3,0,0.4,0.2,0.4,0.4c0.1,0.3-0.1,0.7,0,1.1    c0.9-0.7,0.9-1.4,0-2.2c-0.2-0.2-0.8-0.1-0.5-0.5c0.2-0.3,0.6,0,0.9,0.2c0.1,0,0.1,0.1,0.2,0c-0.1-0.9-0.2-1-1.5-1.1    c0.3-0.4,0.3-0.4,0.7-0.4c0.2,0,0.4,0.2,0.4-0.1c0-0.2-0.1-0.4-0.3-0.5c-0.5-0.3-1-0.1-1.5,0.4c-0.1,0.2-0.3,0.4-0.5,0.3    c-0.3-0.1-0.3-0.4-0.3-0.6c-0.1-0.4,0.3-0.7,0.5-1c-1.5,0.4-1.7,0.9-1.1,2c0.2,0.4,0.1,0.6-0.3,0.7c-0.7,0.2-1.4,0.4-2.1,0.7    c-0.2,0.1-0.4,0.1-0.5,0.4c0.8-0.1,1.5-0.3,2.4-0.2c-0.8,0.7-1.5,1.2-2,2c0.6-0.3,1.1-0.7,1.6-1c0.1-0.1,0.3-0.3,0.5-0.1    c0.2,0.2,0,0.4-0.1,0.5c-0.4,0.4-0.7,0.8-1.1,1.2c-0.4,0.3-0.5,0.8-0.3,1.2c0.2,0.4,0.6,0.6,1,0.5c0.6-0.1,0.5,0.2,0.3,0.5    c-0.7,1.5-0.3,3.3,1.1,4.4c0.5,0.4,1.1,0.7,1.7,0.8c1.3,0.4,1.8,1.3,1.9,2.5c0,0.5-0.1,0.6-0.6,0.7c-2.4,0.4-4.8,0.7-7.2,1.1    c-0.4,0.1-0.7,0-0.8-0.4c-0.1-0.5-0.4-0.4-0.7-0.2c-1.1,0.6-2.2,1.2-3.5,1.5c-0.1,0-0.3,0.1-0.2,0.2c0.7,0,1.4,0,2.1,0.1    c0.6,0.1,1.1,0.2,1.7,0.3c0.3,0.1,0.4,0,0.5-0.3c0.1-0.4,0.4-0.7,0.9-0.8c2.3-0.3,4.5-0.7,6.8-1c1-0.1,1-0.1,0.8,0.9    c-0.1,0.5-0.4,1.1,0.3,1.5l0.9,0l-0.1,0c0,1,0,3.1,0,3.3c-0.2,0.4-0.9,0.8-1.3,0.7c-0.7-0.1-1.3-0.1-1.8,0.7    c-0.4-0.7-0.7-1.3-1.3-1.8c-0.5-0.4-0.7-1.2-0.3-1.7c0.3-0.3,0.1-0.4-0.1-0.4c-0.8-0.3-1.7-0.5-2.5-0.8c-0.2-0.1-0.4,0-0.4,0.2    c-0.1,0.3-0.2,0.7-0.2,1c0.2,0,0.3-0.2,0.3-0.3c0.3-0.5,0.8-0.5,1.3-0.3c0.7,0.3,0.4,1,0.5,1.5c0,0.1,0.1,0.4-0.2,0.4    c-0.2,0.1-0.3-0.1-0.4-0.3c-0.2-0.2-0.1-0.6-0.4-0.8c0,0.7-0.1,1.4-0.1,2.1c0.2,0,0.3-0.1,0.3-0.2c0.1-0.2,0.1-0.4,0.4-0.4    c0.3,0.1,0.4,0.3,0.4,0.5c0,0.3,0,0.6-0.1,0.9c-0.1,0.7-0.4,0.8-1,0.5c-0.2-0.1-0.3-0.3-0.5-0.5c-0.3-0.4-0.4-0.9-0.6-1.3    c-0.1,0.5-0.1,1-0.2,1.5c0,0.2,0.1,0.4,0.3,0.4c0.7,0.2,1.3,0.4,1.9,0.6c0.5,0.1,0.8,0.3,0.6,0.9c-0.1,0.2-0.1,0.5,0.1,0.8    c0.3-0.5,0.4-1,0.8-1.3c0.2-0.2,0.3-0.5,0.6-0.3c0.3,0.2,0.2,0.6,0,0.8c-0.3,0.4-0.6,0.8-1,1.1c-0.5,0.6-0.7,1.2-0.7,1.9    c0,0.4,0.2,0.7,0.6,0.8c0.7,0.2,0.9-0.8,1.6-0.7c0,0,0.1-0.1,0.1-0.1c0-0.6,0-1.1,0-1.7c-0.4,0.4-0.4,1-0.7,1.4    c-0.2,0.4-0.6,0.7-0.9,0.5c-0.4-0.2,0-0.7,0.2-1c0.5-0.6,1-1.1,1.3-1.8c0.1-0.1,0.1-0.3,0.3-0.3c0.2,0,0.3,0.2,0.4,0.3    c0.2,0.4,0.3,0.9,0.3,1.4c0,0.1,0.1,0.2,0.2,0.3c0.1,0,0.2-0.1,0.3-0.2c0-0.1,0-0.3,0-0.4c0.1-0.6,0.2-1.1,0.5-1.6    c0.5-0.7,1.2-0.4,1.2,0c0,0.1,0,1.3,0,2.5l-0.4,0l-1.9,2.2c0,0,0,0,0,0l-1.3,0.1l-0.1,0l-22.9,29l2.8-0.2l-2.1,28.1l-5.6,0.9v0    c-2.6,0.1-2.6,5.1-2.6,5.1s5,2.4,5,2.3l0.9-0.4l-0.7,8.6l0.2,0.3l1.6,1.2l-0.1,1l11.1,5l0,0l14.5,6.6l0,0l20.9,9.5l12.2-1.3    c2,2.5,6.2,4.6,9.8,4.6c4.5,0,8.3-3,10.1-6.7l1.2-0.1c0,0,0,0,0,0c1.3,0.6,2.5-0.9,3-0.2c1.4,2,3.3,2.5,5.5,2.1    c1.4-0.5,3-1.9,3.3-3.3l8.1-1.1V254v-3.6L669.1,250L669.1,250z M594.6,212.4c0.1,0,0.3,0.3,0.3,0.3s0,0.1,0.1,0.2s0,0.3-0.3,0.2    s-0.3-0.3-0.3-0.5S594.5,212.4,594.6,212.4z M596.8,192.3c-0.2-0.2,0-0.7,0-0.7s0.1-0.6,1.3-0.9s1.9,0.3,1.9,0.3    C597.4,191.1,596.8,192.3,596.8,192.3z M596.6,189.6c0,0,0-0.5,0.8-1.2s1.8-0.6,2.6-0.4s1.4,0.9,1.4,0.9l-1.5-0.3    c-1.8-0.3-2.7,0.8-3,1S596.6,189.6,596.6,189.6z M596.3,194.3c0.1-0.3,0.3-0.7,0.8-1s1.1-0.2,1.4,0.1c0,0-1.2,0.1-2,1.4    c0,0-0.2,0.2-0.3,0.1S596.2,194.6,596.3,194.3z M588,194.6c0,0-0.2-0.7,0.3-1.2C588.3,193.4,588.4,194.1,588,194.6z M588.7,213.2    c-0.2,0-0.5,0.5-0.5,0.5c-0.4,0.2-0.4-0.4-0.4-0.4s0-1,0.1-1.5s0.3-0.2,0.3-0.2c0.5,0.3,0.9,1.2,0.9,1.2S589.2,213.3,588.7,213.2z     M591.6,213.6c-0.3,0.4-0.8,1.3-0.8,1.3c-0.1-0.3-0.3-0.4-0.3-0.4s-0.1-0.1-0.2-0.2s-0.3-0.6,0-1.2s1.1-0.3,1.1-0.3l0.3,0.1    C591.6,213,591.9,213.2,591.6,213.6z M565.6,294l-1-0.3l0.8-9l1-0.4L565.6,294z"/>
		<g class="g_line">
			<path d="M609.5 212.5 L609.5 122.5" stroke="#232"/>\
			<text transform="translate(575.82 113.998)" fill="#4F4F4F" font-family="'dosisregular'" font-size="13" letter-spacing="2" font-weight="900">
				CONTACT
			</text>
		</g>
	</g>
</svg>