<?xml version="1.0" encoding="UTF-8"?>
<svg width="115px" height="40px" viewBox="0 0 115 40" version="1.1" xmlns="http://www.w3.org/2000/svg" xmlns:xlink="http://www.w3.org/1999/xlink">
    <!-- Generator: Sketch 45.1 (43504) - http://www.bohemiancoding.com/sketch -->
    <title>New Logo</title>
    <desc>Created with Sketch.</desc>
    <defs></defs>
    <g id="New-Pages" stroke="none" stroke-width="1" fill="none" fill-rule="evenodd">
        <g id="加入我們" transform="translate(-971.000000, -57.000000)" fill="#55A0EF">
            <g id="New-Logo" transform="translate(971.000000, 57.000000)">
                <path d="M18.9610782,24.5024371 L11.2646281,10.1974307 L6.75768114,10.1974307 L16.9582255,29.0800287 L15.6228143,32.0516369 C15.4618991,32.4084928 15.2824879,32.7961168 15.0848449,33.2147717 C14.8869377,33.6329006 14.65838,34.0176318 14.3986433,34.3681764 C14.1391708,34.718984 13.8485194,35.0111483 13.5272174,35.2451953 C13.205387,35.4787164 12.8407516,35.5957399 12.4327826,35.5957399 C12.049387,35.5957399 11.746581,35.5494564 11.5241005,35.4571525 C11.3016201,35.3648486 11.0912941,35.2601848 10.8936511,35.1434243 C10.6957439,35.0264008 10.47617,34.922 10.2351935,34.8296961 C9.99395281,34.7373922 9.66313863,34.6913717 9.24301518,34.6913717 C8.88419277,34.6913717 8.55972007,34.7526447 8.26933286,34.8759796 C7.97868142,34.9987885 7.73136347,35.1586768 7.527379,35.3556445 C7.32339454,35.5523492 7.1659143,35.7832405 7.05440984,36.0480555 C6.94316961,36.3123445 6.88768161,36.5800522 6.88768161,36.8506527 C6.88768161,37.183315 6.97091361,37.4904689 7.13790607,37.773692 C7.30489854,38.0566523 7.53345626,38.2999034 7.8241077,38.5026565 C8.11449491,38.7059355 8.45482133,38.8626681 8.84429425,38.9733802 C9.23350296,39.0843554 9.64464263,39.1395799 10.077449,39.1395799 C10.7081627,39.1395799 11.3507666,39.0257121 12.0063177,38.7982394 C12.6616046,38.5702408 13.301302,38.2260076 13.9259383,37.7644879 C14.5500463,37.3029683 15.1405971,36.715221 15.6970625,36.001772 C16.2532637,35.2880601 16.7476354,34.4449649 17.180706,33.4730123 L27.3439942,10.1974307 L25.2296371,10.1974307 L18.9610782,24.5024371 Z" id="Fill-1"></path>
                <path d="M58.5942029,11.6094969 C58.099567,11.0498878 57.5211706,10.6036206 56.8600707,10.2712213 C56.1984423,9.93908486 55.4905739,9.77288518 54.7367298,9.77288518 C53.982093,9.77288518 53.2158301,9.88359731 52.4368842,10.1050216 C51.6579384,10.3267088 50.9162487,10.6251845 50.2112869,11.0004487 C49.5065893,11.3759758 48.8666276,11.8188243 48.2919305,12.3292572 C47.7169691,12.839953 47.2624959,13.3845726 46.9287752,13.9628528 C46.817535,13.360116 46.5762943,12.8033996 46.2053174,12.2924408 C45.8346047,11.7817449 45.392286,11.3388964 44.8794183,10.9633693 C44.3660222,10.5883681 43.809821,10.2959408 43.2100222,10.0868764 C42.6102233,9.87754891 42.0138594,9.77288518 41.420402,9.77288518 C40.8145258,9.77288518 40.1713935,9.88359731 39.4917975,10.1050216 C38.8116732,10.3267088 38.1347195,10.6283402 37.4609367,11.0096527 C36.7868896,11.3912283 36.1316027,11.8280284 35.495076,12.3200531 C34.8580209,12.8126037 34.2864945,13.3351334 33.7794398,13.888957 L33.7794398,13.2075909 L33.7794398,10.2238859 L33.7794398,10.1789173 L33.7794398,9.9693269 L33.7794398,9.30531709 C33.7794398,9.19144927 33.6845818,9.09783047 33.5701708,9.10072318 C31.4721959,9.15305504 30.3346918,9.9845794 29.9653003,10.3132971 C29.8781048,10.3906115 29.8292225,10.5002718 29.8292225,10.6165064 L29.8292225,11.2100391 L29.8292225,13.319355 L29.8292225,30.0029628 L33.7794398,30.0029628 L33.7794398,15.2732531 C34.0761685,14.8922035 34.4439747,14.5321919 34.8831226,14.1934811 C35.3217421,13.8552963 35.797882,13.5568206 36.3110139,13.29858 C36.8238816,13.0400764 37.3496964,12.8341676 37.8874016,12.6798018 C38.425371,12.5264878 38.9474867,12.4494364 39.4545413,12.4494364 C39.9367585,12.4494364 40.3941382,12.5601485 40.8269446,12.7815728 C41.259751,13.002997 41.6431467,13.3014727 41.9768674,13.6769998 C42.3108523,14.052264 42.5732313,14.4890641 42.7650612,14.9871372 C42.9566269,15.4857363 43.0525419,16.0116846 43.0525419,16.5652453 L43.0525419,30.0029628 L47.0030234,30.0029628 L47.0030234,15.2732531 C47.2500772,14.8922035 47.5837979,14.5290362 48.0044498,14.184277 C48.4245732,13.8400438 48.8882944,13.5384125 49.395349,13.2799088 C49.9021394,13.0216682 50.4369381,12.8183892 50.9994807,12.6708606 C51.5620234,12.5230691 52.115318,12.4494364 52.6593647,12.4494364 C53.1415819,12.4494364 53.5989615,12.5601485 54.0317679,12.7815728 C54.4645744,13.002997 54.8413643,13.3014727 55.1631947,13.6769998 C55.4844967,14.052264 55.7410626,14.4890641 55.9328926,14.9871372 C56.1241941,15.4857363 56.2203733,16.0116846 56.2203733,16.5652453 L56.2203733,30.0029628 L60.1890866,30.0029628 L60.1890866,15.9932764 C60.1890866,15.1441328 60.0469316,14.3412726 59.7623574,13.5846959 C59.4777833,12.8278562 59.0885745,12.1696319 58.5942029,11.6094969" id="Fill-3"></path>
                <path d="M93.4979002,11.6094969 C93.0032643,11.0498878 92.4251321,10.6036206 91.763768,10.2712213 C91.1021396,9.93908486 90.3942712,9.77288518 89.6404271,9.77288518 C88.8857903,9.77288518 88.1195274,9.88359731 87.3405815,10.1050216 C86.5616357,10.3267088 85.819946,10.6251845 85.1149842,11.0004487 C84.4102865,11.3759758 83.7703249,11.8188243 83.1953635,12.3292572 C82.6204021,12.839953 82.1661932,13.3845726 81.8324725,13.9628528 C81.720968,13.360116 81.4799916,12.8033996 81.1092789,12.2924408 C80.7383019,11.7817449 80.2959833,11.3388964 79.7831156,10.9633693 C79.2699837,10.5883681 78.7135183,10.2959408 78.1139837,10.0868764 C77.5139206,9.87754891 76.9178209,9.77288518 76.3240993,9.77288518 C75.7182231,9.77288518 75.075355,9.88359731 74.3954948,10.1050216 C73.7153705,10.3267088 73.0384168,10.6283402 72.364634,11.0096527 C71.6905868,11.3912283 71.0355642,11.8280284 70.3987733,12.3200531 C69.7617182,12.8126037 69.1901918,13.3351334 68.6834014,13.888957 L68.6834014,13.2075909 L68.6834014,10.2238859 L68.6834014,10.1789173 L68.6834014,9.9693269 L68.6834014,9.30531709 C68.6834014,9.19144927 68.5882791,9.09783047 68.4741323,9.10072318 C66.3761574,9.15305504 65.2383891,9.9845794 64.8689975,10.3132971 C64.7818021,10.3906115 64.7329198,10.5002718 64.7329198,10.6165064 L64.7329198,11.2100391 L64.7329198,13.319355 L64.7329198,30.0029628 L68.6834014,30.0029628 L68.6834014,15.2732531 C68.9798658,14.8922035 69.347672,14.5321919 69.7868199,14.1934811 C70.2254394,13.8552963 70.7015793,13.5568206 71.2147112,13.29858 C71.7278431,13.0400764 72.2533937,12.8341676 72.7910989,12.6798018 C73.3290683,12.5264878 73.851184,12.4494364 74.3582386,12.4494364 C74.8404558,12.4494364 75.2978354,12.5601485 75.7309061,12.7815728 C76.163184,13.002997 76.5468439,13.3014727 76.8805646,13.6769998 C77.2145496,14.052264 77.4769286,14.4890641 77.6687585,14.9871372 C77.8603242,15.4857363 77.9562392,16.0116846 77.9562392,16.5652453 L77.9562392,30.0029628 L81.9064565,30.0029628 L81.9064565,15.2732531 C82.1537745,14.8922035 82.4874952,14.5290362 82.9078828,14.184277 C83.3282705,13.8400438 83.7919917,13.5384125 84.2990463,13.2799088 C84.8058367,13.0216682 85.3406354,12.8183892 85.903178,12.6708606 C86.4657207,12.5230691 87.0190153,12.4494364 87.563062,12.4494364 C88.0452791,12.4494364 88.5026588,12.5601485 88.9354652,12.7815728 C89.3682717,13.002997 89.7450616,13.3014727 90.066892,13.6769998 C90.388194,14.052264 90.6447599,14.4890641 90.8365899,14.9871372 C91.0278914,15.4857363 91.1240706,16.0116846 91.1240706,16.5652453 L91.1240706,30.0029628 L95.0927839,30.0029628 L95.0927839,15.9932764 C95.0927839,15.1441328 94.9506289,14.3412726 94.6660547,13.5846959 C94.3814805,12.8278562 93.9922718,12.1696319 93.4979002,11.6094969" id="Fill-5"></path>
                <path d="M110.337584,25.8497853 C109.94177,26.1453683 109.555732,26.4251728 109.178413,26.6897249 C108.801095,26.9545399 108.424305,27.1851682 108.047251,27.3818729 C107.669932,27.5788406 107.280459,27.7358361 106.878832,27.8525967 C106.47694,27.9696202 106.053382,28.0277375 105.608421,28.0277375 C105.188033,28.0277375 104.783235,27.9328038 104.393762,27.7418845 C104.004025,27.5512283 103.661056,27.2927246 103.364328,26.9666367 C103.067599,26.6408117 102.829529,26.2589731 102.650382,25.822173 C102.470971,25.3853729 102.381397,24.9270089 102.381397,24.4470811 C102.381397,23.979513 102.498715,23.5303531 102.733878,23.0996014 C102.968513,22.6691126 103.286909,22.2628175 103.689064,21.881505 C104.090428,21.4999294 104.557584,21.1401808 105.089212,20.801733 C105.620575,20.4632852 106.180212,20.149557 106.767592,19.8602854 C107.354708,19.5712768 107.954506,19.3096175 108.56646,19.0755705 C109.178413,18.8420494 109.768964,18.632722 110.337584,18.4481141 L110.337584,25.8497853 Z M113.935585,12.8738504 C113.688267,12.2216744 113.286375,11.6681138 112.730174,11.2126425 C112.173708,10.7576972 111.444173,10.4037339 110.541833,10.1512787 C109.638964,9.89934947 108.532374,9.77285889 107.222065,9.77285889 C106.146126,9.77285889 105.119862,9.89303809 104.143273,10.1328705 C103.16642,10.372966 102.313226,10.6990539 101.583955,11.1111345 C100.854156,11.523478 100.273382,12.01261 99.8405752,12.5785304 C99.4077687,13.1447138 99.1913655,13.753762 99.1913655,14.405938 C99.1913655,14.7380744 99.2407763,15.0460171 99.339862,15.3287144 C99.4386835,15.6119376 99.5811027,15.8580814 99.7663269,16.0671459 C99.9518154,16.2764733 100.171125,16.4395173 100.424785,16.5562778 C100.67818,16.6733013 100.959583,16.7316816 101.268731,16.7316816 C101.664281,16.7316816 101.988754,16.6577859 102.242149,16.5099944 C102.495544,16.3624659 102.696622,16.1686539 102.845118,15.9285585 C102.993351,15.688726 103.095343,15.4089215 103.151095,15.0888819 C103.206847,14.7691053 103.234591,14.436706 103.234591,14.0919468 C103.234591,13.7227311 103.277661,13.356934 103.364328,12.9937666 C103.45073,12.6308623 103.614816,12.3081929 103.855793,12.0249698 C104.096769,11.7417466 104.427583,11.5142739 104.847971,11.3417628 C105.268359,11.1697777 105.812405,11.0835222 106.480111,11.0835222 C107.073568,11.0835222 107.608367,11.166622 108.084243,11.3325587 C108.560118,11.4987584 108.965445,11.7727775 109.299166,12.1538271 C109.632886,12.5356656 109.889452,13.0371574 110.068864,13.6583024 C110.248011,14.2799733 110.337584,15.0397057 110.337584,15.9377626 L110.337584,17.1745301 C109.447662,17.3962174 108.535545,17.6360498 107.602026,17.8945534 C106.668242,18.1527941 105.762995,18.4481141 104.885227,18.7805134 C104.007196,19.1126498 103.175933,19.488177 102.390909,19.9063059 C101.605358,20.3246978 100.919156,20.8046257 100.33204,21.3460895 C99.7449244,21.8878163 99.2812032,22.4997573 98.9411411,23.1827012 C98.6008146,23.8656451 98.4309157,24.6316889 98.4309157,25.4808326 C98.4309157,26.1819217 98.5484974,26.8343607 98.7833966,27.4373604 C99.0182958,28.0403602 99.358358,28.5631529 99.8035832,29.0062644 C100.248808,29.4491129 100.786513,29.7970278 101.416963,30.048957 C102.047412,30.3011493 102.752374,30.4273769 103.531056,30.4273769 C104.372095,30.4273769 105.110614,30.3321802 105.747405,30.141261 C106.384196,29.9506047 106.965235,29.7015681 107.49105,29.3938883 C108.016072,29.0864715 108.50463,28.7477608 108.955933,28.378545 C109.407235,28.0095923 109.867786,27.6466879 110.337584,27.289569 L110.337584,30.0029365 L114.306562,30.0029365 L114.306562,15.0333944 C114.306562,14.2460497 114.182903,13.5262893 113.935585,12.8738504 L113.935585,12.8738504 Z" id="Fill-7"></path>
                <path d="M4.10049283,0.0297707394 C2.00251789,0.0821026011 0.864749619,0.913626955 0.495358062,1.24234468 C0.408426858,1.31965909 0.359280342,1.42931932 0.359280342,1.54555391 L0.359280342,4.24840252 L0.359280342,30.0027788 L4.30976187,30.0027788 L4.30976187,4.13663849 L4.30976187,1.15293346 L4.30976187,0.898374453 L4.30976187,0.234364651 C4.30976187,0.120496831 4.21463958,0.0268780234 4.10049283,0.0297707394" id="Fill-10"></path>
            </g>
        </g>
    </g>
</svg>