<svg id="Layer_1" data-name="Layer 1" xmlns="http://www.w3.org/2000/svg" viewBox="0 0 283.23 179.88"><defs><style>.cls-1{fill:#fff;}</style></defs><title>tram logotype</title><polygon class="cls-1" points="246.84 138.34 243.78 140.86 243.8 144.91 257.56 144.91 257.56 138.34 246.84 138.34"/><polygon class="cls-1" points="246.83 169.1 243.91 171.49 243.91 175.13 257.43 175.13 257.47 169.12 246.83 169.1"/><polygon class="cls-1" points="258.67 136.74 268.84 136.74 268.84 179.87 258.67 179.88 258.67 136.74"/><rect class="cls-1" x="269.91" y="169.13" width="13.25" height="6"/><polyline class="cls-1" points="251.46 152.06 251.46 153.36 257.57 153.36 257.53 160.75 251.46 160.72 251.46 162.11 257.49 162.14 257.46 167.63 244.75 167.63 244.75 148.97 247.66 146.56 257.62 146.56 257.58 152.06 251.46 152.06"/><polyline class="cls-1" points="275.67 153.36 275.71 153.36 275.71 152.06 269.91 152.06 269.91 146.57 282.33 146.56 282.33 167.63 269.91 167.63 269.91 162.14 275.71 162.14 275.71 160.75 269.91 160.71 269.91 160.71 269.91 153.36 275.67 153.36 275.71 153.36 275.71 152.06"/><polyline class="cls-1" points="269.94 144.91 283.16 144.91 283.16 138.34 269.94 138.34 269.94 144.91 269.94 144.91"/><polygon class="cls-1" points="26.13 170.93 31.45 170.93 31.45 165.69 12.44 165.74 12.44 170.88 17.95 170.88 17.95 179.58 39.83 179.58 39.83 174.66 26.13 174.66 26.13 170.93"/><polygon class="cls-1" points="42.59 158.9 42.56 143.79 26.56 143.79 26.54 142.42 39.69 142.42 39.69 137.24 7.2 137.2 3.63 141.08 3.63 142.42 18.61 142.42 18.61 143.81 12.05 143.79 6.39 143.77 1.24 148.24 1.14 158.93 9.57 158.88 9.7 148.81 18.13 148.81 18.13 151.1 11.6 151.1 11.6 157 33.18 157 33.18 151.1 26.67 151.1 26.67 148.86 35.09 148.81 35.09 158.9 42.59 158.9"/><polygon class="cls-1" points="12.44 164.38 32.66 164.38 32.66 172.63 40.48 172.63 40.49 159.91 12.44 159.91 12.44 164.38"/><polygon class="cls-1" points="2.78 162.29 2.78 172.63 11.26 172.63 11.26 159.91 5.72 159.91 2.78 162.29"/><polygon class="cls-1" points="192.95 101.05 202.84 100.95 202.84 93.64 192.95 93.64 192.95 101.05"/><rect class="cls-1" x="192.95" y="83.71" width="9.89" height="7.09"/><polygon class="cls-1" points="192.95 79.5 203.62 79.5 203.62 71.03 194.25 71.03 193.13 69.63 192.95 69.62 192.95 79.5"/><polygon class="cls-1" points="183.42 109.14 191.84 109.16 191.84 68.44 184.38 68.41 181.72 70.49 181.03 79.4 183.42 79.4 183.42 109.14"/><polygon class="cls-1" points="172.52 99.6 176.24 104.59 181.12 104.59 181.12 99.6 174.95 93.8 174.63 69.05 170.47 69.05 168.99 70.3 169.6 93.72 163.93 103.84 163.93 109.16 168.86 109.13 172.52 99.6"/><polygon class="cls-1" points="180.44 71.55 175.78 74.11 175.43 92.58 179.07 93.47 180.44 71.55"/><polygon class="cls-1" points="168.71 92.72 167.94 73.7 162.73 71.56 164.84 93.64 168.71 92.72"/><polygon class="cls-1" points="114.32 109.21 114.32 97.58 113.46 95.74 109.4 95.74 108.12 97.71 108.12 107.5 107.09 109.21 114.32 109.21"/><polygon class="cls-1" points="109.59 86.36 113.09 86.36 112.56 88.2 119.2 88.2 120.26 86.36 123.07 86.36 123.07 81.71 121.04 81.81 121.41 80.25 113.16 80.25 113.16 81.71 109.7 81.71 109.7 80.25 101.4 80.25 101.92 81.82 98.97 81.62 98.97 83.33 98.97 86.36 102.38 86.36 103.47 88.2 110.18 88.2 109.59 86.36"/><line class="cls-1" x1="112.38" y1="88.82" x2="110.38" y2="88.82"/><polygon class="cls-1" points="101.14 98.85 99.12 100.25 99.11 107.58 106.64 107.6 106.66 98.87 101.14 98.85"/><polygon class="cls-1" points="121.34 98.85 115.82 98.87 115.84 107.6 123.38 107.58 123.36 100.25 121.34 98.85"/><polygon class="cls-1" points="102.23 68.36 99.67 70.51 99.67 79.41 108.26 79.41 108.3 71.29 116.44 71.29 116.43 73.29 109.45 73.29 109.45 76.91 116.41 76.91 116.4 79.41 123.2 79.41 123.2 68.36 102.4 68.36 102.23 68.36"/><polygon class="cls-1" points="90 100.05 93.1 108.75 97.98 108.75 97.98 103.43 92.41 94.07 92.77 68.64 88.61 68.64 86.89 70.01 87.5 94.04 82.07 103.42 82.07 108.75 87 108.71 90 100.05"/><polygon class="cls-1" points="96.69 92.71 97.88 71.24 93.65 73.8 93.65 92.21 96.69 92.71"/><polygon class="cls-1" points="85.98 92.21 85.98 73.8 81.75 71.24 82.94 92.71 85.98 92.21"/><polygon class="cls-1" points="98.97 96.68 98.97 97.67 106.28 97.67 108.79 93.24 113.59 93.24 115.85 97.67 123.11 97.67 123.11 96.68 122.01 93.24 121.93 92.98 123.2 92.98 123.07 88.82 98.97 88.82 99.1 92.98 100.39 92.98 98.97 96.68"/><polygon class="cls-1" points="273.29 70.42 273.57 68.66 266.3 68.66 263.91 84.78 271.08 84.78 272.18 78.28 274.91 78.28 274.9 103.84 266.23 103.84 265.42 109.39 283.23 109.39 282.74 70.42 273.29 70.42"/><polygon class="cls-1" points="257.61 68.67 247.5 68.67 243.71 71.79 243.99 109.08 251.16 109.08 251.16 85.59 251.16 76.77 255.8 76.79 255.8 85.45 252.36 85.45 252.36 92.93 256.05 92.93 256.05 101.48 252.36 101.48 252.36 109.08 262.41 109.08 262.56 70.42 257.6 70.38 257.61 68.67"/><polygon class="cls-1" points="271.25 89.5 268.16 89.5 264.58 92.44 264.58 97.67 271.25 97.67 271.25 89.5"/><polygon class="cls-1" points="68.43 6.31 68.52 9.89 65.04 9.89 62.01 12.34 62.01 16.58 68.46 16.58 68.52 26.33 62.27 31.27 62.29 40.48 68.53 35.95 68.5 40.86 77.86 40.86 77.86 31.93 81.58 29.08 81.58 19.86 77.86 22.87 77.86 16.58 83.9 16.58 83.9 9.37 77.86 9.37 77.86 6.31 83.9 6.31 83.9 0.48 65.11 0.48 62.01 3.04 62.01 6.31 68.43 6.31"/><polygon class="cls-1" points="102.62 0.05 96 0.07 95.99 5.91 102.6 5.91 102.62 0.05"/><polygon class="cls-1" points="85.79 27.2 82.61 30.31 82.66 39.51 85.87 36.32 85.87 40.55 94.66 40.55 94.66 16.17 102.65 16.17 102.65 8.96 94.66 8.96 94.66 0.07 85.79 0.08 85.79 27.2"/><polygon class="cls-1" points="102.67 17.5 95.9 23.33 95.9 40.55 102.65 40.45 102.6 31.9 96.23 31.9 102.61 26.03 102.67 17.5"/><path class="cls-1" d="M164.55,129.66l-1.95,1.74,0,18.21,13,0V129.66Zm5.51,13.72h-1.73v-6.89l.71-.58h1Z" transform="translate(-160.46 -108.96)"/><polygon class="cls-1" points="15.05 19.86 15.05 14.78 4.12 14.78 2.12 16.38 2.12 19.86 9.76 19.86 15.05 19.86"/><polygon class="cls-1" points="15.05 13.97 15.05 8.89 4.12 8.89 2.12 10.49 2.12 13.97 9.76 13.97 15.05 13.97"/><polygon class="cls-1" points="41.6 1.12 32.04 1.12 32.04 0.08 27.12 0.08 25.73 1.12 18.67 1.12 16.14 5.18 16.14 6.62 41.6 6.62 41.6 1.12"/><polygon class="cls-1" points="15.14 7.75 15.14 0.91 11.38 0.91 11.38 0.09 7.02 0.09 5.26 0.91 2.12 0.91 2.12 7.75 15.14 7.75"/><polyline class="cls-1" points="21.58 14.02 21.58 14.02 21.58 11.77"/><polygon class="cls-1" points="35.57 11.77 35.57 7.98 27.53 7.98 27.53 14 21.58 14 21.58 14 21.58 11.75 21.58 11.75 26.33 11.76 26.33 7.98 16.99 7.98 16.99 18.11 40.94 18.11 40.94 7.98 36.79 7.98 36.79 11.75 36.79 11.75 36.79 14 31.45 14 31.45 11.77 35.57 11.77"/><polygon class="cls-1" points="40.9 23.65 40.93 19.86 36.79 19.86 36.79 23.65 40.9 23.65"/><rect class="cls-1" x="36.79" y="25.26" width="4.11" height="3.8"/><polyline class="cls-1" points="30.41 29.5 30.45 40.72 41.08 40.72 41.08 36.09 36.23 36.09 36.22 35.63 41.08 33.5 41.08 29.83 35.85 31.98 35.84 19.1 31.47 19.1 31.47 19.86 28.25 19.86 28.25 23.65 30.47 23.65 30.47 25.26 26.98 25.26 26.98 19.1 21.48 19.1 21.48 19.86 16.99 19.86 17 23.65 21.48 23.65 21.48 25.26 16.99 25.26 16.99 29.43 22.15 29.43 16.99 33.93 16.99 40.3 20.23 37.79 20.19 40.83 29.63 40.71 29.63 35.62 26 35.74 26 32.96 30.41 29.5"/><polygon class="cls-1" points="154.61 8.45 138.66 8.42 135.42 17.11 151.38 17.07 154.61 8.45"/><polygon class="cls-1" points="159.95 8.45 156.12 8.45 152.9 17.07 162.16 17.05 159.95 8.45"/><polygon class="cls-1" points="135.59 21.71 162.15 21.71 162.15 18.19 137.91 18.18 135.6 20.1 135.59 21.71"/><polygon class="cls-1" points="135.6 7.37 162.11 7.37 162.11 1.7 160.1 1.7 160.1 0.31 151.26 0.31 151.26 1.7 146.5 1.7 146.5 0.31 138.34 0.31 138.36 1.7 135.6 1.7 135.6 7.37"/><polygon class="cls-1" points="123.4 10.63 126.47 10.63 126.47 20.84 123.28 23.48 123.35 35.73 126.9 32.53 126.9 40.89 133.71 40.91 134.02 0 126.39 0 126.39 1.7 123.4 1.7 123.4 10.63"/><polygon class="cls-1" points="162.15 40.91 162.16 22.96 138.04 22.96 135.6 24.77 135.6 40.91 152.72 40.91 152.72 33.44 143.11 33.44 143.08 31.04 145.02 29.44 153.96 29.48 153.94 40.91 162.15 40.91"/><polygon class="cls-1" points="259.74 5.55 258.88 6.25 258.88 27.71 263.78 27.77 263.78 5.55 259.74 5.55"/><polygon class="cls-1" points="245.58 30.7 244.05 31.95 244.05 40.7 256.98 40.7 256.98 30.7 254.34 30.7 254.34 24.7 256.98 24.7 256.98 15.81 254.55 15.81 254.55 8.69 256.98 8.69 256.98 0.02 247.65 0.01 244.05 3.03 244.05 8.69 246.9 8.69 246.9 15.81 245.55 15.81 245.63 15.81 244.05 17.12 244.05 24.7 246.82 24.7 246.82 30.7 245.58 30.7"/><polygon class="cls-1" points="282.88 16.01 279.37 16.01 279.37 8.89 282.88 8.89 282.89 0.02 274.12 0.01 272.59 1.31 272.59 30.9 272.59 40.9 282.79 40.9 282.79 30.9 279.6 30.9 279.6 24.9 282.88 24.9 282.88 16.01"/><polygon class="cls-1" points="271.13 30.91 271.17 30.91 271.16 30.87 271.17 30.86 271.16 30.86 270.89 1.05 267.05 1.04 265.36 2.33 265.34 28.22 258.5 39.96 265.48 40.07 271.13 30.91"/><polygon class="cls-1" points="222.45 16.77 187.69 16.77 183.75 20 183.77 24.14 222.45 24.14 222.45 16.77"/><polygon class="cls-1" points="18.03 83.32 10.61 90.16 17.07 90.16 24.57 83.32 28.85 83.32 21.42 90.19 28.12 90.19 33.7 84.83 33.72 90.14 40.1 90.14 40.1 81.4 37.45 80.21 32.27 80.22 5.81 80.21 3.6 81.2 3.62 90.16 10.54 90.16 10.43 83.32 18.03 83.32"/><polyline class="cls-1" points="21.63 72.5 43.72 82.33 43.72 75.46 27.89 67.84 15.83 67.84 0 75.46 0 82.22 21.63 72.5"/><polygon class="cls-1" points="13.49 78.76 30 78.76 30 76.73 26.82 75.37 16.56 75.36 13.45 76.73 13.49 78.76"/><line class="cls-1" x1="30.01" y1="78.76" x2="30.01" y2="78.76"/><polyline class="cls-1" points="14.55 97.91 28.8 97.91 28.8 97.91 30.82 97.91 30.82 95.35 13.45 95.35 13.45 109.42 4.56 109.42 4.56 94.14 8.58 91.21 38.85 91.19 38.87 109.42 14.55 109.42 14.55 103.94 30.82 103.94 30.82 101.28 14.55 101.28 14.55 97.91"/><path class="cls-1" d="M343.59,273.54H327.67a2.36,2.36,0,0,0-.5.05h-89.1l-2.41,2.62v2H343.59a2.37,2.37,0,0,0,0-4.73Z" transform="translate(-160.46 -108.96)"/><path class="cls-1" d="M331.9,269.52H340a2.41,2.41,0,1,0,0-4.73H331.9a3.59,3.59,0,0,0-.41,0h-85l-2.24,2.28v2.39h87.22A3.6,3.6,0,0,0,331.9,269.52Z" transform="translate(-160.46 -108.96)"/><path class="cls-1" d="M327.67,260.86h11.68a2.37,2.37,0,0,0,2.36-2.58,2.41,2.41,0,0,0-2.41-2.15H327.72a2.41,2.41,0,0,0-.35,0H282.46v4.67h44.9A2.34,2.34,0,0,0,327.67,260.86Z" transform="translate(-160.46 -108.96)"/><path class="cls-1" d="M351.15,260.86h11.68a2.37,2.37,0,0,0,2.36-2.58,2.41,2.41,0,0,0-2.41-2.15H351.2a2.41,2.41,0,0,0-2.41,2.15,2.37,2.37,0,0,0,2.36,2.58Z" transform="translate(-160.46 -108.96)"/><path class="cls-1" d="M359.85,267.31a2.37,2.37,0,0,0-2.37-2.37h-9.73a2.37,2.37,0,1,0,0,4.73h9.73A2.37,2.37,0,0,0,359.85,267.31Z" transform="translate(-160.46 -108.96)"/><path class="cls-1" d="M365.82,273.68h-9.73a2.37,2.37,0,0,0,0,4.73h9.73a2.37,2.37,0,0,0,0-4.73Z" transform="translate(-160.46 -108.96)"/><polygon class="cls-1" points="115.72 147.19 93.91 147.19 91.55 149.77 91.46 149.82 91.46 149.86 91.46 151.86 115.72 151.86 115.72 147.19"/></svg>