<?xml version="1.0" encoding="UTF-8"?>
<svg width="24px" height="24px" viewBox="0 0 24 24" version="1.1" xmlns="http://www.w3.org/2000/svg" xmlns:xlink="http://www.w3.org/1999/xlink">
    <!-- Generator: Sketch 45.2 (43514) - http://www.bohemiancoding.com/sketch -->
    <title>Messenger-black</title>
    <desc>Created with Sketch.</desc>
    <defs></defs>
    <g id="interview" stroke="none" stroke-width="1" fill="none" fill-rule="evenodd">
        <g id="For-MAC---menu-Copy-9" transform="translate(-108.000000, -663.000000)" fill="#AAAAAA">
            <g id="Group-3" transform="translate(106.000000, 526.000000)">
                <path d="M13.875,137 C7.31660714,137 2,141.922774 2,147.99537 C2,151.455613 3.72681677,154.542087 6.42546584,156.557612 L6.42546584,160.75 L10.4687927,158.530914 C11.5478688,158.829549 12.6910404,158.990741 13.875,158.990741 C20.4333929,158.990741 25.75,154.067967 25.75,147.99537 C25.75,141.922774 20.4333929,137 13.875,137 L13.875,137 Z M15.0551242,151.807099 L12.0310559,148.58179 L6.13043478,151.807099 L12.621118,144.916667 L15.7189441,148.141975 L21.5458075,144.916667 L15.0551242,151.807099 L15.0551242,151.807099 Z" id="Messenger"></path>
            </g>
        </g>
    </g>
</svg>