<?xml version="1.0" encoding="utf-8"?>
<!-- Generator: Adobe Illustrator 21.0.2, SVG Export Plug-In . SVG Version: 6.00 Build 0)  -->
<svg version="1.1" id="圖層_1" xmlns="http://www.w3.org/2000/svg" xmlns:xlink="http://www.w3.org/1999/xlink" x="0px" y="0px"
	 viewBox="0 0 256.5 115.1" style="enable-background:new 0 0 256.5 115.1;" xml:space="preserve">
<style type="text/css">
	.st0{fill:#FFFFFF;}
</style>
<g>
	<polygon class="st0" points="190.8,24.3 190.8,0 97.4,0 12.8,0 0,13.9 0,24.3 84.6,24.3 	"/>
	<path class="st0" d="M256.4,12.1c0-7-6.6-12.1-15-12.1h-30v24.3h30C249.8,24.3,256.4,19.1,256.4,12.1z"/>
	<path class="st0" d="M241.4,45.3H57.6v0.1H12.8L0,59.3v10.4h44.8h196.6c8.4,0,15-5.2,15-12.2S249.8,45.3,241.4,45.3z"/>
	<path class="st0" d="M244.1,90.8H12.8L0,104.7v10.4h244.1c6.8,0,12.3-5.5,12.3-12.3C256.4,96,250.9,90.8,244.1,90.8z"/>
</g>
</svg>
