<?xml version="1.0" encoding="utf-8"?>
<!-- Generator: Adobe Illustrator 21.0.2, SVG Export Plug-In . SVG Version: 6.00 Build 0)  -->
<svg version="1.1" id="圖層_1" xmlns="http://www.w3.org/2000/svg" xmlns:xlink="http://www.w3.org/1999/xlink" x="0px" y="0px"
	 viewBox="0 0 184 24" style="enable-background:new 0 0 184 24;" xml:space="preserve">
<style type="text/css">
	.st0{enable-background:new    ;}
	.st1{fill:#FFFFFF;}
</style>
<title>Group</title>
<desc>Created with Sketch.</desc>
<g id="Menu">
	<g id="Group" transform="translate(591.000000, 191.000000)">
		<g class="st0">
			<path class="st1" d="M-507.8-176.5l-2.2,3.5h-1.7l3.1-4.6l-3.1-4.6h1.7l2.2,3.4h0l2.2-3.4h1.7l-3.1,4.5l3,4.6h-1.7L-507.8-176.5
				L-507.8-176.5z"/>
		</g>
		<g id="Logo">
			<path id="Fill-1" class="st1" d="M-580.1-176.2l-4.4-8.4h-2.6l5.8,11l-0.8,1.7c-0.1,0.2-0.2,0.4-0.3,0.7
				c-0.1,0.2-0.2,0.5-0.4,0.7c-0.1,0.2-0.3,0.4-0.5,0.5c-0.2,0.1-0.4,0.2-0.6,0.2c-0.2,0-0.4,0-0.5-0.1c-0.1-0.1-0.2-0.1-0.4-0.2
				c-0.1-0.1-0.2-0.1-0.4-0.2c-0.1-0.1-0.3-0.1-0.6-0.1c-0.2,0-0.4,0-0.6,0.1c-0.2,0.1-0.3,0.2-0.4,0.3c-0.1,0.1-0.2,0.2-0.3,0.4
				c-0.1,0.2-0.1,0.3-0.1,0.5c0,0.2,0,0.4,0.1,0.5c0.1,0.2,0.2,0.3,0.4,0.4c0.2,0.1,0.4,0.2,0.6,0.3c0.2,0.1,0.5,0.1,0.7,0.1
				c0.4,0,0.7-0.1,1.1-0.2c0.4-0.1,0.7-0.3,1.1-0.6c0.4-0.3,0.7-0.6,1-1c0.3-0.4,0.6-0.9,0.8-1.5l5.8-13.6h-1.2L-580.1-176.2z"/>
			<path id="Fill-3" class="st1" d="M-557.5-183.8c-0.3-0.3-0.6-0.6-1-0.8c-0.4-0.2-0.8-0.3-1.2-0.3c-0.4,0-0.9,0.1-1.3,0.2
				c-0.4,0.1-0.9,0.3-1.3,0.5c-0.4,0.2-0.8,0.5-1.1,0.8c-0.3,0.3-0.6,0.6-0.8,1c-0.1-0.4-0.2-0.7-0.4-1c-0.2-0.3-0.5-0.6-0.8-0.8
				c-0.3-0.2-0.6-0.4-1-0.5c-0.3-0.1-0.7-0.2-1-0.2c-0.3,0-0.7,0.1-1.1,0.2c-0.4,0.1-0.8,0.3-1.2,0.5c-0.4,0.2-0.8,0.5-1.1,0.8
				c-0.4,0.3-0.7,0.6-1,0.9v-0.4v-1.7v0v-0.1v-0.4c0-0.1-0.1-0.1-0.1-0.1c-1.2,0-1.8,0.5-2.1,0.7c0,0-0.1,0.1-0.1,0.2v0.3v1.2v9.7
				h2.3v-8.6c0.2-0.2,0.4-0.4,0.6-0.6c0.3-0.2,0.5-0.4,0.8-0.5c0.3-0.2,0.6-0.3,0.9-0.4c0.3-0.1,0.6-0.1,0.9-0.1
				c0.3,0,0.5,0.1,0.8,0.2c0.2,0.1,0.5,0.3,0.7,0.5c0.2,0.2,0.3,0.5,0.4,0.8c0.1,0.3,0.2,0.6,0.2,0.9v7.8h2.3v-8.6
				c0.1-0.2,0.3-0.4,0.6-0.6c0.2-0.2,0.5-0.4,0.8-0.5c0.3-0.2,0.6-0.3,0.9-0.4c0.3-0.1,0.6-0.1,0.9-0.1c0.3,0,0.5,0.1,0.8,0.2
				c0.2,0.1,0.5,0.3,0.6,0.5c0.2,0.2,0.3,0.5,0.4,0.8c0.1,0.3,0.2,0.6,0.2,0.9v7.8h2.3v-8.2c0-0.5-0.1-1-0.2-1.4
				C-557-183.1-557.2-183.4-557.5-183.8"/>
			<path id="Fill-5" class="st1" d="M-537.6-183.8c-0.3-0.3-0.6-0.6-1-0.8c-0.4-0.2-0.8-0.3-1.2-0.3c-0.4,0-0.9,0.1-1.3,0.2
				c-0.4,0.1-0.9,0.3-1.3,0.5c-0.4,0.2-0.8,0.5-1.1,0.8c-0.3,0.3-0.6,0.6-0.8,1c-0.1-0.4-0.2-0.7-0.4-1c-0.2-0.3-0.5-0.6-0.8-0.8
				c-0.3-0.2-0.6-0.4-1-0.5c-0.3-0.1-0.7-0.2-1-0.2c-0.3,0-0.7,0.1-1.1,0.2c-0.4,0.1-0.8,0.3-1.2,0.5c-0.4,0.2-0.8,0.5-1.1,0.8
				c-0.4,0.3-0.7,0.6-1,0.9v-0.4v-1.7v0v-0.1v-0.4c0-0.1-0.1-0.1-0.1-0.1c-1.2,0-1.8,0.5-2.1,0.7c0,0-0.1,0.1-0.1,0.2v0.3v1.2v9.7
				h2.3v-8.6c0.2-0.2,0.4-0.4,0.6-0.6c0.3-0.2,0.5-0.4,0.8-0.5c0.3-0.2,0.6-0.3,0.9-0.4c0.3-0.1,0.6-0.1,0.9-0.1
				c0.3,0,0.5,0.1,0.8,0.2c0.2,0.1,0.5,0.3,0.7,0.5c0.2,0.2,0.3,0.5,0.4,0.8c0.1,0.3,0.2,0.6,0.2,0.9v7.8h2.3v-8.6
				c0.1-0.2,0.3-0.4,0.6-0.6c0.2-0.2,0.5-0.4,0.8-0.5c0.3-0.2,0.6-0.3,0.9-0.4c0.3-0.1,0.6-0.1,0.9-0.1c0.3,0,0.5,0.1,0.8,0.2
				c0.2,0.1,0.5,0.3,0.6,0.5c0.2,0.2,0.3,0.5,0.4,0.8c0.1,0.3,0.2,0.6,0.2,0.9v7.8h2.3v-8.2c0-0.5-0.1-1-0.2-1.4
				C-537.1-183.1-537.3-183.4-537.6-183.8"/>
			<path id="Fill-7" class="st1" d="M-528-175.5c-0.2,0.2-0.4,0.3-0.7,0.5c-0.2,0.2-0.4,0.3-0.6,0.4c-0.2,0.1-0.4,0.2-0.7,0.3
				c-0.2,0.1-0.5,0.1-0.7,0.1c-0.2,0-0.5-0.1-0.7-0.2c-0.2-0.1-0.4-0.3-0.6-0.5c-0.2-0.2-0.3-0.4-0.4-0.7c-0.1-0.3-0.2-0.5-0.2-0.8
				c0-0.3,0.1-0.5,0.2-0.8c0.1-0.3,0.3-0.5,0.5-0.7c0.2-0.2,0.5-0.4,0.8-0.6c0.3-0.2,0.6-0.4,1-0.5c0.3-0.2,0.7-0.3,1-0.5
				c0.3-0.1,0.7-0.3,1-0.4V-175.5z M-525.9-183c-0.1-0.4-0.4-0.7-0.7-1c-0.3-0.3-0.7-0.5-1.2-0.6c-0.5-0.1-1.1-0.2-1.9-0.2
				c-0.6,0-1.2,0.1-1.8,0.2c-0.6,0.1-1,0.3-1.5,0.6c-0.4,0.2-0.7,0.5-1,0.9c-0.2,0.3-0.4,0.7-0.4,1.1c0,0.2,0,0.4,0.1,0.5
				c0.1,0.2,0.1,0.3,0.2,0.4c0.1,0.1,0.2,0.2,0.4,0.3c0.1,0.1,0.3,0.1,0.5,0.1c0.2,0,0.4,0,0.6-0.1c0.1-0.1,0.3-0.2,0.3-0.3
				c0.1-0.1,0.1-0.3,0.2-0.5c0-0.2,0-0.4,0-0.6c0-0.2,0-0.4,0.1-0.6c0-0.2,0.1-0.4,0.3-0.6c0.1-0.2,0.3-0.3,0.6-0.4
				c0.2-0.1,0.6-0.2,0.9-0.2c0.3,0,0.6,0,0.9,0.1c0.3,0.1,0.5,0.3,0.7,0.5c0.2,0.2,0.3,0.5,0.4,0.9c0.1,0.4,0.2,0.8,0.2,1.3v0.7
				c-0.5,0.1-1,0.3-1.6,0.4c-0.5,0.2-1,0.3-1.5,0.5c-0.5,0.2-1,0.4-1.4,0.7c-0.4,0.2-0.8,0.5-1.2,0.8c-0.3,0.3-0.6,0.7-0.8,1.1
				c-0.2,0.4-0.3,0.8-0.3,1.3c0,0.4,0.1,0.8,0.2,1.1s0.3,0.7,0.6,0.9c0.3,0.3,0.6,0.5,0.9,0.6c0.4,0.1,0.8,0.2,1.2,0.2
				c0.5,0,0.9-0.1,1.3-0.2c0.4-0.1,0.7-0.3,1-0.4c0.3-0.2,0.6-0.4,0.8-0.6c0.3-0.2,0.5-0.4,0.8-0.6v1.6h2.3v-8.7
				C-525.7-182.2-525.8-182.6-525.9-183L-525.9-183z"/>
			<path id="Fill-10" class="st1" d="M-588.6-190.5c-1.2,0-1.8,0.5-2.1,0.7c0,0-0.1,0.1-0.1,0.2v1.6v15h2.3v-15.1v-1.7v-0.1v-0.4
				C-588.5-190.5-588.5-190.5-588.6-190.5"/>
		</g>
		<g id="Page-1" transform="translate(100.000000, 2.000000)">
			<path id="Fill-4" class="st1" d="M-551.2-173.8c-0.4,0.7-1.4,1.2-3.5,1.2c-2.1,0-2.2-0.3-2.2-1.7v-7.4c1.5,0.1,2.2,0.3,2.2,0.7
				c0,0.3-0.4,0.5-1,0.5v6.1c0,0.6,0.3,0.6,1,0.6c0.9,0,1.5-0.3,1.8-0.8c0.5-0.7,0.7-2.1,0.8-3.2c0-0.2,0.1-0.3,0.3-0.3
				c0.3,0,0.3,0.1,0.3,0.3c-0.1,1-0.2,2.3-0.2,3.1C-551.7-174.4-551.4-174-551.2-173.8 M-558-180.9c0,0.3-0.2,0.5-0.9,0.5v7.1
				c0,0.2-0.4,0.5-0.8,0.5c-0.3,0-0.4-0.1-0.4-0.3v-8.4c0.4,0,0.8,0,1.3,0.1C-558.3-181.4-558-181.2-558-180.9 M-564.4-187.3
				c-0.1-0.2-0.2-0.5-0.3-0.6c1.7,0.2,3,0.3,4.5,0.3h0.3v-2.7c0.4,0,0.8,0,1.3,0.1c0.6,0.1,0.9,0.2,0.9,0.5c0,0.3-0.2,0.5-0.9,0.5
				v1.5h3.9c0.3-0.5,0.7-0.9,1-1.3c0.5,0.2,1.9,1.2,1.9,1.6c0,0.3-0.2,0.4-0.5,0.4h-6.9c-0.7,1.1-1.6,2.3-2.2,3.1h0
				c1.8,0,3.4-0.2,4.8-0.4c-0.6-0.5-1.2-1-1.8-1.3c-0.2-0.1-0.3-0.3-0.1-0.5c0.1-0.2,0.2-0.2,0.5-0.1c1.1,0.4,4.5,2.3,4.5,3.2
				c0,0.5-0.4,1.1-0.7,1.1c-0.3,0-0.4-0.2-0.6-0.4c-0.3-0.5-0.7-1-1.2-1.5c-1.8,0.4-4,0.7-6.9,0.9c-0.1,0.5-0.2,0.7-0.5,0.7
				c-0.5,0-1.1-0.9-1.3-2c0.7,0.2,1.7,0.2,2.6,0.2c0.5-0.9,1-2.1,1.3-3.1h-3.1C-564.1-187.1-564.2-187.1-564.4-187.3 M-561.2-180.8
				c0,0.3-0.3,0.4-0.8,0.5c0,0.6,0,2-0.1,2.6c-0.3,3.5-2.5,5-3.7,5.5c-0.2,0.1-0.3,0-0.5-0.2c-0.1-0.2,0-0.3,0.2-0.4
				c1.2-0.7,2.6-2.2,2.7-5.4c0.1-1.4,0-2.5-0.3-3.2c0.4,0,1.1,0.1,1.6,0.1C-561.6-181.2-561.2-181.1-561.2-180.8 M-568.1-190.4
				c0.1-0.1,0.2-0.1,0.4,0c1.4,0.7,2.7,1.7,2.7,2.3c0,0.4-0.4,0.9-0.8,0.9c-0.3,0-0.4-0.1-0.5-0.3c-0.3-0.7-0.8-1.6-1.8-2.3
				C-568.2-190.1-568.2-190.3-568.1-190.4 M-566.9-177.1c0,2.8,0.6,3.7,0.6,4.2c0,0.4-0.1,0.6-0.7,0.6c-0.7,0-1.2-0.5-1.2-1.1
				c0-0.9,0.2-2.3,0.2-3.5c0-0.8-0.5-0.9-1.4-1.3c-0.2-0.1-0.2-0.1-0.2-0.3c0-0.2,0.1-0.2,0.3-0.2l1.4,0.2c0.8-2.3,2-5.2,3.4-8
				c0.1-0.3,0.2-0.3,0.5-0.2c0.2,0.1,0.4,0.2,0.3,0.4C-565.1-183.5-566.9-178.6-566.9-177.1 M-569.6-186.1c-0.2-0.1-0.2-0.2,0-0.4
				c0.1-0.1,0.2-0.1,0.5,0c1.2,0.7,2.5,1.7,2.5,2.4c0,0.4-0.5,0.9-0.9,0.9c-0.3,0-0.4-0.1-0.5-0.4
				C-568.2-184.2-568.6-185.3-569.6-186.1 M-578.7-184.7l-0.3,3.7h2.5c0.1-1.4,0.1-2.7,0.1-3.7H-578.7z M-576.5-180.5h-2.6
				c-0.1,1.4-0.3,2.8-0.5,4h2.5C-576.8-177.6-576.6-179-576.5-180.5L-576.5-180.5z M-582.7-181.1h2.5c0.1-1.2,0.2-2.5,0.2-3.7h-2.3
				C-582.4-183.6-582.5-182.3-582.7-181.1L-582.7-181.1z M-583.4-176.4h2.7c0.2-1.3,0.3-2.6,0.4-4h-2.5
				C-583-179-583.2-177.6-583.4-176.4L-583.4-176.4z M-583.6-189.1c0.1-0.6,0.1-1.1,0-1.5c1.4,0.3,2.4,0.8,2.4,1.1
				c0,0.3-0.4,0.4-0.9,0.4l-0.4,1h6.7c0.3-0.4,0.7-0.9,1-1.2c0.5,0.2,1.8,1,1.8,1.4c0,0.3-0.2,0.4-0.5,0.4h-9.4
				c-0.8,1.7-1.8,3.3-2.6,4.2c-0.2,0.2-0.3,0.3-0.6,0.1c-0.2-0.2-0.1-0.3,0-0.5C-585.3-184.6-584.1-186.5-583.6-189.1L-583.6-189.1z
				 M-571.8-180.9c0,0.3-0.1,0.4-0.5,0.4h-3.1c-0.1,1.5-0.3,2.9-0.5,4h0.4c0.3-0.4,0.6-0.8,0.8-1.1c0.5,0.2,1.6,1,1.6,1.3
				c0,0.2-0.2,0.3-0.4,0.3h-2.5v0c-0.2,1.1-0.5,2.1-0.9,2.6c-0.5,0.6-1.1,0.8-1.8,1c-0.6-0.7-1.5-1.2-2.2-1.5
				c-0.2-0.1-0.3-0.2-0.3-0.4c0.1-0.2,0.2-0.2,0.4-0.1c0.8,0.2,2,0.5,2.6,0.5c0.4,0,0.7-0.8,1-2.1h-6.4c-0.1,0.3-0.1,0.6-0.2,0.9
				c0,0.2-0.4,0.5-0.8,0.5c-0.3,0-0.4-0.2-0.3-0.4c0.3-1.5,0.7-3.5,0.9-5.6h-2.1c-0.3,0-0.4-0.1-0.6-0.2c-0.1-0.2-0.2-0.3-0.3-0.5
				c1.1,0.1,2.2,0.2,2.9,0.2c0.2-1.6,0.4-3.2,0.5-4.8c0.4,0.2,0.8,0.4,1.1,0.6h5.7c0.2-0.2,0.3-0.5,0.5-0.6c0.4,0.2,1.4,0.7,1.4,1.1
				c0,0.2-0.2,0.4-0.6,0.5c0,0.9,0,2.1-0.1,3.3h1c0.2-0.3,0.6-0.8,0.9-1.1C-572.9-181.9-571.8-181.2-571.8-180.9L-571.8-180.9z
				 M-589.2-189.9c-0.1-0.1-0.1-0.2,0-0.3c0.1-0.1,0.2-0.2,0.3-0.1c1.3,0.7,2.7,1.7,2.7,2.4c0,0.5-0.4,0.9-0.8,0.9
				c-0.3,0-0.4-0.2-0.5-0.5C-587.8-188.4-588.4-189.1-589.2-189.9L-589.2-189.9z M-590.8-185.8c-0.1-0.1-0.2-0.3,0-0.4
				c0.1-0.1,0.2-0.1,0.4,0c1.3,0.7,2.5,1.8,2.5,2.4c0,0.5-0.5,1-0.9,1c-0.3,0-0.4-0.1-0.5-0.4C-589.5-183.9-590-184.9-590.8-185.8
				L-590.8-185.8z M-588.2-177.5c0,2.6,0.8,4.1,0.8,4.6c0,0.3-0.2,0.6-0.6,0.6c-0.7,0-1.2-0.7-1.2-1.3c0-1.2,0.1-2.8,0-3.3
				c0-0.6-0.6-0.8-1.6-1.2c-0.2-0.1-0.2-0.1-0.2-0.3c0-0.2,0.1-0.2,0.3-0.2l1.6,0.3c0.8-2.5,2.1-5.8,3.2-8.8
				c0.1-0.3,0.2-0.3,0.5-0.3c0.3,0.1,0.4,0.2,0.3,0.5C-586.3-183.8-588.2-178.6-588.2-177.5L-588.2-177.5z M-537.7-181.2
				c0.3,1.4,0.9,2.7,1.7,3.8c0.8-1,1.4-2.3,1.8-3.8H-537.7z M-538.3-187.2c0-0.8-0.1-2.1-0.4-3c0.5,0.2,1,0.5,1.5,0.8h2.2
				c0.1-0.2,0.3-0.5,0.6-0.7c0.5,0.2,1.4,0.7,1.4,1.1c0,0.3-0.2,0.4-0.6,0.5v3.4c0,0.5,0.2,0.6,1,0.6c0.8,0,1.2-0.2,1.5-0.7
				c0.4-0.6,0.6-1.6,0.7-2.5c0-0.2,0.1-0.3,0.3-0.3c0.2,0,0.3,0.1,0.3,0.3c-0.1,0.8-0.2,1.7-0.2,2.3c0,0.3,0.1,0.6,0.3,0.8
				c-0.2,0.6-1.3,1-2.9,1c-2.2,0-2.2-0.2-2.2-1.6v-3.8h-2.3c0.1,0.6,0.1,1.6,0,2.3c-0.2,2.7-2.1,3.8-3.5,4.3
				c-0.2,0.1-0.4,0.1-0.5-0.2c-0.1-0.3,0-0.3,0.2-0.4C-539.9-183.4-538.3-184.7-538.3-187.2L-538.3-187.2z M-528.8-173.9
				c0,0.2-0.1,0.2-0.3,0.3c-0.8,0.2-1.7,0.7-2.3,1.2c-1.2-0.4-3.1-1.7-4.5-3.4c-2,2-5.2,3.4-7.1,3.6c-0.3,0-0.4,0-0.5-0.2
				c-0.1-0.2,0-0.3,0.3-0.4c1.6-0.4,4.3-1.3,6.6-3.9c-0.8-1.2-1.5-2.7-1.8-4.4h-1.3c-0.3,0-0.4-0.1-0.5-0.2
				c-0.1-0.2-0.2-0.4-0.2-0.6c1.6,0.2,2.5,0.2,4,0.2h2.2c0.2-0.2,0.4-0.5,0.7-0.7c0.5,0.2,1.5,0.8,1.5,1.2c0,0.2-0.2,0.4-0.7,0.5
				c-0.5,1.5-1.4,3-2.5,4.3c1.6,1.9,3.8,2.7,6.2,2.4C-528.9-174.1-528.8-174.1-528.8-173.9L-528.8-173.9z M-545.9-175h2.8v-3.6h-2.8
				V-175z M-545.9-174.4v1.4c0,0.2-0.4,0.5-0.9,0.5c-0.3,0-0.4-0.2-0.4-0.4v-7c0.5,0.2,1,0.5,1.4,0.7h2.6c0.2-0.2,0.4-0.5,0.5-0.6
				c0.6,0.3,1.4,0.8,1.4,1.1c0,0.2-0.2,0.4-0.6,0.5v4.2c0,0.2-0.4,0.5-0.9,0.5c-0.3,0-0.4-0.2-0.4-0.4v-0.4H-545.9z M-547-181.3
				c-0.1-0.1-0.2-0.4-0.2-0.6c1.3,0.2,2.3,0.2,3.4,0.2c0.2-0.4,0.5-0.7,0.8-1c0.5,0.2,1.5,0.9,1.5,1.2c0,0.2-0.2,0.4-0.5,0.4h-4.4
				C-546.7-181.1-546.9-181.2-547-181.3L-547-181.3z M-547-184.1c-0.1-0.1-0.2-0.4-0.2-0.6c1.3,0.1,2.4,0.2,3.5,0.2
				c0.2-0.3,0.5-0.6,0.7-0.9c0.5,0.2,1.4,0.8,1.4,1.1c0,0.2-0.2,0.4-0.5,0.4h-4.4C-546.8-183.8-546.9-183.9-547-184.1L-547-184.1z
				 M-547.1-188.9c-0.1-0.2-0.2-0.4-0.2-0.6c1.5,0.2,2.4,0.2,3.7,0.2c0.2-0.4,0.4-0.6,0.7-0.9c0.5,0.2,1.4,0.8,1.4,1.1
				c0,0.2-0.1,0.4-0.4,0.4h-4.6C-546.8-188.7-547-188.8-547.1-188.9L-547.1-188.9z M-540.8-186.3h-6.6c-0.2,0-0.4-0.1-0.5-0.2
				c-0.1-0.2-0.2-0.4-0.2-0.6c1.7,0.2,4,0.2,5.6,0.2c0.2-0.3,0.5-0.7,0.7-1c0.4,0.2,1.5,0.8,1.5,1.2
				C-540.4-186.5-540.5-186.3-540.8-186.3L-540.8-186.3z M-507.7-183.1c0,0.2-0.1,0.4-0.5,0.4h-4.6v9.9c0,0.2-0.3,0.4-0.9,0.4
				c-0.3,0-0.4-0.2-0.4-0.4v-9.8h-3.5c-0.3,0-0.4-0.1-0.5-0.2c-0.1-0.2-0.2-0.4-0.2-0.6c1.4,0.2,3,0.2,4.3,0.2h0v-6.7
				c0.4,0,0.9,0,1.3,0.1c0.7,0.1,0.9,0.2,0.9,0.5c0,0.3-0.2,0.4-0.9,0.5v5.6h2.3c0.3-0.5,0.6-0.9,0.9-1.2
				C-509-184.3-507.7-183.5-507.7-183.1L-507.7-183.1z M-523.7-174.8h3.4v-3.5h-3.4V-174.8z M-518.5-178.4c0,0.2-0.2,0.4-0.6,0.5
				v4.9c0,0.2-0.4,0.5-0.9,0.5c-0.3,0-0.4-0.2-0.4-0.4v-1.2h-3.4v1.3c0,0.2-0.4,0.5-0.9,0.5c-0.3,0-0.4-0.2-0.4-0.4v-6.7
				c0.5,0.2,1,0.5,1.4,0.7h3.2c0.2-0.2,0.4-0.5,0.5-0.6C-519.3-179.3-518.5-178.7-518.5-178.4L-518.5-178.4z M-524.8-181.1
				c-0.1-0.1-0.2-0.4-0.2-0.6c1.3,0.2,2.6,0.2,4,0.2c0.2-0.4,0.5-0.8,0.8-1.1c0.5,0.2,1.6,0.9,1.6,1.3c0,0.2-0.2,0.4-0.5,0.4l-5.1,0
				C-524.6-180.9-524.7-180.9-524.8-181.1L-524.8-181.1z M-524.9-183.7c-0.1-0.1-0.2-0.4-0.2-0.6c1.3,0.2,2.8,0.2,4.1,0.2
				c0.2-0.4,0.5-0.7,0.8-1c0.5,0.2,1.5,0.9,1.5,1.3c0,0.2-0.2,0.4-0.5,0.4l-5.1,0C-524.6-183.5-524.7-183.6-524.9-183.7
				L-524.9-183.7z M-524.9-188.7c-0.1-0.2-0.2-0.4-0.2-0.6c1.5,0.2,2.6,0.2,3.8,0.2c0.2-0.4,0.6-0.8,0.8-1.1c0.5,0.2,1.6,1,1.6,1.3
				c0,0.2-0.1,0.4-0.4,0.4h-5C-524.6-188.5-524.7-188.6-524.9-188.7L-524.9-188.7z M-517.9-186h-7.4c-0.2,0-0.4-0.1-0.6-0.2
				c-0.1-0.2-0.2-0.4-0.2-0.6c1.7,0.2,4.7,0.2,6.3,0.2c0.2-0.3,0.5-0.8,0.7-1c0.4,0.2,1.5,0.9,1.5,1.3
				C-517.5-186.2-517.6-186-517.9-186L-517.9-186z"/>
		</g>
	</g>
</g>
</svg>
