<?xml version="1.0" encoding="UTF-8"?>
<svg width="18px" height="14px" viewBox="0 0 18 14" version="1.1" xmlns="http://www.w3.org/2000/svg" xmlns:xlink="http://www.w3.org/1999/xlink">
    <defs></defs>
    <g id="pages" stroke="none" stroke-width="1" fill="none" fill-rule="evenodd">
        <g id="Hambuger-創作者" transform="translate(-85.000000, -612.000000)" fill="#999999">
            <g id="Group" transform="translate(54.000000, 612.000000)">
                <path d="M48.3953125,1.65688679 C47.778193,1.93792067 47.1137543,2.12797236 46.4167839,2.21288907 C47.1285416,1.77617456 47.6746825,1.08369899 47.9319799,0.258793788 C47.2655697,0.663159083 46.5291667,0.957334834 45.7424871,1.1150373 C45.1155094,0.428627212 44.2194045,0 43.2276757,0 C41.3260406,0 39.7832417,1.58207921 39.7832417,3.53314176 C39.7832417,3.81013199 39.8128161,4.07903491 39.871965,4.33782869 C37.0081754,4.19023536 34.4697044,2.78506596 32.7691754,0.644962644 C32.4724454,1.1686157 32.3028854,1.77617456 32.3028854,2.42315903 C32.3028854,3.64838587 32.9111326,4.73006303 33.8358261,5.36390563 C33.2719405,5.3467201 32.7396009,5.1859849 32.2742968,4.92314746 L32.2742968,4.96661673 C32.2742968,6.67910375 33.4622026,8.10752415 35.0395049,8.43101639 C34.7506614,8.51391127 34.4460449,8.55535871 34.1315703,8.55535871 C33.9097621,8.55535871 33.692883,8.53412954 33.4829047,8.49268209 C33.9215919,9.89582967 35.1932919,10.9178629 36.7015873,10.9451576 C35.5225538,11.8933942 34.0359463,12.4584947 32.4221688,12.4584947 C32.1441693,12.4584947 31.8691272,12.4423201 31.6,12.4099709 C33.1250542,13.410775 34.9369803,13.9960938 36.8819912,13.9960938 C43.220775,13.9960938 46.6859111,8.61298077 46.6859111,3.94357253 C46.6859111,3.78991372 46.6829536,3.63625491 46.6770388,3.48562884 C47.3503497,2.98724861 47.9349374,2.36553697 48.3953125,1.65688679" id="Twitter"></path>
            </g>
        </g>
    </g>
</svg>