<?xml version="1.0" encoding="UTF-8"?>
<svg width="15px" height="15px" viewBox="0 0 15 15" version="1.1" xmlns="http://www.w3.org/2000/svg" xmlns:xlink="http://www.w3.org/1999/xlink">
    <defs></defs>
    <g id="pages" stroke="none" stroke-width="1" fill="none" fill-rule="evenodd">
        <g id="Hambuger-創作者" transform="translate(-54.000000, -612.000000)" fill="#999999">
            <g id="Group" transform="translate(54.000000, 612.000000)">
                <path d="M7.68900283,14.3953125 L0.794510742,14.3953125 C0.355586009,14.3953125 0,14.0395058 0,13.6007521 L0,0.794504577 C0,0.355639106 0.355641866,0 0.794510742,0 L13.6008576,0 C14.0396148,0 14.3953125,0.355639106 14.3953125,0.794504577 L14.3953125,13.6007521 C14.3953125,14.0395617 14.0395589,14.3953125 13.6008576,14.3953125 L9.93255728,14.3953125 L9.93255728,8.82065416 L11.8037127,8.82065416 L12.0838917,6.64811088 L9.93255728,6.64811088 L9.93255728,5.26107927 C9.93255728,4.63207786 10.1072223,4.20343415 11.009202,4.20343415 L12.1596339,4.20293144 L12.1596339,2.25979131 C11.9606711,2.23331528 11.2777627,2.17416311 10.483252,2.17416311 C8.82457675,2.17416311 7.68900283,3.18662023 7.68900283,5.04591957 L7.68900283,6.64811088 L5.81304366,6.64811088 L5.81304366,8.82065416 L7.68900283,8.82065416 L7.68900283,14.3953125 L7.68900283,14.3953125 Z" id="Facebook"></path>
            </g>
        </g>
    </g>
</svg>