<?xml version="1.0" encoding="UTF-8"?>
<svg width="207px" height="44px" viewBox="0 0 207 44" version="1.1" xmlns="http://www.w3.org/2000/svg" xmlns:xlink="http://www.w3.org/1999/xlink">
    <!-- Generator: Sketch 46 (44423) - http://www.bohemiancoding.com/sketch -->
    <title>Page 1</title>
    <desc>Created with Sketch.</desc>
    <defs>
        <polygon id="path-1" points="34.3597059 32.8241571 34.3597059 0.578442857 0.437431373 0.578442857 0.437431373 32.8241571"></polygon>
        <polygon id="path-3" points="43.6063015 43.8461538 0.000270769231 43.8461538 0.000270769231 0.391984615 43.6063015 0.391984615 43.6063015 43.8461538"></polygon>
    </defs>
    <g id="Menu" stroke="none" stroke-width="1" fill="none" fill-rule="evenodd">
        <g id="For-MAC---menu-Copy-9" transform="translate(-580.000000, -2343.000000)">
            <g id="Page-1" transform="translate(580.000000, 2343.000000)">
                <path d="M75.0530967,15.5821155 L74.4753275,22.1821155 L79.2534093,22.1821155 C79.4072491,19.7487485 79.484517,17.4259588 79.484517,15.5821155 L75.0530967,15.5821155 Z M79.1761414,23.2512515 L74.3597736,23.2512515 C74.0896839,25.7585587 73.8202903,28.2292289 73.5126108,30.4414413 L78.2899966,30.4414413 C78.674944,28.3398062 78.9833196,25.7958619 79.1761414,23.2512515 L79.1761414,23.2512515 Z M67.5393124,22.1821155 L72.2791083,22.1821155 C72.4329481,19.9699031 72.6257699,17.7576908 72.7420198,15.5821155 L68.4261533,15.5821155 C68.1567597,17.6837505 67.847688,19.9325999 67.5393124,22.1821155 L67.5393124,22.1821155 Z M66.3072021,30.4414413 L71.3546776,30.4414413 C71.6623571,28.1552887 71.9324468,25.7219217 72.1635545,23.2146145 L67.3854726,23.2146145 C67.0388111,25.7958619 66.6538637,28.3031692 66.3072021,30.4414413 L66.3072021,30.4414413 Z M65.9598445,7.72779572 C66.1916483,6.73326605 66.1916483,5.81134437 65.9598445,5 C68.618279,5.55288656 70.3912648,6.40153411 70.3912648,7.02769479 C70.3912648,7.61721841 69.6979417,7.72779572 68.7728149,7.76509891 L67.9632419,9.53500202 L80.6017695,9.53500202 C81.1412529,8.76096084 81.8345759,7.98691966 82.4123451,7.36009285 C83.337472,7.76509891 85.8037809,9.16663302 85.8037809,9.90403714 C85.8037809,10.3836496 85.4947091,10.6048042 84.9559219,10.6048042 L67.4244547,10.6048042 C65.8442907,13.6276948 63.994733,16.5406742 62.6073908,18.1260597 C62.2607293,18.5317319 61.9906396,18.6789463 61.5284242,18.3105773 C61.1434767,17.9788454 61.2590306,17.7576908 61.4518524,17.4992329 C62.6846587,15.7659669 64.8808779,12.4113444 65.9598445,7.72779572 L65.9598445,7.72779572 Z M88,22.5138474 C88,23.0300969 87.7299103,23.2512515 87.0755692,23.2512515 L81.3333785,23.2512515 C81.1412529,25.9057731 80.8328772,28.5243238 80.4862157,30.4414413 L81.2178247,30.4414413 C81.7190221,29.7406742 82.2592015,29.0772103 82.7979887,28.5243238 C83.6841335,28.929996 85.7265129,30.2935608 85.7265129,30.8837505 C85.7265129,31.3267259 85.4188334,31.5112434 84.9559219,31.5112434 L80.2933939,31.5112434 L80.2933939,31.5472144 C79.8694645,33.501635 79.3299812,35.2722043 78.5211042,36.2300969 C77.6342633,37.2625959 76.5177069,37.7422083 75.1693467,38 C74.0131121,36.7097093 72.3953583,35.8250908 71.1228738,35.3081752 C70.6606584,35.1243238 70.4685327,35.0130803 70.5833905,34.5714372 C70.6996404,34.1284618 70.969034,34.2024021 71.3929635,34.3129794 C72.8185916,34.6820145 75.0920787,35.234235 76.2476172,35.234235 C76.9799222,35.234235 77.5959774,33.7600929 78.0978709,31.5112434 L66.1143804,31.5112434 C65.9981304,32.1007671 65.8832727,32.6529875 65.8060047,33.1699031 C65.7287368,33.5755753 65.0354137,33.9812475 64.2258407,33.9812475 C63.6480715,33.9812475 63.4552497,33.6861526 63.5708036,33.2065402 C64.2258407,30.4414413 64.842592,26.9755753 65.3437894,23.2146145 L61.4908344,23.2146145 C60.950655,23.2146145 60.7195473,23.1040371 60.4501537,22.8089423 C60.180064,22.5138474 59.9872422,22.1821155 59.9489563,21.8503835 C62.0296216,22.0715382 64.0330189,22.1821155 65.4593432,22.1821155 C65.8442907,19.3797134 66.1526663,16.4300969 66.4610419,13.5171175 C67.154365,13.8128785 67.9256521,14.1812475 68.5417072,14.5869197 L79.2916952,14.5869197 C79.6000709,14.2551877 79.8311785,13.7755753 80.1778401,13.4804804 C80.8711631,13.7755753 82.7207208,14.8074082 82.7207208,15.434235 C82.7207208,15.8772103 82.3747553,16.135002 81.6417541,16.3188535 C81.6417541,17.9788454 81.5651823,20.0804804 81.4113426,22.1821155 L83.337472,22.1821155 C83.7614015,21.5552887 84.4164386,20.7439443 84.9559219,20.2283609 C85.8810488,20.633367 88,21.9243238 88,22.5138474 L88,22.5138474 Z M55.2871244,6.32759386 C55.0553206,6.10577311 55.0943026,5.95855874 55.2488385,5.73807025 C55.4026782,5.5162495 55.6720718,5.40567218 55.9031795,5.5162495 C58.4077743,6.69596286 60.989637,8.53980622 60.989637,9.75615664 C60.989637,10.567501 60.219046,11.4154824 59.5250268,11.4154824 C58.8699897,11.4154824 58.7161499,11.0464473 58.5623101,10.6048042 C57.9845409,9.05538958 56.7893244,7.69182479 55.2871244,6.32759386 L55.2871244,6.32759386 Z M52.3196181,13.7382721 C52.0502245,13.4804804 52.0119386,13.2220226 52.3196181,12.9642309 C52.5897078,12.7430763 52.7825296,12.8536536 53.0526193,13.000868 C55.4409641,14.3284618 57.7917191,16.2828825 57.7917191,17.2780783 C57.7917191,18.2 56.8665923,19.0852846 56.1725731,19.0852846 C55.5955,19.0852846 55.4409641,18.8268268 55.2871244,18.3105773 C54.9021769,17.0569237 53.8997821,15.2130803 52.3196181,13.7382721 L52.3196181,13.7382721 Z M57.3288077,28.5243238 C57.3288077,33.1699031 58.7544358,35.8610618 58.7544358,36.7456803 C58.7544358,37.33587 58.4077743,37.8154824 57.5599154,37.8154824 C56.2115551,37.8154824 55.3254103,36.5618288 55.3254103,35.4187525 C55.3254103,33.3537545 55.4409641,30.4041381 55.4026782,29.5568228 C55.3636962,28.5243238 54.2854257,28.1179855 52.3968861,27.3812475 C52.0119386,27.233367 51.9729566,27.1600929 52.0119386,26.864998 C52.0502245,26.5699031 52.1657784,26.4226887 52.5124399,26.4959629 L55.47925,27.0495155 C57.0211282,22.4772103 59.3711871,16.6878886 61.5284242,11.1943278 C61.7219421,10.7147154 61.8367998,10.567501 62.4152651,10.7147154 C63.0313203,10.8619298 63.1858561,11.1203876 62.9930344,11.6 C60.8351011,17.2048042 57.3288077,26.6072063 57.3288077,28.5243238 L57.3288077,28.5243238 Z" id="Fill-1" fill="#083782"></path>
                <path d="M127,34.9767545 C126.184836,36.1588286 124.439557,37.0465523 120.405089,37.0465523 C116.408471,37.0465523 116.252868,36.5286022 116.252868,34.0169451 L116.252868,20.6790644 C119.007465,20.9380394 120.48219,21.2337248 120.48219,21.8985163 C120.48219,22.5265975 119.706277,22.7481946 118.503507,22.8589932 L118.503507,33.8313908 C118.503507,34.8285781 119.085266,34.9767545 120.442939,34.9767545 C122.150368,34.9767545 123.275337,34.4601394 123.857797,33.5730833 C124.710811,32.2795431 125.21547,29.8786845 125.448174,27.7728439 C125.486724,27.4030703 125.564526,27.2922717 126.029933,27.2922717 C126.534592,27.2922717 126.650944,27.5138689 126.611693,27.8836425 C126.41754,29.6570874 126.146285,32.0953238 126.146285,33.498995 C126.146285,33.9795672 126.534592,34.570938 127,34.9767545 M114.080732,22.1942017 C114.080732,22.7114843 113.730975,23.0065022 112.295501,23.1173008 L112.295501,35.936564 C112.295501,36.2696272 111.481038,36.7869098 110.782926,36.7869098 C110.201167,36.7869098 110.045563,36.5286022 110.045563,36.1588286 L110.045563,21.0855483 C110.821476,21.1229262 111.636641,21.1589691 112.489655,21.2704351 C113.693126,21.4179441 114.080732,21.6769191 114.080732,22.1942017 M102.130829,10.7405645 C101.859575,10.4448791 101.665422,9.92826396 101.626871,9.59520073 C104.924677,9.96430687 107.368768,10.0757729 110.201167,10.0757729 L110.782926,10.0757729 L110.782926,5.31009869 C111.558839,5.31009869 112.373303,5.3841869 113.149216,5.45694019 C114.313436,5.56840624 114.894494,5.82738125 114.894494,6.34399636 C114.894494,6.93536714 114.429087,7.23105253 113.149216,7.30514074 L113.149216,10.0757729 L120.52074,10.0757729 C121.103201,9.22609459 121.762061,8.37574879 122.460173,7.67491435 C123.46949,8.1181087 126.029933,9.78008753 126.029933,10.4822569 C126.029933,10.9995395 125.719428,11.1470484 125.137668,11.1470484 L112.140599,11.1470484 C110.782926,13.142758 109.191849,15.2479311 107.911978,16.6522699 L107.989779,16.6522699 C111.363985,16.6522699 114.390536,16.3565845 117.106583,15.9874783 C116.020865,15.0637118 114.818095,14.2140335 113.653875,13.5859523 C113.227017,13.3643551 113.149216,13.0686697 113.421171,12.736274 C113.693126,12.4038782 113.847327,12.4038782 114.351986,12.588765 C116.447021,13.3643551 122.887731,16.6889803 122.887731,18.4257148 C122.887731,19.3121035 122.150368,20.4200894 121.490807,20.4200894 C120.909047,20.4200894 120.753444,20.1250714 120.442939,19.6444992 C119.90043,18.7941534 119.085266,17.834344 118.15375,16.9479553 C114.739592,17.686835 110.666574,18.240828 105.07958,18.6099341 C104.963228,19.4229021 104.691273,19.7920082 104.188015,19.7920082 C103.178698,19.7920082 102.092279,18.1667397 101.743223,16.2831637 C103.139446,16.6522699 105.041029,16.6522699 106.592855,16.6522699 C107.445869,15.1004222 108.493737,12.9211608 109.076198,11.1470484 L103.178698,11.1470484 C102.635488,11.1470484 102.402785,11.0362498 102.130829,10.7405645 M108.10543,22.4525092 C108.10543,23.04388 107.48512,23.2280994 106.592855,23.3382305 C106.631406,24.4475513 106.592855,26.8490773 106.476503,27.9944411 C105.816241,34.311963 101.665422,37.008507 99.5703864,37.932941 C99.1435291,38.1178278 98.9108253,37.8962306 98.7166718,37.5631674 C98.483267,37.1566834 98.6781215,37.008507 99.1049788,36.7869098 C101.432718,35.6048357 103.993161,32.7601153 104.264415,27.1073849 C104.381468,24.6691485 104.225865,22.5633078 103.682656,21.3438559 C104.49782,21.3805663 105.777691,21.4553219 106.631406,21.5661205 C107.407319,21.6769191 108.10543,21.8618059 108.10543,22.4525092 M95.1090615,5.16258972 C95.3417653,4.94032508 95.5751701,4.97703546 95.807173,5.08850151 C98.4068673,6.30728599 100.92876,8.15415162 100.92876,9.15200638 C100.92876,9.92826396 100.152146,10.7779423 99.4925849,10.7779423 C98.9493756,10.7779423 98.7944734,10.5930555 98.6003199,10.1498611 C98.095661,8.89369882 97.0484937,7.30514074 95.1861622,5.93817984 C94.914908,5.71658267 94.8756568,5.3841869 95.1090615,5.16258972 M97.3197479,28.9922958 C97.3197479,34.0903658 98.4068673,35.7149668 98.4068673,36.5653126 C98.4068673,37.2314391 98.1349122,37.6365881 97.1648456,37.6365881 C95.807173,37.6365881 94.8371064,36.7141565 94.8371064,35.6422135 C94.8371064,34.0169451 95.2639637,31.4672426 95.2639637,29.3240241 C95.2639637,27.9203529 94.4102491,27.6246675 92.6649704,26.9598759 C92.2766634,26.8116995 92.2374121,26.7382788 92.2766634,26.4425934 C92.3152137,26.146908 92.4315656,26.0361094 92.7806214,26.0734872 L95.3417653,26.4425934 C96.8935915,22.2676224 99.1820794,17.1328421 101.704673,12.0341046 C101.937377,11.5535324 102.170081,11.5535324 102.557687,11.6649985 C102.945994,11.7757971 103.255798,11.9600164 103.062346,12.4405886 C100.773157,17.6127468 97.3197479,26.405883 97.3197479,28.9922958 M92.2374121,12.8096947 C91.9276076,12.5507197 91.9276076,12.3665004 92.1988618,12.070815 C92.4315656,11.81184 92.6649704,11.8492178 93.0525764,12.070815 C95.2254134,13.2902669 97.8244068,15.1371325 97.8244068,16.3565845 C97.8244068,17.0954642 96.9713931,18.0559412 96.1947791,18.0559412 C95.6908211,18.0559412 95.4966676,17.834344 95.3417653,17.3537718 C94.9927096,16.2831637 94.0997437,14.3615424 92.2374121,12.8096947" id="Fill-3" fill="#083782"></path>
                <path d="M150.532202,22.6014322 C151.182583,25.1929249 152.293075,27.4844858 153.633968,29.4747576 C155.12777,27.559808 156.31437,25.1929249 156.965444,22.6014322 L150.532202,22.6014322 Z M149.306164,11.5589181 C149.306164,10.1318668 149.153255,7.6896614 148.57829,6 C149.536565,6.37525412 150.494148,6.82583049 151.412293,7.38972954 L155.472334,7.38972954 C155.740789,7.01379684 156.123407,6.52522005 156.506025,6.18728777 C157.502354,6.56322047 159.187119,7.50237363 159.187119,8.21556003 C159.187119,8.70413682 158.804501,8.96674684 157.999827,9.19271361 L157.999827,15.3521741 C157.999827,16.2540054 158.306337,16.5166154 159.799446,16.5166154 C161.255886,16.5166154 162.097922,16.1033609 162.634141,15.23953 C163.323269,14.1504109 163.743941,12.3474268 163.897542,10.7324091 C163.936288,10.357155 164.051143,10.2438323 164.434453,10.2438323 C164.855817,10.2438323 165.04678,10.4697991 165.008034,10.8450532 C164.855817,12.3094264 164.548615,13.9244441 164.548615,15.0888855 C164.548615,15.5774622 164.701524,16.1786831 165.12358,16.5919377 C164.664162,17.6810568 162.787742,18.470244 159.72403,18.470244 C155.702043,18.470244 155.663989,18.0196676 155.663989,15.5028186 L155.663989,8.47884863 L151.412293,8.47884863 C151.527147,9.56796773 151.603948,11.4082736 151.489093,12.6480372 C151.029675,17.6437349 147.544598,19.5593631 144.902251,20.4978377 C144.480886,20.6484822 144.174377,20.6104818 143.982722,20.1225836 C143.791067,19.6333282 144.059522,19.4840408 144.442832,19.3333963 C146.357998,18.5822095 149.306164,16.216005 149.306164,11.5589181 L149.306164,11.5589181 Z M167,35.9348285 C167,36.2734394 166.770291,36.3854049 166.386981,36.4987276 C164.893179,36.9499825 163.246468,37.775813 162.097922,38.6403225 C159.914993,37.8518138 156.238262,35.4476089 153.787569,32.3675394 C150.034037,36.0108293 144.020776,38.489678 140.574446,38.9782548 C140.038227,39.053577 139.846572,38.9402544 139.73241,38.5276784 C139.616863,38.077102 139.769772,37.8884571 140.229882,37.775813 C143.17874,37.061948 148.233726,35.3722866 152.600277,30.6771994 C151.106475,28.4236389 149.842382,25.6821803 149.153255,22.6014322 L146.740616,22.6014322 C146.204397,22.6014322 146.012742,22.4887881 145.744979,22.1888562 C145.476524,21.8875672 145.323615,21.4376694 145.284869,21.0990586 C148.196364,21.399669 149.995291,21.5123131 152.676385,21.5123131 L156.813227,21.5123131 C157.195845,21.0610581 157.579155,20.6104818 158.038573,20.1972272 C159.033518,20.5724814 160.83383,21.7376013 160.83383,22.4134658 C160.83383,22.8647208 160.374411,23.1646527 159.531683,23.3152972 C158.612846,25.9814336 156.965444,28.8362149 154.936115,31.1277758 C157.999827,34.5830994 161.945014,36.0108293 166.425035,35.5222526 C166.770291,35.4849307 167,35.5975748 167,35.9348285 L167,35.9348285 Z M135.174204,33.8692344 L140.420845,33.8692344 L140.420845,27.2958408 L135.174204,27.2958408 L135.174204,33.8692344 Z M135.174204,34.9590321 L135.174204,37.513203 C135.174204,37.8884571 134.447022,38.3777125 133.527493,38.3777125 C132.915166,38.3777125 132.838366,38.0391016 132.838366,37.5878467 L132.838366,24.8549926 C133.680402,25.1929249 134.638677,25.756824 135.365859,26.2074003 L140.229882,26.2074003 C140.574446,25.756824 140.91901,25.3435694 141.225519,25.042959 C142.259211,25.5308572 143.791067,26.4700104 143.791067,27.0712312 C143.791067,27.5224862 143.485249,27.7477744 142.757375,27.9730626 L142.757375,35.560253 C142.757375,35.9348285 142.030194,36.4240839 141.110665,36.4240839 C140.498338,36.4240839 140.421537,36.085473 140.421537,35.6348967 L140.421537,34.9590321 L135.174204,34.9590321 Z M133.106129,22.376144 C132.87642,22.113534 132.723511,21.6249572 132.685457,21.3243467 C135.059349,21.6249572 137.012569,21.662279 139.041898,21.662279 C139.502008,20.9864145 139.923373,20.4605158 140.4589,19.8966168 C141.37912,20.3105499 143.17874,21.4743127 143.17874,22.0755336 C143.17874,22.5261099 142.834176,22.7520767 142.297957,22.7520767 L134.064404,22.7520767 C133.604294,22.7520767 133.375276,22.6767544 133.106129,22.376144 L133.106129,22.376144 Z M133.068075,17.3804463 C132.838366,17.1178363 132.685457,16.6665813 132.646711,16.3286491 C135.021987,16.5919377 137.204224,16.7039032 139.233553,16.7039032 C139.693663,16.1033609 140.114336,15.6154627 140.613192,15.0888855 C141.455229,15.4648182 143.216794,16.478615 143.216794,17.1178363 C143.216794,17.5684127 142.87223,17.7937009 142.336011,17.7937009 L134.064404,17.7937009 C133.527493,17.7937009 133.335838,17.6810568 133.068075,17.3804463 L133.068075,17.3804463 Z M132.915166,8.44084822 C132.685457,8.14023777 132.570602,7.76498366 132.49311,7.38972954 C135.21295,7.6896614 137.050624,7.76498366 139.387154,7.76498366 C139.807826,7.0891191 140.153774,6.63854272 140.651246,6.11264409 C141.570083,6.52522005 143.216794,7.50237363 143.216794,8.17823819 C143.216794,8.62881456 142.94903,8.85410275 142.412812,8.85410275 L133.910803,8.85410275 C133.412639,8.85410275 133.144875,8.74145866 132.915166,8.44084822 L132.915166,8.44084822 Z M144.634487,13.2112577 L132.417001,13.2112577 C131.957583,13.2112577 131.689128,13.0606132 131.46011,12.7980032 C131.190963,12.4980713 131.038054,12.0468164 131,11.7088841 C134.13982,12.0468164 138.467625,12.1221386 141.417174,12.1221386 C141.799792,11.4835959 142.259211,10.8450532 142.757375,10.3191545 C143.523303,10.6564082 145.476524,11.8222068 145.476524,12.5353931 C145.476524,12.9859695 145.170014,13.2112577 144.634487,13.2112577 L144.634487,13.2112577 Z" id="Fill-5" fill="#083782"></path>
                <g id="Group-9" transform="translate(172.000000, 5.000000)">
                    <mask id="mask-2" fill="white">
                        <use xlink:href="#path-1"></use>
                    </mask>
                    <g id="Clip-8"></g>
                    <path d="M34.3599804,13.5137694 C34.3599804,13.9616265 34.0937059,14.1845449 33.524098,14.1845449 L24.976549,14.1845449 L24.976549,32.0786265 C24.976549,32.4140143 24.331451,32.8241571 23.3054706,32.8241571 C22.6974314,32.8241571 22.5835098,32.4880959 22.5835098,32.0409122 L22.5835098,14.1845449 L16.0501765,14.1845449 C15.5183137,14.1845449 15.3282157,14.0734224 15.0626275,13.7750755 C14.7970392,13.4760551 14.6446863,13.0288714 14.6069412,12.6934837 C17.1893922,12.9918306 20.1911569,13.1036265 22.546451,13.1036265 L22.5835098,13.1036265 L22.5835098,0.987912245 C23.3816471,0.987912245 24.2552745,1.02562653 25.0149804,1.10038163 C26.2310588,1.21150408 26.6860588,1.50985102 26.6860588,1.99474898 C26.6860588,2.47897347 26.2688039,2.77799388 24.976549,2.8897898 L24.976549,13.1036265 L29.3069412,13.1036265 C29.9156667,12.2833408 30.4475294,11.5378102 31.0548824,10.8663612 C32.0046863,11.3142184 34.3599804,12.8052796 34.3599804,13.5137694 L34.3599804,13.5137694 Z M4.80556863,28.6109327 L11.1494902,28.6109327 L11.1494902,22.1995041 L4.80556863,22.1995041 L4.80556863,28.6109327 Z M14.4923333,21.9759122 C14.4923333,22.4230959 14.189,22.6466878 13.4670392,22.8709531 L13.4670392,31.7802796 C13.4670392,32.1520347 12.7450784,32.6376061 11.8330196,32.6376061 C11.2263529,32.6376061 11.1494902,32.3022184 11.1494902,31.8543612 L11.1494902,29.6925245 L4.8062549,29.6925245 L4.8062549,31.9668306 C4.8062549,32.3392592 4.08429412,32.8241571 3.17223529,32.8241571 C2.56488235,32.8241571 2.48870588,32.4880959 2.48870588,32.0409122 L2.48870588,19.8511163 C3.32458824,20.1865041 4.27439216,20.671402 4.99635294,21.1185857 L10.9600784,21.1185857 C11.3018431,20.671402 11.6436078,20.2605857 11.9476275,19.9622388 C12.9729216,20.4478102 14.4923333,21.3792184 14.4923333,21.9759122 L14.4923333,21.9759122 Z M2.75429412,17.1296265 C2.52645098,16.8683204 2.37547059,16.3840959 2.33635294,16.085749 C4.69233333,16.3840959 7.19860784,16.458851 9.6685098,16.458851 C10.1241961,15.7880755 10.6183137,15.0795857 11.1494902,14.5199327 C11.9853725,14.8930347 14.0366471,16.1234633 14.0366471,16.8683204 C14.0366471,17.3161776 13.6948824,17.5397694 13.1630196,17.5397694 L3.70478431,17.5020551 C3.24841176,17.5020551 3.02056863,17.4279735 2.75429412,17.1296265 L2.75429412,17.1296265 Z M2.71654902,12.3210551 C2.48870588,12.059749 2.33635294,11.6125653 2.29860784,11.2765041 C4.65390196,11.5755245 7.38870588,11.6873204 9.85792157,11.6873204 C10.2758627,11.0165449 10.7699804,10.3450959 11.264098,9.82315714 C12.0992941,10.1962592 14.0366471,11.4637286 14.0366471,12.0967898 C14.0366471,12.5446469 13.6948824,12.7682388 13.1630196,12.7682388 L3.70478431,12.7305245 C3.17223529,12.7305245 2.98282353,12.619402 2.71654902,12.3210551 L2.71654902,12.3210551 Z M2.71654902,3.26221837 C2.48870588,2.9645449 2.37547059,2.59076939 2.29860784,2.21901429 C4.99635294,2.51668776 7.12311765,2.59076939 9.28831373,2.59076939 C9.70694118,1.91999388 10.3142941,1.10038163 10.8077255,0.578442857 C11.7197843,0.987912245 13.7710588,2.3308102 13.7710588,3.00158571 C13.7710588,3.44876939 13.5047843,3.67236122 12.9729216,3.67236122 L3.70478431,3.67236122 C3.21066667,3.67236122 2.94439216,3.56056531 2.71654902,3.26221837 L2.71654902,3.26221837 Z M15.5183137,8.1455449 L1.91909804,8.1455449 C1.46341176,8.1455449 1.12096078,7.99670816 0.893117647,7.73607551 C0.626843137,7.4370551 0.475176471,6.98987143 0.437431373,6.65448367 C3.55243137,6.98987143 9.21213725,7.06462653 12.1377255,7.06462653 C12.5172353,6.43089184 13.0106667,5.68536122 13.5047843,5.16342245 C14.2644902,5.49948367 16.3535098,6.76627959 16.3535098,7.47476939 C16.3535098,7.92195306 16.0501765,8.1455449 15.5183137,8.1455449 L15.5183137,8.1455449 Z" id="Fill-7" fill="#083782" mask="url(#mask-2)"></path>
                </g>
                <g id="Group-12">
                    <mask id="mask-4" fill="white">
                        <use xlink:href="#path-3"></use>
                    </mask>
                    <g id="Clip-11"></g>
                    <path d="M21.8032862,42.4384225 C19.0522708,42.4384225 16.3818092,41.9008012 13.8663631,40.8403988 C11.4389169,39.8177716 9.25854769,38.3526355 7.38550154,36.486813 C5.51380923,34.6216651 4.04420923,32.448245 3.01664,30.0286118 C1.95319385,27.5233101 1.41368615,24.8628604 1.41368615,22.1194402 C1.41368615,19.3760201 1.95319385,16.7155704 3.01664,14.2109432 C4.04353231,11.7913101 5.51380923,9.6185645 7.38550154,7.75206746 C9.25787077,5.88624497 11.43824,4.42178343 13.8663631,3.39848166 C16.3804554,2.33875385 19.05024,1.8018071 21.8032862,1.8018071 C24.5556554,1.8018071 27.2261169,2.33875385 29.7395323,3.39848166 C32.1669785,4.42110888 34.3473477,5.88624497 36.2203938,7.75206746 C38.0927631,9.6185645 39.56304,11.7913101 40.5899323,14.2102686 C41.6533785,16.7155704 42.1928862,19.3760201 42.1928862,22.1194402 C42.1928862,24.8628604 41.6533785,27.5233101 40.5899323,30.0279373 C39.5623631,32.448245 38.0920862,34.6216651 36.2203938,36.486813 C34.3473477,38.3526355 32.1669785,39.8177716 29.7395323,40.8403988 C27.2247631,41.9008012 24.5543015,42.4384225 21.8032862,42.4384225 M41.8923323,13.6611799 C40.7936862,11.0735822 39.2211938,8.75108521 37.2202092,6.75574793 C35.2178708,4.76108521 32.8872246,3.19409112 30.2898708,2.09928639 C27.6011323,0.966706509 24.7458708,0.391984615 21.8032862,0.391984615 C18.8613785,0.391984615 16.0047631,0.966706509 13.3146708,2.09996095 C10.7173169,3.19544024 8.38599385,4.76175976 6.38636308,6.75574793 C4.38402462,8.75175976 2.81153231,11.0749314 1.71356308,13.6605053 C0.577009231,16.3398426 0.000270769231,19.1851207 0.000270769231,22.1194402 C0.000270769231,25.0544343 0.577009231,27.8997124 1.71356308,30.577026 C2.81153231,33.1632746 4.38402462,35.4871207 6.38636308,37.4831325 C8.38734769,39.4771207 10.7186708,41.0441148 13.3153477,42.1389195 C16.0040862,43.2714994 18.8600246,43.8462213 21.8032862,43.8462213 C24.7472246,43.8462213 27.6024862,43.2714994 30.2898708,42.1389195 C32.8865477,41.0441148 35.2178708,39.4771207 37.2202092,37.4831325 C39.2205169,35.4884698 40.7930092,33.1646237 41.8923323,30.577026 C43.0295631,27.8970142 43.6063015,25.0517361 43.6063015,22.1194402 C43.6063015,19.1878189 43.0295631,16.3425408 41.8923323,13.6611799" id="Fill-10" fill="#083782" mask="url(#mask-4)"></path>
                </g>
                <path d="M31.5021237,12.9013526 C31.4668398,12.9013526 31.4307718,12.9013526 31.3892152,12.8974317 C31.0167737,12.8676325 30.678048,12.6935428 30.4349809,12.4080983 C30.1919139,12.1226539 30.0743008,11.7603591 30.103312,11.3886539 C30.1621186,10.6656326 30.7744907,10.0994489 31.4982033,10.0994489 C31.5342713,10.0994489 31.5719075,10.0994489 31.61268,10.1033698 C31.9851215,10.1339531 32.3246313,10.3064745 32.5669143,10.5911347 C32.8099813,10.8765792 32.9268103,11.238874 32.897015,11.6113633 C32.8397766,12.3351689 32.2274045,12.9013526 31.5021237,12.9013526 M31.298261,13.9921581 C31.3656925,13.9984316 31.4346922,14 31.5021237,14 C32.1309617,14 32.7307885,13.766312 33.1918318,13.3412821 C33.6583638,12.9123312 33.9422034,12.3288954 33.9916009,11.6991924 C34.0457029,11.0349851 33.8371357,10.38803 33.4035354,9.87909202 C32.9715033,9.370154 32.3661879,9.06118393 31.6973615,9.00707496 C31.0050124,8.95531855 30.3212883,9.18900658 29.8100634,9.65951938 C29.3443155,10.0861177 29.0589077,10.6695535 29.0079421,11.3016091 C28.9554082,11.9666005 29.1647595,12.6127714 29.5983598,13.1209252 C30.0319601,13.6298633 30.6372755,13.9388333 31.298261,13.9921581" id="Fill-13" fill="#083782"></path>
                <path d="M5.81975587,28.5130695 C6.65882689,26.7032519 7.77623052,25.318521 9.23510076,24.2828162 C10.9485435,23.0658454 12.7936851,22.3720583 14.5784082,21.7010183 C14.9103707,21.5773308 15.2382601,21.4536434 15.5620764,21.3285342 C17.1994868,20.6930366 18.74593,20.0923705 19.9027075,19.2770284 C20.5483034,18.8199535 21.0268997,18.3308905 21.3663298,17.7814054 C21.7519223,17.1615464 21.956938,16.4798437 21.9922387,15.7028874 C22.0051371,15.5294406 22.0193931,15.0581487 21.8788691,14.4304704 C21.6066462,13.2177647 20.9637658,12.3427114 20.4715922,11.8216603 C19.4607696,10.7553891 18.003936,9.97985448 16.1418229,9.51780364 C14.2729212,9.05219855 11.9471466,8.89936634 9.26361288,9.06428296 L9.2106618,9.06783719 L9.20794636,9.06996973 C8.8963496,9.10266872 8.40485493,9.2057416 8.25211142,9.53486397 C8.16725391,9.71826262 8.20323349,9.84550431 8.24803825,9.9201433 C8.33153804,10.0601802 8.53519605,10.1177589 8.76057759,10.0999877 L8.84475623,10.0914575 C11.6294401,9.88389008 14.0197064,10.0168186 15.9055796,10.4831345 C17.5945834,10.9011128 18.8993524,11.5828155 19.7825493,12.5111823 C20.3724787,13.1296196 20.763502,13.8418887 20.9454365,14.628086 C21.0723834,15.1775711 21.0465867,15.5728023 21.0411558,15.6445979 C20.9909202,16.7883515 20.4600516,17.6797542 19.3704812,18.4503128 C18.3148539,19.195281 16.8254349,19.7732 15.2314715,20.3923481 L14.5974163,20.6361688 C11.2492785,21.921381 7.45445086,23.3786183 5.28209872,27.4354247 L5.24747686,27.5008227 L5.24883458,27.5057986 C5.13342837,27.7531736 4.89854279,28.3275383 5.04857086,28.6438654 C5.10220081,28.757601 5.19927779,28.8329508 5.3214726,28.8549871 C5.3384441,28.8585414 5.35609446,28.8599631 5.37306597,28.8599631 C5.43348451,28.8599631 5.49118761,28.8372159 5.54617528,28.8066495 L5.59369548,29 L5.81975587,28.5130695 Z" id="Fill-15" fill="#083782"></path>
                <path d="M3.72658824,21.8087581 C3.86273412,21.657677 4.00460576,21.5123332 4.15411175,21.3689018 C5.68416242,19.9046264 7.61628878,19.0669869 9.34992208,18.3154063 C10.3818315,17.8653504 11.2737779,17.4777668 11.9258785,17.0098617 C12.74339,16.424024 13.0888442,15.7616896 12.980691,14.9693108 C12.9635137,14.869865 12.8432727,14.3471371 12.1326421,13.8588329 C11.4703624,13.4036772 10.5071621,13.1263764 9.27039762,13.0339429 C8.17296003,12.9529838 6.83758524,13.0167311 5.32407566,13.2264597 C5.08359368,13.2532335 4.66879408,13.4011273 4.64080147,13.784886 C4.62998614,13.9187553 4.6808818,14.0035392 4.7247793,14.0513497 C4.77376637,14.1042599 4.86665094,14.1673698 5.03269802,14.1673698 L5.08868324,14.1654574 C5.13512553,14.1616325 5.17266108,14.1546203 5.18665738,14.1514329 C7.72507825,13.7797862 9.70555548,13.8154847 10.9435923,14.2578909 C11.9583245,14.621888 12.0989237,15.1146546 12.1001961,15.1146546 C12.1555451,15.5455863 11.9481453,15.8949215 11.407379,16.282505 C10.8176256,16.7032372 9.91740865,17.0933706 8.96502368,17.5058156 C7.27846886,18.2389096 5.17965923,19.1517708 3.5389105,20.7205918 L3.49183202,20.7671273 C3.44220876,20.8143003 3.00514231,21.2420447 3.00005274,21.657677 C2.99814415,21.7864466 3.04840362,21.8654932 3.09102873,21.9088414 C3.14955873,21.9681264 3.22971939,22 3.32196777,22 C3.46256702,22 3.62161595,21.9247782 3.72658824,21.8087581" id="Fill-17" fill="#083782"></path>
                <path d="M3.80789167,26.648465 C4.28540605,25.7852282 4.9338992,24.9871675 5.73497896,24.2771638 C7.47814488,22.7344314 9.73015993,21.7658034 11.7226415,20.9081134 C13.1551846,20.2924072 14.5080285,19.7099823 15.4678256,18.9944318 C16.013459,18.5874278 16.4003751,18.1651698 16.6517343,17.7026967 C16.9357907,17.1812878 17.0468247,16.6016364 16.9821116,15.999104 C16.9793869,15.8209097 16.9187609,14.8862565 15.9541955,13.968244 C15.1578841,13.2124785 13.9617139,12.6647218 12.3983822,12.3416146 C10.8050782,12.0150407 8.79284211,11.9221301 6.47883874,12.0649628 C6.39437115,12.069123 5.64710541,12.114885 5.56876853,12.6217333 C5.54969521,12.7506988 5.57353686,12.8560899 5.6409747,12.93652 C5.7111373,13.0204169 5.81059108,13.0516183 5.90118939,13.0627121 L5.90118939,13.0814329 L6.10554647,13.0668722 C8.51423529,12.888678 10.5707487,12.9642545 12.1701835,13.288055 C13.5584493,13.5695604 14.6040764,14.0299533 15.2777735,14.6574468 C16.0182274,15.3473429 16.0270828,15.9831567 16.0264017,16.0129713 L16.0291264,16.0719071 C16.2341647,17.9107056 14.0788787,18.8377318 11.3479868,20.0136753 C9.29419816,20.8970196 6.96725217,21.8975423 5.10760272,23.5428925 C4.43663029,24.1364112 3.8617057,24.7888657 3.39032203,25.4898556 C3.3501318,25.5564184 3,26.1547906 3,26.5534743 C3,26.8828217 3.18324018,27 3.33923276,27 C3.51021152,27 3.69413289,26.8613274 3.80789167,26.648465" id="Fill-19" fill="#083782"></path>
                <path d="M5.42980021,30.8040793 C5.42980021,30.8040793 5.42980021,30.8040793 5.43049528,30.8040793 L5.43049528,30.8108586 L5.42980021,30.8040793 Z M9.25126643,26.3853568 C11.306573,24.961034 13.8783127,24.1515902 16.3742904,23.3651959 C18.4984084,22.6974386 20.5050604,22.0662894 22.0682611,21.0893978 C22.9322267,20.5511245 23.5835024,19.9538715 24.0603168,19.2630648 C24.5955167,18.4888732 24.8957847,17.6231615 24.9784974,16.6232204 C24.9930938,16.498482 25.0563447,15.8280131 24.8624216,14.8917971 C24.6726689,13.9786306 24.1868186,12.6275238 22.9509934,11.3814956 C21.7200337,10.1368232 19.9788964,9.22230082 17.775541,8.66097798 C16.0434396,8.22235977 13.999254,8 11.6978945,8 C11.3719091,8 11.0410583,8.00474548 10.7095124,8.0128806 C10.4669347,8.0128806 9.66413491,8.04542105 9.52234169,8.46031185 C9.47924768,8.58640611 9.49314897,8.71182244 9.56196039,8.81283344 C9.63216193,8.91520028 9.75240814,8.98231497 9.8775198,8.99112801 L9.9150533,8.99383971 L9.99290056,8.99248386 L9.99707094,8.98909423 C12.9253789,8.86096619 15.4623654,9.06027648 17.517672,9.58024582 C19.5437858,10.092758 21.1327039,10.9177941 22.2399422,12.0316267 C23.3124271,13.1095293 23.7350265,14.2714947 23.9018421,15.0558552 C24.072828,15.8612315 24.0165278,16.4503493 24.0074919,16.53509 C23.8768197,18.1268606 23.0941768,19.3193327 21.5434872,20.2880891 C20.0887166,21.197866 18.1383648,21.8107112 16.0573408,22.4655879 C13.5029777,23.2702862 10.8617315,24.1027795 8.68687382,25.6098093 C7.07223831,26.7270316 5.92955179,28.0740708 5.19208805,29.7282106 C5.09408392,29.9546379 4.80632709,30.7112035 5.20598935,30.9369529 C5.28036128,30.9789843 5.35542828,31 5.43049528,31 C5.6550012,31 5.80165987,30.8189937 5.85935025,30.6630707 C6.07343021,30.0800542 6.3479808,29.5214431 6.67674644,29.0041855 C7.31620605,27.998821 8.15862458,27.1426003 9.25126643,26.3853568 L9.25126643,26.3853568 Z" id="Fill-21" fill="#083782"></path>
                <path d="M7.43647831,33.795197 C7.43717148,33.795197 7.43786464,33.795197 7.43786464,33.795197 L7.43786464,33.8069593 L7.43647831,33.795197 Z M12.1125725,27.7590431 C14.1775123,26.4437372 16.6819191,25.8196415 19.1052255,25.2149191 C21.5396226,24.6081209 23.8395456,24.0345341 25.6494006,22.8112512 C26.6447862,22.1380305 27.3954843,21.3326564 27.9444714,20.3487716 C28.5489117,19.264561 28.8913354,17.9963045 28.990458,16.4678928 C29.002935,16.2803873 29.0486839,15.2785131 28.7284415,13.9466015 C28.5267304,13.1045567 28.2210444,12.3067936 27.8190084,11.575453 C27.3150772,10.6524556 26.6593426,9.82770835 25.8698272,9.12266011 C24.281092,7.70426081 22.1454492,6.75704684 19.5232043,6.30731048 C18.0023993,6.04646339 16.2888943,5.9516728 14.4215066,6.02293872 C13.7768627,6.0513067 12.6788886,6.16270294 12.5645163,6.58960653 C12.5215401,6.72729505 12.534017,6.8435346 12.6005609,6.93417378 C12.7086947,7.08085702 12.9076332,7.08085702 12.9727908,7.08085702 L13.0185397,7.07947322 L13.0185397,7.08016512 L13.1024127,7.073938 C15.4321418,6.88920014 17.5421374,6.95285513 19.3492198,7.26282727 C21.792628,7.68142804 23.76607,8.54907327 25.2140927,9.84085449 C25.9211214,10.4704854 26.5068462,11.2039016 26.9560174,12.0224218 C27.3171566,12.6776531 27.5937297,13.3937718 27.7774185,14.1493288 C28.0879566,15.4231206 28.0207196,16.388324 28.0200264,16.4049297 C27.8515872,18.9954111 26.924825,20.7763671 25.1031862,22.0079529 C23.4354301,23.1364452 21.2179938,23.6885831 18.8709356,24.2725484 C16.3734605,24.8945684 13.7914192,25.5387293 11.5899257,26.9405229 C9.42378366,28.3201757 7.95912506,30.2436635 7.11277005,32.8189231 C7.07603228,32.9261679 6.90204775,33.4776139 7.07603228,33.7862023 C7.13564451,33.8934471 7.23130134,33.9640211 7.34983263,33.9903134 L7.43786464,34 C7.70057435,34 7.8461391,33.74538 7.89119485,33.5931616 C8.25233405,32.3283645 8.75418584,31.2503811 9.42517,30.2983238 C10.1363577,29.2888386 11.0152915,28.4585561 12.1125725,27.7590431 L12.1125725,27.7590431 Z" id="Fill-23" fill="#083782"></path>
                <path d="M35.546164,36 C35.2754914,36 34.9790405,36.183223 34.796557,36.3245033 C34.4607602,36.5239146 34.1175012,36.7064018 33.7749207,36.8668138 C31.5071052,37.9323032 29.306449,38.0559235 27.8486161,38.0559235 C27.1254658,38.0559235 26.4470884,38.0228109 25.772103,37.9896983 C25.2232957,37.9639441 24.7056938,37.9389257 24.2328647,37.9389257 C23.7396844,37.9389257 23.3523309,37.9654157 23.014499,38.0228109 C22.0783382,38.1839588 21.4942553,38.5930831 21.1869504,39.2921266 C21.0126074,39.5908756 20.8952481,40.1582046 21.1374288,40.7748344 C21.2201909,40.9845475 21.3375502,41.1898455 21.493577,41.3944077 C21.5804093,41.4952171 22.0322086,42 22.4290593,42 C22.5810159,42 22.7085508,41.9308315 22.7994534,41.799117 C22.8564371,41.7174393 22.8781451,41.6203091 22.8618641,41.5194996 C22.8259101,41.2935982 22.6020456,41.1214128 22.5728753,41.1015453 C22.234365,40.7983812 22.0858004,40.5481972 22.0213545,40.3899926 C21.8809304,40.0529801 21.9915059,39.8469463 21.9996465,39.8337013 L22.0288167,39.7718911 C22.2784596,39.1905813 22.8801803,38.9742458 24.2491458,38.9742458 C24.6677046,38.9742458 25.130358,38.9926416 25.7422544,39.0213392 C26.3724669,39.0529801 27.0874767,39.0875644 27.8343701,39.0875644 L27.8343701,39.0875644 C28.47408,39.0875644 29.0588413,39.0618102 29.6225729,39.0103017 C30.9203087,38.8910964 32.0939016,38.6291391 33.2030486,38.214128 C34.0449149,37.9264165 36.0020335,37.1861663 35.9999984,36.5047829 C35.9999984,36.1979397 35.8215852,36 35.546164,36" id="Fill-25" fill="#083782"></path>
                <path d="M19.8450453,36.6895459 C21.0190514,36.313622 22.5902879,36.1847941 24.4091131,36.0362548 C26.0354448,35.9024991 27.8780766,35.75044 29.7207085,35.3808518 C31.8422177,34.9528335 33.6052674,34.3023583 35.1125661,33.3914115 C35.9981721,32.8563886 36.8082771,32.217881 37.5183944,31.4970081 C37.5537642,31.4618092 37.5877737,31.4252024 37.6136208,31.3977473 C38.146889,30.907075 39.3399403,29.7082013 38.9073402,29.1830341 C38.7821854,29.031679 38.6502288,29 38.5631646,29 C38.2958503,29 38.1094786,29.2689194 37.9856842,29.4477297 L37.9401115,29.5124956 C37.0340999,30.750088 35.9512391,31.7405843 34.6303122,32.5388948 C33.2175598,33.3935234 31.5510969,34.0052798 29.5377376,34.4107709 C27.7610841,34.7676874 25.9408985,34.9176346 24.3268102,35.0513904 C22.4501689,35.2069694 20.8292787,35.3407251 19.5620867,35.7462161 C18.8472082,35.9736008 18.3003363,36.2734952 17.8901823,36.6627948 C17.4215322,37.1055966 17.1310915,37.6701866 17.028383,38.3368532 C17.0004952,38.4959521 16.8903046,39.3421331 17.4256133,40.3924674 C17.4548614,40.4551214 17.7255766,41 18.1819834,41 C18.2479617,41 18.3146202,40.9873284 18.3792382,40.9640971 C18.4887486,40.9246744 18.5662901,40.844421 18.5962184,40.7409363 C18.6533543,40.5410067 18.5105146,40.3347413 18.486708,40.3030623 C17.8357672,39.3294615 17.9602418,38.5501584 17.9690842,38.500176 C18.1044418,37.6187962 18.6832826,37.0605421 19.8450453,36.6895459" id="Fill-27" fill="#083782"></path>
                <path d="M19.0914978,33.6276703 C20.6507092,33.1320727 22.6782474,32.9664405 24.824804,32.7910652 C28.3601433,32.5007217 32.3659222,32.1720554 35.723086,30.3078811 C38.176696,28.9445006 39.9563379,26.9575635 41.1627197,24.2405456 C41.3585014,23.8371824 42.3155783,21.7982823 41.893732,21.1974596 C41.8042922,21.0695006 41.6599208,21 41.483858,21 C41.1225774,21.0006495 41.0549693,21.3630918 40.9831357,21.7476184 C40.9556699,21.8963626 40.9246829,22.0626443 40.8767938,22.2269775 L40.8514408,22.3042725 C39.7640775,25.6610855 37.9189402,28.0234555 35.2132084,29.5264867 C32.0497136,31.2828378 28.1650658,31.601761 24.7374769,31.8836605 C22.528242,32.0642321 20.4415467,32.2344111 18.7703594,32.7663828 C17.8421568,33.0619226 17.1097359,33.443851 16.5308417,33.9362009 C15.8765926,34.4902569 15.4300976,35.165127 15.1667077,35.9939376 C15.136425,36.0803262 14.985011,36.5453955 15.0012088,37.2079244 C15.0124768,37.5924509 15.0772679,37.969183 15.189948,38.3121391 C15.2462881,38.5674076 15.4674229,39 15.9378624,39 C15.9716665,39 16.0061748,38.9987009 16.0427958,38.9941542 C16.1456164,38.9792148 16.2308308,38.9266022 16.2801284,38.846709 C16.3864702,38.6732823 16.2871709,38.4407477 16.2744943,38.4141166 C16.0998401,38.036735 16.0047663,37.6320727 15.9913855,37.2111721 C15.9744835,36.7253176 16.0751914,36.3732679 16.1125166,36.2589492 C16.5160524,34.9819573 17.4625655,34.1466513 19.0914978,33.6276703" id="Fill-29" fill="#083782"></path>
                <path d="M12.5783654,38.8048492 L12.5783654,38.8048492 L12.5783654,38.8089576 L12.5783654,38.8048492 Z M24.3780654,30.8550219 C28.0240874,30.4496561 31.7946998,30.0312802 34.9416598,28.0475894 C36.6642284,26.9615923 38.0060261,25.5304865 39.0440469,23.6734726 C39.6040042,22.6716985 40.0771681,21.5302375 40.4488398,20.2819571 C40.5762301,19.8574185 40.695221,19.4034361 40.8016129,18.9391827 C40.8898061,18.620094 41.1557859,17.5491612 40.8737074,17.1636528 C40.8016129,17.0650503 40.7001206,17.0089016 40.5461324,17 C40.340348,17 40.1828601,17.1253074 40.1191649,17.349902 C40.1086657,17.39441 40.105166,17.4272775 40.1065659,17.4272775 C40.1065659,17.4272775 40.1065659,17.4265928 40.1072658,17.4259081 C39.7082963,19.6944505 39.0601457,21.64185 38.1824126,23.2126428 C37.2227858,24.9272309 35.98808,26.2439852 34.4090004,27.2389119 C31.4559256,29.1014037 27.8015043,29.5074543 24.2604744,29.9004949 C19.8256126,30.3935074 15.6364321,30.8591304 13.3896035,34.1691618 C13.3259084,34.2527001 12.7645512,35.0113916 12.3725811,36.1329951 C12.1387989,36.798562 12.0149083,37.4607053 12.0051091,38.0865573 C11.9785111,38.3755174 12.045006,38.8904417 12.4628742,38.9869899 C12.5027711,38.9958916 12.5412682,39 12.5783654,39 L12.5783654,39 C12.6896569,39 12.7869495,38.9596004 12.8597439,38.88154 C13.0074326,38.7219957 12.9913339,38.4665878 12.9871342,38.4234492 C12.9528368,37.8099225 13.0571289,37.1491487 13.2958106,36.4616701 C13.6282853,35.5016652 14.1259473,34.8128171 14.1973419,34.7148993 C15.1023729,33.3803417 16.4287717,32.4778549 18.3704236,31.875284 C20.1503879,31.3240686 22.2040312,31.0960503 24.3780654,30.8550219 L24.3780654,30.8550219 Z" id="Fill-31" fill="#083782"></path>
                <path d="M15.6757518,29.6014423 C16.8219439,29.1060701 18.0060666,28.5936631 23.4832373,28.0069843 C30.3238387,27.2744875 37.3982302,26.5174607 38.9189002,14.6816762 C38.9671755,14.4091193 39.1057944,13.4912839 38.8506253,13.1526319 C38.7864882,13.0667764 38.6989031,13.0149906 38.5982147,13.003407 L38.5444223,13 C38.2285643,13 38.0761525,13.316166 38.0658078,13.6180228 C37.7975354,16.3626711 37.2451287,18.58401 36.3782434,20.4080972 C35.5513575,22.1456476 34.4548199,23.4695929 33.0272521,24.4555675 C31.8286469,25.2841406 30.3610796,25.8878542 28.5424824,26.3028221 C26.8942278,26.679632 25.1080439,26.8711033 23.3777214,27.056442 C20.6156881,27.3521663 17.7591732,27.6581114 15.2881706,28.7251718 C13.934395,29.309125 12.8102716,30.0641077 11.8530425,31.0337289 C10.7785736,32.1185055 9.94065342,33.4363182 9.29031698,35.0696156 C9.26755865,35.1295781 9.14893949,35.4518767 9.04411326,35.9601953 C9.02342387,36.0467322 8.8523916,36.8221566 9.36135055,36.980921 C9.40203968,36.9938675 9.44341845,37 9.48410758,37 C9.7778969,37 9.90134358,36.6824712 9.92755014,36.4991767 C10.023411,35.914542 10.1565127,35.5152462 10.193064,35.4116745 C10.7937459,33.9071603 11.5627015,32.6936006 12.5447578,31.7014934 C13.4164706,30.8211345 14.4405954,30.1336097 15.6757518,29.6014423" id="Fill-33" fill="#083782"></path>
            </g>
        </g>
    </g>
</svg>