<?xml version="1.0" encoding="utf-8"?>
<!-- Generator: Adobe Illustrator 15.0.0, SVG Export Plug-In . SVG Version: 6.00 Build 0)  -->
<!DOCTYPE svg PUBLIC "-//W3C//DTD SVG 1.1//EN" "http://www.w3.org/Graphics/SVG/1.1/DTD/svg11.dtd">
<svg version="1.1" id="圖層_1" xmlns="http://www.w3.org/2000/svg" xmlns:xlink="http://www.w3.org/1999/xlink" x="0px" y="0px"
	 width="841.89px" height="595.28px" viewBox="0 0 841.89 595.28" enable-background="new 0 0 841.89 595.28" xml:space="preserve">
<g>
	<path fill="#040000" d="M347.847,304.815h1.125l4.652,16.681h0.049l4.727-16.681h1.376l4.801,16.681h0.05l4.577-16.681h1.175
		l-5.126,17.855h-1.25l-4.902-16.904h-0.049l-4.826,16.904h-1.225L347.847,304.815z"/>
	<path fill="#040000" d="M370.316,316.368c-0.075,3.026,1.55,5.778,4.727,5.778c2.426,0,4.125-1.428,4.602-3.827h0.95
		c-0.5,3.026-2.476,4.652-5.551,4.652c-3.726,0-5.751-2.951-5.676-6.503c-0.075-3.525,1.8-6.952,5.676-6.952
		c4,0,5.852,3.151,5.651,6.852H370.316z M379.743,315.543c-0.074-2.699-1.774-5.201-4.701-5.201c-2.851,0-4.526,2.651-4.727,5.201
		H379.743z"/>
	<path fill="#040000" d="M389.504,304.815l7.052,17.855h-1.176l-2.25-5.728h-8.552l-2.275,5.728h-1.176l7.177-17.855H389.504z
		 M392.78,315.992l-3.827-10.101h-0.049l-3.976,10.101H392.78z"/>
	<path fill="#040000" d="M399.05,312.668h0.076c0.475-1.7,2.599-3.001,4.925-2.926v0.95c-1-0.125-2.376,0.125-3.55,1.25
		c-0.926,1.001-1.375,1.775-1.451,3.702v7.026h-0.95v-12.854h0.95V312.668z"/>
	<path fill="#040000" d="M404.983,316.368c-0.075,3.026,1.55,5.778,4.727,5.778c2.425,0,4.126-1.428,4.601-3.827h0.95
		c-0.5,3.026-2.475,4.652-5.551,4.652c-3.727,0-5.751-2.951-5.676-6.503c-0.075-3.525,1.8-6.952,5.676-6.952
		c4.001,0,5.852,3.151,5.651,6.852H404.983z M414.411,315.543c-0.075-2.699-1.775-5.201-4.701-5.201
		c-2.851,0-4.526,2.651-4.727,5.201H414.411z"/>
	<path fill="#040000" d="M428.972,309.917c-0.125-3.051-2.426-4.576-5.728-4.576c-2.024,0-4.9,0.851-4.9,3.801
		c0,2.876,3.05,3.377,6.077,3.977c3.051,0.6,6.101,1.45,6.101,4.951c0,3.701-3.551,5.026-6.275,5.026
		c-4.177,0-7.604-1.726-7.528-6.327h1.1c-0.2,3.901,2.876,5.378,6.428,5.378c2.124,0,5.176-0.977,5.176-4.077
		c0-3.001-3.052-3.575-6.103-4.177c-3.025-0.6-6.076-1.374-6.076-4.751c0-3.425,3.176-4.751,6-4.751
		c3.727,0,6.627,1.602,6.828,5.526H428.972z"/>
	<path fill="#040000" d="M432.962,304.815v7.752h0.05c0.676-1.925,2.575-3.051,4.602-3.051c4.525,0,4.575,3.627,4.575,5.202v7.952
		h-0.95v-8.128c0-1.3-0.149-4.201-3.65-4.201c-2.901,0-4.626,2.251-4.626,5.378v6.951h-0.949v-17.855H432.962z"/>
	<path fill="#040000" d="M454.023,320.294c0,0.726-0.024,1.552,0.85,1.552c0.177,0,0.401-0.024,0.701-0.075v0.801
		c-0.274,0.075-0.5,0.1-0.774,0.1c-1.502,0-1.726-0.825-1.726-1.878v-0.673h-0.05c-0.602,1.524-2.302,2.852-4.778,2.852
		c-2.425,0-4.299-0.927-4.299-3.628c0-3.024,2.6-3.6,4.727-3.801c4.25-0.274,4.425-0.6,4.425-2.676c0-0.574-0.65-2.525-3.576-2.525
		c-2.301,0-3.825,1.201-3.951,3.428h-0.949c0.124-2.827,1.874-4.253,4.9-4.253c2.252,0,4.501,0.676,4.501,3.351V320.294z
		 M453.074,315.368c-0.726,0.876-2.801,0.727-4.651,1c-2.275,0.275-3.526,1.051-3.526,2.976c0,1.576,1.1,2.803,3.376,2.803
		c4.326,0,4.802-3.702,4.802-4.377V315.368z"/>
	<path fill="#040000" d="M458.149,312.668h0.073c0.475-1.7,2.601-3.001,4.927-2.926v0.95c-1.001-0.125-2.375,0.125-3.551,1.25
		c-0.926,1.001-1.376,1.775-1.449,3.702v7.026h-0.951v-12.854h0.951V312.668z"/>
	<path fill="#040000" d="M465.137,322.671v-12.933h0.95v12.933H465.137z"/>
	<path fill="#040000" d="M469.089,309.817h0.951v2.75h0.049c0.676-1.926,2.577-3.051,4.602-3.051c4.526,0,4.576,3.627,4.576,5.202
		v7.952h-0.95v-8.128c0-1.3-0.148-4.201-3.65-4.201c-2.9,0-4.626,2.251-4.626,5.378v6.951h-0.951V309.817z"/>
	<path fill="#040000" d="M492.252,309.817v12.178c0,1.001,0,5.777-5.552,5.576c-2.726,0-4.9-1.024-5.025-4h0.95
		c0.2,2.276,2.001,3.176,4.102,3.176c4.501,0,4.576-3.677,4.576-4.526v-2.951h-0.05c-0.9,1.9-2.451,2.927-4.651,2.927
		c-3.776,0-5.553-2.776-5.553-6.353c0-3.401,1.951-6.327,5.553-6.327c2.026,0,3.926,1.076,4.651,2.977h0.05v-2.676H492.252z
		 M482,315.844c0,3.025,1.574,5.526,4.602,5.526c3.125,0,4.676-2.626,4.676-5.526s-1.551-5.502-4.676-5.502
		C483.499,310.342,482,313.118,482,315.844z"/>
	<circle fill="#040000" cx="465.612" cy="307.06" r="0.697"/>
</g>
<path fill="#DE2526" d="M420.587,287.279c-3.711,0-6.718,3.005-6.718,6.717c0,3.707,3.006,6.719,6.718,6.719
	c3.708,0,6.714-3.012,6.714-6.719C427.302,290.284,424.295,287.279,420.587,287.279z M420.587,298.645
	c-2.568,0-4.651-2.082-4.651-4.649s2.083-4.651,4.651-4.651s4.65,2.084,4.65,4.651C425.237,296.563,423.155,298.645,420.587,298.645
	z"/>
<path fill="#DE2526" d="M420.574,285.248c3.688,0,6.681-2.989,6.681-6.678c0-3.691-2.993-6.679-6.681-6.679
	c-3.687,0-6.68,2.988-6.68,6.679C413.894,282.259,416.887,285.248,420.574,285.248z"/>
<polygon fill="#DE2526" points="426.606,272.309 427.158,272.309 427.158,273.697 427.532,273.697 427.532,272.309 428.08,272.309 
	428.08,272.025 426.606,272.025 "/>
<polygon fill="#DE2526" points="429.404,273.165 429.066,272.025 428.507,272.025 428.507,273.697 428.854,273.697 428.855,272.38 
	429.223,273.697 429.583,273.697 429.951,272.38 429.952,273.697 430.301,273.697 430.301,272.025 429.738,272.025 "/>
<path fill="#040000" d="M366.514,272.016c0,0,1.297-1.551,1.299-1.56c-0.028-0.01-3.849-1.18-3.849-1.18s1.105,3.02,1.595,4.314
	c1.479,4.013,3.627,7.711,7.184,10.353c0.88,0.669,1.69,1.513,2.746,1.831l3.417-2.042
	C373.17,282.5,367.821,277.715,366.514,272.016z"/>
<path fill="#040000" d="M352.425,282.462c2.605-2.993,4.014-6.232,6.163-9.472l1.62-0.845l-3.381-2.289
	c-0.106,0.388-0.528,1.831-0.739,2.571c-2.427,5.63-5.242,10.766-10.234,15.06l0.362,0.367l0.115-0.073l0.027-0.017
	C346.358,287.763,350.6,284.568,352.425,282.462z"/>
<path fill="#040000" d="M367.026,284.025h-13.872l-1.092-0.002l0.002,0.002l1.019,0.912l0.316,0.283l0.759-0.273h3.569
	c-0.145,2.731-0.67,5.357-1.441,7.809c-1.479,4.577-5.916,7.359-9.966,9.26l0.417,0.351c0.002,0,0.004,0.002,0.005,0.002
	c2.114-0.951,4.262-1.76,6.304-2.888c4.243-2.383,5.658-7.35,6.572-11.911c-0.083,0.425,0.46-1.715,0.639-2.623h7.395
	c-0.082,1.246-0.592,8.71-1.365,12.351c-0.423,0.88-1.338,0.845-2.219,0.845c-1.444-0.035-2.993-0.563-3.874-0.563l-0.21,0.282
	c1.69,0.633,4.119,1.513,4.225,3.733c0.74-0.106,1.338-0.459,2.007-0.775c2.536-1.162,2.536-4.084,2.782-6.515l0.81-8.486
	l1.196-1.127l-2.675-1.938L367.026,284.025z"/>
<polygon fill="#DE2526" points="462.923,274.23 460.561,271.785 460.561,274.23 "/>
<path fill="#040000" d="M451.372,290.913c-0.671-0.846-1.375-1.655-1.586-2.571h5.916v2.135l2.042-0.95l0.003-9.294l0.977-0.734
	c-0.016-0.053-2.353-1.825-2.353-1.825l-1.269,1.337h-6.655v-4.779h12.113v-2.446l-1.492,1.514h-10.621v-1.297
	c0.211-0.739,1.375-0.845,0.952-1.338l-2.995-1.407v4.042h-14.296l0.919,0.932h13.377v4.779h-6.091l-2.96-1.407l0.001,13.586
	l2.042-0.95l-0.001-1.897h4.896c-2.536,5.423-8.171,9.719-13.239,12.395v0.141c0.139,0.071,0.281,0.177,0.493,0.141
	c5.632-2.111,11.268-6.126,14.858-11.479l0.001,12.346l2.042-0.944v-12.599h0.423c0.952,2.253,1.831,4.472,3.768,6.304
	c2.465,2.358,5.39,3.661,8.348,4.824l2.993-2.395C459.328,296.194,454.54,294.998,451.372,290.913z M446.404,287.427h-7.009v-3.452
	h7.009V287.427z M446.404,283.061h-7.009v-3.17h7.009V283.061z M455.702,279.888v0.001v3.171h-7.255v-3.171v-0.001H455.702z
	 M448.447,287.427v-3.452h7.255v3.452H448.447z"/>
<polygon fill="#DE2526" points="464.761,274.232 467.148,274.232 467.148,271.784 "/>
<path fill="#040000" d="M483.08,290.105c0,0,0.002,0.021,0.004,0.049v-0.631l-0.004-0.013V290.105z"/>
<path fill="#040000" d="M404.004,282.653v-4.841l1.054-0.793c-0.012-0.048-2.213-1.848-2.213-1.848l-1.577,1.327h-13.16l-2.508-1.11
	l-0.003,9.082l2.095-0.967v-1.416h14.217v1.531L404.004,282.653z M387.692,281.191v-3.797h14.222v3.797H387.692z"/>
<path fill="#040000" d="M407.319,271.278l-1.5,1.499h-9.838l0.069-0.045c0.92-0.803,0.059-2.32,0.059-2.32
	c-0.516-0.926-3.553-1.853-3.553-1.853l-0.168,0.228l1.054,1.396c0.513,0.652,0.975,2.137,1.109,2.594h-14.505l0.967,0.965h28.701
	L407.319,271.278z"/>
<path fill="#040000" d="M495.076,274.232l0.777-0.952h-27.202l-1.503-1.502v0.005v2.448h8.955h0.044v5.158h-4.72l-2.5-1.163v23.662
	l2.043-0.949v-3.169h19.854v3.761l2.043-0.949l-0.003-19.665l1.131-0.852c-0.022-0.079-2.073-2.085-2.073-2.085l-1.655,1.373h-5.177
	l-0.002-5.089v-0.032H495.076z M478.189,274.26v-0.028h4.895v0.028v5.094h-4.895V274.26z M470.971,280.277h5.177
	c-0.141,4.33,0.244,9.185-3.628,11.824l-1.549,1.057V280.277z M485.091,288.721v-8.479v-0.007h5.741v10.605v0.008l-1.44-1.673
	l-0.109-0.128c-0.246,0.247-0.563,0.634-1.163,0.774h-1.583c-0.739,0-1.445-0.104-1.445-1.091V288.721z M488.226,291.468
	c0.773,0,1.338,0,2.289-0.282l0.311-0.144l0.007-0.003v0.008l-0.007,0.003v5.848h-19.854v-2.825
	c2.782-1.267,6.269-4.226,6.691-7.431c0.281-2.077,0.527-4.226,0.527-6.409h4.895v0.007v9.282v0.631
	c0.009,0.096,0.041,0.332,0.167,0.526c0.018,0.024,0.037,0.047,0.055,0.07c0.338,0.419,0.825,0.661,1.364,0.717H488.226z"/>
<path fill="#040000" d="M410.735,293.366l-2.148-2.519l-1.549,1.584h-10.917v-1.219c-0.07-0.396,1.55-0.647,1.092-1.08l-0.492-0.215
	c3.274-1.439,5-2.088,7.888-2.988c0.054-0.01,2.3-0.428,2.3-0.428l-2.652-2.488l-1.973,1.585h-19.191l1.126,1.116
	c0.29-0.06,0.495-0.129,0.69-0.18h16.742c-1.691,1.151-3.592,2.268-5.459,3.131l-2.112-0.972v3.739h-15.424l1.126,1.116
	c0.289-0.059,0.494-0.128,0.69-0.18l13.608,0v4.649c-0.105,0.18-0.317,0.325-0.563,0.325c-1.585-0.108-3.486-0.253-5.247-0.289
	c0.034,0.144-0.072,0.324,0.07,0.361c1.021,0.324,2.324,0.683,3.275,1.259c0.713,0.444,0.884,1.003,0.969,1.42
	c0.008,0.041,0.016,0.082,0.023,0.121l0.073,0.579l0.553-0.203l-0.001-0.002c1.196-0.443,2.889-1.218,2.889-2.384v-5.837
	L410.735,293.366z"/>
</svg>
