<?xml version="1.0" encoding="utf-8"?>
<!-- Generator: Adobe Illustrator 16.0.3, SVG Export Plug-In . SVG Version: 6.00 Build 0)  -->
<!DOCTYPE svg PUBLIC "-//W3C//DTD SVG 1.1//EN" "http://www.w3.org/Graphics/SVG/1.1/DTD/svg11.dtd">
<svg version="1.1" id="圖層_1" xmlns="http://www.w3.org/2000/svg" xmlns:xlink="http://www.w3.org/1999/xlink" x="0px" y="0px"
	 width="248px" height="98px" viewBox="0 0 248 98" enable-background="new 0 0 248 98" xml:space="preserve">
<g>
	<g>
		<path fill="#E60012" d="M204.125,70.85v3.957h-1.221V70.85c-0.617,0.84-1.261,1.516-1.934,2.03
			c-0.673,0.514-1.549,0.989-2.627,1.427l-0.643-1.055c1.559-0.437,2.895-1.237,4.009-2.402h-2.725v-4.997h3.919v-0.72h-5.063V63.99
			h5.063v-1.003h1.221v1.003h5.113v1.143h-5.113v0.72h4.149v4.997h-2.967c0.573,0.601,1.162,1.063,1.765,1.388
			c0.604,0.325,1.387,0.643,2.346,0.952l-0.655,1.168c-0.898-0.378-1.702-0.803-2.409-1.279
			C205.647,72.604,204.904,71.86,204.125,70.85z M202.904,67.843v-0.898h-2.801v0.898H202.904z M202.904,69.771v-0.989h-2.801v0.989
			H202.904z M207.157,67.843v-0.898h-3.032v0.898H207.157z M207.157,69.771v-0.989h-3.032v0.989H207.157z"/>
		<path fill="#E60012" d="M214.287,64.785h-3.815v-1.156h11.833v1.156h-4.072v1.568h3.327v8.453h-1.221v-0.821h-7.901v0.821h-1.221
			v-8.453h3.07V64.785z M220.339,71.21h-1.824h-0.167c-0.429,0-0.751-0.102-0.964-0.302c-0.214-0.201-0.321-0.593-0.321-1.176V67.42
			h-1.606v0.218c0,2.064-0.667,3.632-2.004,4.703l-0.976-0.925c0.658-0.497,1.126-1.021,1.399-1.568
			c0.274-0.549,0.411-1.298,0.411-2.248v-0.154V67.42h-1.85v5.498h7.901V71.21z M215.456,66.354h1.606v-1.568h-1.606V66.354z
			 M220.339,67.42h-2.106v2.158c0,0.352,0.166,0.526,0.5,0.526h1.606V67.42z"/>
		<path fill="#E60012" d="M225.055,67.137l-0.592,0.309l-0.81-0.989c2.072-0.941,3.649-2.099,4.729-3.469l1.246,0.27l-0.297,0.424
			l-0.294,0.348h4.907v0.874c-0.394,0.719-0.889,1.361-1.483,1.926c-0.596,0.565-1.313,1.104-2.151,1.613
			c-0.841,0.51-1.303,0.765-1.389,0.765h5.589v5.601h-1.271v-0.796h-5.653v0.796h-1.271v-4.342c-0.146,0.051-0.267,0.093-0.36,0.128
			c-0.634,0.231-1.331,0.434-2.094,0.604l-0.514-1.246c1.927-0.307,3.584-0.861,4.971-1.658c-0.266-0.29-0.71-0.697-1.335-1.219
			c-0.086-0.068-0.202-0.164-0.348-0.283l0.951-0.668c0.12,0.094,0.222,0.171,0.309,0.231c0.334,0.248,0.595,0.449,0.784,0.603
			l0.795,0.682c1.243-0.745,2.231-1.584,2.969-2.519h-4.419l-0.451,0.387C226.818,66.122,225.979,66.666,225.055,67.137z
			 M233.238,70.298h-5.653v2.608h5.653V70.298z"/>
		<path fill="#E60012" d="M242.706,63v1.439c0,0.625,0.21,1.58,0.631,2.864c0.418,1.285,0.946,2.368,1.58,3.251
			c0.514,0.71,1.135,1.401,1.863,2.074c0.727,0.673,1.135,1.01,1.22,1.01l-0.887,1.155c-0.128,0-0.652-0.455-1.574-1.368
			c-0.92-0.912-1.62-1.796-2.1-2.653c-0.479-0.856-0.9-1.876-1.259-3.058c-0.386,1.414-0.815,2.533-1.291,3.36
			c-0.477,0.826-1.194,1.655-2.152,2.486c-0.96,0.83-1.525,1.245-1.697,1.245l-0.859-1.156c0.119,0,0.53-0.278,1.233-0.835
			c0.701-0.557,1.318-1.186,1.849-1.889c0.643-0.855,1.144-1.851,1.504-2.987c0.359-1.135,0.539-2.242,0.539-3.32V63H242.706z"/>
	</g>
	<path fill="#E60012" d="M13.698,58.378h23.529V35.407h-3.792V54.81h-6.133V39.422h-3.679v15.275h-5.911V35.184h-4.014V58.378z
		 M44.865,39.031h19.515v-4.014H41.185v23.527h22.972v-3.79H44.753v-6.133h15.388v-3.679H44.865V39.031z M72.531,53.063
		c0-2.095,1.698-3.795,3.794-3.795c2.097,0,3.794,1.7,3.794,3.795c0,2.094-1.698,3.794-3.794,3.794
		C74.229,56.856,72.531,55.156,72.531,53.063 M70.843,53.063c0,3.025,2.455,5.481,5.482,5.481c3.025,0,5.479-2.456,5.479-5.481
		c0-3.028-2.454-5.48-5.479-5.48C73.297,47.583,70.843,50.034,70.843,53.063 M81.767,40.474c0-3.012-2.443-5.45-5.452-5.45
		s-5.451,2.438-5.451,5.45s2.442,5.45,5.451,5.45S81.767,43.486,81.767,40.474 M81.994,35.366h0.446v-0.232h-1.203v0.232h0.451
		v1.132h0.306V35.366z M83.969,36.498h0.283v-1.364h-0.459l-0.272,0.93l-0.275-0.93h-0.458v1.364h0.284l0-1.074l0.299,1.074h0.294
		l0.301-1.074L83.969,36.498z M107.836,44.942H91.964v-5.911h15.872V44.942z M111.447,48.621l0.003-13.604H88.284v23.527h3.581
		l-0.013-9.923H111.447z M119.541,39.031h19.515v-4.014H115.86v23.527h22.972v-3.79h-19.403v-6.133h15.389v-3.679h-15.277V39.031z
		 M162.872,54.754h-15.829l0.026-15.723h15.803V54.754z M166.574,58.528l0.01-23.511h-23.195v23.527L166.574,58.528z
		 M189.896,44.942h-15.872v-5.911h15.872V44.942z M193.509,48.621l0.005-13.604h-23.17v23.527h3.582l-0.013-9.923H193.509z
		 M198.009,58.544h22.971v-3.79h-19.268l-0.024-19.737h-3.679V58.544z M228.485,39.031H248v-4.014h-23.193v23.527h22.97v-3.79
		h-19.402v-6.133h15.389v-3.679h-15.277V39.031z"/>
	<g>
		<polygon fill="#E60012" points="9.878,58.26 10.039,58.26 10.039,58.289 9.976,58.289 9.976,58.457 9.941,58.457 9.941,58.289 
			9.878,58.289 		"/>
		<polygon fill="#E60012" points="10.059,58.26 10.108,58.26 10.162,58.414 10.163,58.414 10.216,58.26 10.265,58.26 10.265,58.457 
			10.231,58.457 10.231,58.306 10.231,58.306 10.176,58.457 10.147,58.457 10.092,58.306 10.092,58.306 10.092,58.457 
			10.059,58.457 		"/>
		<g>
			<path fill="#E60012" d="M1.179,36.167H8.55v19.68H1.179V36.167z M0,56.88h9.722V35.13H0V56.88z"/>
			<path fill="#E60012" d="M3.55,37.696c0,0.529-0.429,0.957-0.957,0.957c-0.529,0-0.957-0.428-0.957-0.957
				c0-0.528,0.428-0.956,0.957-0.956C3.122,36.74,3.55,37.168,3.55,37.696"/>
			<path fill="#E60012" d="M2.593,38.977c-0.545,0-0.985,0.44-0.985,0.985s0.44,0.985,0.985,0.985c0.544,0,0.985-0.44,0.985-0.985
				S3.137,38.977,2.593,38.977 M2.593,40.621c-0.364,0-0.659-0.295-0.659-0.659s0.295-0.658,0.659-0.658s0.658,0.294,0.658,0.658
				S2.957,40.621,2.593,40.621"/>
			<polygon fill="#E60012" points="1.905,42.59 2.773,42.59 2.773,47.338 4.466,47.338 4.466,43.9 5.337,43.9 5.337,47.334 
				6.972,47.334 6.972,42.587 7.84,42.587 7.84,48.211 1.903,48.211 			"/>
			<polygon fill="#E60012" points="1.945,49.125 7.563,49.125 7.563,50.002 2.818,50.002 2.818,51.69 6.258,51.69 6.258,52.564 
				2.813,52.564 2.813,54.194 7.563,54.194 7.563,55.063 1.951,55.063 			"/>
			<path fill="#E60012" d="M1.013,58.353v-0.911H0.81v0.823H0.608v-0.621H0.405v0.621H0.203v-0.823H0v0.911
				c0,0.058,0.044,0.102,0.1,0.102h0.811C0.969,58.454,1.013,58.41,1.013,58.353 M2.279,58.353v-0.167L2.09,58.21v0.079H1.455V58.13
				h0.723c0.055,0,0.102-0.042,0.102-0.097v-0.287c0-0.059-0.044-0.103-0.102-0.103H1.366c-0.056,0-0.101,0.044-0.101,0.103v0.606
				c0,0.058,0.044,0.102,0.101,0.102h0.811C2.235,58.454,2.279,58.41,2.279,58.353 M2.09,57.963H1.455v-0.152H2.09V57.963z
				 M3.545,58.353v-0.283c0-0.057-0.044-0.102-0.102-0.102H2.721v-0.157h0.635v0.076l0.189,0.025v-0.166
				c0-0.059-0.044-0.103-0.102-0.103H2.632c-0.056,0-0.1,0.044-0.1,0.103v0.287c0,0.058,0.044,0.101,0.1,0.101h0.724v0.155H2.721
				V58.21l-0.189-0.024v0.167c0,0.058,0.044,0.102,0.1,0.102h0.811C3.5,58.454,3.545,58.41,3.545,58.353 M4.791,58.353v-0.226
				l-0.202,0.024v0.122H4.082v-0.447h0.507v-0.183H4.082v-0.202H3.878v0.202H3.778v0.183h0.101v0.526
				c0,0.064,0.043,0.102,0.102,0.102h0.708C4.746,58.454,4.791,58.41,4.791,58.353 M5.996,58.454v-0.189H5.18v-0.223h0.613v-0.19
				H5.18V57.63h0.816v-0.188H4.983v1.013H5.996z M7.221,58.353v-0.606c0-0.059-0.044-0.103-0.103-0.103h-0.81
				c-0.056,0-0.1,0.044-0.1,0.103v0.166l0.188-0.025v-0.076h0.635v0.157H6.308c-0.053,0-0.1,0.04-0.1,0.095v0.29
				c0,0.058,0.044,0.102,0.1,0.102h0.81C7.177,58.454,7.221,58.41,7.221,58.353 M7.032,58.289H6.396v-0.155h0.635V58.289z
				 M8.487,58.353v-0.283c0-0.057-0.044-0.102-0.102-0.102H7.663v-0.157h0.636v0.076l0.188,0.025v-0.166
				c0-0.059-0.044-0.103-0.102-0.103h-0.81c-0.057,0-0.101,0.044-0.101,0.103v0.287c0,0.058,0.044,0.101,0.101,0.101h0.724v0.155
				H7.663V58.21l-0.188-0.024v0.167c0,0.058,0.044,0.102,0.101,0.102h0.81C8.443,58.454,8.487,58.41,8.487,58.353 M9.733,58.353
				v-0.226l-0.202,0.024v0.122H9.023v-0.447h0.508v-0.183H9.023v-0.202H8.821v0.202H8.72v0.183h0.101v0.526
				c0,0.064,0.042,0.102,0.102,0.102h0.708C9.687,58.454,9.733,58.41,9.733,58.353"/>
		</g>
	</g>
</g>
</svg>
